<svg version="1.1" viewBox="0.0 0.0 394.54068241469815 237.20734908136484" fill="none" stroke="none" stroke-linecap="square" stroke-miterlimit="10" xmlns:xlink="http://www.w3.org/1999/xlink" xmlns="http://www.w3.org/2000/svg"><clipPath id="p.0"><path d="m0 0l394.54068 0l0 237.20735l-394.54068 0l0 -237.20735z" clip-rule="nonzero"/></clipPath><g clip-path="url(#p.0)"><path fill="#000000" fill-opacity="0.0" d="m0 0l394.54068 0l0 237.20735l-394.54068 0z" fill-rule="evenodd"/><path fill="#000000" fill-opacity="0.0" d="m6.154797 218.91254l373.35434 -215.87401" fill-rule="evenodd"/><path stroke="#f3f3f3" stroke-width="4.0" stroke-linejoin="round" stroke-linecap="butt" d="m6.154797 218.91254l373.35434 -215.87401" fill-rule="evenodd"/><path fill="#000000" fill-opacity="0.0" d="m10.636115 235.19066l373.13385 0" fill-rule="evenodd"/><path stroke="#f3f3f3" stroke-width="4.0" stroke-linejoin="round" stroke-linecap="butt" d="m10.636115 235.19066l373.13385 0" fill-rule="evenodd"/><path fill="#000000" fill-opacity="0.0" d="m392.52493 10.698163l0 215.74803" fill-rule="evenodd"/><path stroke="#f3f3f3" stroke-width="4.0" stroke-linejoin="round" stroke-linecap="butt" d="m392.52493 10.698163l0 215.74803" fill-rule="evenodd"/><path fill="#000000" fill-opacity="0.0" d="m383.76904 235.19083l0 0c2.3222046 0 4.549286 -0.92248535 6.191345 -2.5645447c1.6420593 -1.6420441 2.5645447 -3.8691406 2.5645447 -6.1913605l-8.75589 0z" fill-rule="evenodd"/><path fill="#000000" fill-opacity="0.0" d="m383.76904 235.19083l0 0c2.3222046 0 4.549286 -0.92248535 6.191345 -2.5645447c1.6420593 -1.6420441 2.5645447 -3.8691406 2.5645447 -6.1913605" fill-rule="evenodd"/><path stroke="#f3f3f3" stroke-width="4.0" stroke-linejoin="round" stroke-linecap="butt" d="m383.76904 235.19083l0 0c2.3222046 0 4.549286 -0.92248535 6.191345 -2.5645447c1.6420593 -1.6420441 2.5645447 -3.8691406 2.5645447 -6.1913605" fill-rule="evenodd"/><path fill="#000000" fill-opacity="0.0" d="m379.50296 3.0518126l0 0c2.711731 -1.5129211 6.0219116 -1.4764371 8.6996155 0.09588504c2.6777039 1.5723221 4.322357 4.4452543 4.322357 7.5504656l-8.75589 0z" fill-rule="evenodd"/><path fill="#000000" fill-opacity="0.0" d="m379.50296 3.0518126l0 0c2.711731 -1.5129211 6.0219116 -1.4764371 8.6996155 0.09588504c2.6777039 1.5723221 4.322357 4.4452543 4.322357 7.5504656" fill-rule="evenodd"/><path stroke="#f3f3f3" stroke-width="4.0" stroke-linejoin="round" stroke-linecap="butt" d="m379.50296 3.0518126l0 0c2.711731 -1.5129211 6.0219116 -1.4764371 8.6996155 0.09588504c2.6777039 1.5723221 4.322357 4.4452543 4.322357 7.5504656" fill-rule="evenodd"/><path fill="#000000" fill-opacity="0.0" d="m10.636115 235.19066l0 0c-3.9407115 0 -7.395895 -2.6325226 -8.44185 -6.431885c-1.0459546 -3.7993774 0.5750601 -7.829361 3.9605317 -9.846237l4.481318 7.522217z" fill-rule="evenodd"/><path fill="#000000" fill-opacity="0.0" d="m10.636115 235.19066l0 0c-3.9407115 0 -7.395895 -2.6325226 -8.44185 -6.431885c-1.0459546 -3.7993774 0.5750601 -7.829361 3.9605317 -9.846237" fill-rule="evenodd"/><path stroke="#f3f3f3" stroke-width="4.0" stroke-linejoin="round" stroke-linecap="butt" d="m10.636115 235.19066l0 0c-3.9407115 0 -7.395895 -2.6325226 -8.44185 -6.431885c-1.0459546 -3.7993774 0.5750601 -7.829361 3.9605317 -9.846237" fill-rule="evenodd"/></g></svg>