<svg version="1.1" viewBox="0.0 0.0 394.5196850393701 207.33333333333334" fill="none" stroke="none" stroke-linecap="square" stroke-miterlimit="10" xmlns:xlink="http://www.w3.org/1999/xlink" xmlns="http://www.w3.org/2000/svg"><clipPath id="p.0"><path d="m0 0l394.51968 0l0 207.33333l-394.51968 0l0 -207.33333z" clip-rule="nonzero"/></clipPath><g clip-path="url(#p.0)"><path fill="#000000" fill-opacity="0.0" d="m0 0l394.51968 0l0 207.33333l-394.51968 0z" fill-rule="evenodd"/><path fill="#000000" fill-opacity="0.0" d="m3.9627533 190.96739l186.74016 -186.04726" fill-rule="evenodd"/><path stroke="#f3f3f3" stroke-width="4.0" stroke-linejoin="round" stroke-linecap="butt" d="m3.9627533 190.96739l186.74016 -186.04726" fill-rule="evenodd"/><path fill="#000000" fill-opacity="0.0" d="m10.659738 205.36389l373.13388 0" fill-rule="evenodd"/><path stroke="#f3f3f3" stroke-width="4.0" stroke-linejoin="round" stroke-linecap="butt" d="m10.659738 205.36389l373.13388 0" fill-rule="evenodd"/><path fill="#000000" fill-opacity="0.0" d="m203.73021 4.868131l186.61418 185.92126" fill-rule="evenodd"/><path stroke="#f3f3f3" stroke-width="4.0" stroke-linejoin="round" stroke-linecap="butt" d="m203.73021 4.868131l186.61418 185.92126" fill-rule="evenodd"/><path fill="#000000" fill-opacity="0.0" d="m383.79266 205.36406l0 0c3.449463 0 6.577484 -2.0252838 7.9891357 -5.172699c1.4116516 -3.1474 0.84381104 -6.8303223 -1.4502869 -9.406372l-6.538849 5.823166z" fill-rule="evenodd"/><path fill="#000000" fill-opacity="0.0" d="m383.79266 205.36406l0 0c3.449463 0 6.577484 -2.0252838 7.9891357 -5.172699c1.4116516 -3.1474 0.84381104 -6.8303223 -1.4502869 -9.406372" fill-rule="evenodd"/><path stroke="#f3f3f3" stroke-width="4.0" stroke-linejoin="round" stroke-linecap="butt" d="m383.79266 205.36406l0 0c3.449463 0 6.577484 -2.0252838 7.9891357 -5.172699c1.4116516 -3.1474 0.84381104 -6.8303223 -1.4502869 -9.406372" fill-rule="evenodd"/><path fill="#000000" fill-opacity="0.0" d="m190.68799 4.905229l0 0c1.6556396 -1.8583896 4.0239105 -2.9243608 6.5128326 -2.9314404c2.4889069 -0.0070796013 4.86322 1.0454013 6.5293884 2.8943424l-6.504486 5.861528z" fill-rule="evenodd"/><path fill="#000000" fill-opacity="0.0" d="m190.68799 4.905229l0 0c1.6556396 -1.8583896 4.0239105 -2.9243608 6.5128326 -2.9314404c2.4889069 -0.0070796013 4.86322 1.0454013 6.5293884 2.8943424" fill-rule="evenodd"/><path stroke="#f3f3f3" stroke-width="4.0" stroke-linejoin="round" stroke-linecap="butt" d="m190.68799 4.905229l0 0c1.6556396 -1.8583896 4.0239105 -2.9243608 6.5128326 -2.9314404c2.4889069 -0.0070796013 4.86322 1.0454013 6.5293884 2.8943424" fill-rule="evenodd"/><path fill="#000000" fill-opacity="0.0" d="m10.659738 205.36389l0 0c-3.4057493 0 -6.5024924 -1.9748688 -7.9389668 -5.062851c-1.4364747 -3.0879822 -0.952016 -6.72876 1.2419825 -9.333649l6.6969843 5.6405945z" fill-rule="evenodd"/><path fill="#000000" fill-opacity="0.0" d="m10.659738 205.36389l0 0c-3.4057493 0 -6.5024924 -1.9748688 -7.9389668 -5.062851c-1.4364747 -3.0879822 -0.952016 -6.72876 1.2419825 -9.333649" fill-rule="evenodd"/><path stroke="#f3f3f3" stroke-width="4.0" stroke-linejoin="round" stroke-linecap="butt" d="m10.659738 205.36389l0 0c-3.4057493 0 -6.5024924 -1.9748688 -7.9389668 -5.062851c-1.4364747 -3.0879822 -0.952016 -6.72876 1.2419825 -9.333649" fill-rule="evenodd"/></g></svg>