<svg version="1.1" viewBox="0.0 0.0 955.1286089238845 1015.3858267716536" fill="none" stroke="none" stroke-linecap="square" stroke-miterlimit="10" xmlns:xlink="http://www.w3.org/1999/xlink" xmlns="http://www.w3.org/2000/svg"><clipPath id="p.0"><path d="m0 0l955.1286 0l0 1015.3858l-955.1286 0l0 -1015.3858z" clip-rule="nonzero"/></clipPath><g clip-path="url(#p.0)"><path fill="#000000" d="m0 0l955.1286 0l0 1015.3858l-955.1286 0z" fill-rule="evenodd"/><path fill="#000000" fill-opacity="0.0" d="m477.1168 523.11285l332.1575 192.0" fill-rule="evenodd"/><path stroke="#ffffff" stroke-width="2.0" stroke-linejoin="round" stroke-linecap="butt" d="m477.1168 523.11285l332.1575 192.0" fill-rule="evenodd"/><path fill="#000000" fill-opacity="0.0" d="m93.11714 523.6267l0 0c0.28364563 211.9768 172.27959 383.62787 384.2566 383.48608c211.97699 -0.1418457 383.7431 -172.02289 383.7431 -383.99994l-384.00003 0z" fill-rule="evenodd"/><path fill="#000000" fill-opacity="0.0" d="m93.11714 523.6267l0 0c0.28364563 211.9768 172.27959 383.62787 384.2566 383.48608c211.97699 -0.1418457 383.7431 -172.02289 383.7431 -383.99994" fill-rule="evenodd"/><path stroke="#ffffff" stroke-width="8.0" stroke-linejoin="round" stroke-linecap="butt" d="m93.11714 523.6267l0 0c0.28364563 211.9768 172.27959 383.62787 384.2566 383.48608c211.97699 -0.1418457 383.7431 -172.02289 383.7431 -383.99994" fill-rule="evenodd"/><path fill="#000000" fill-opacity="0.0" d="m93.32187 522.59906l0 0c0.283638 -211.97687 172.2796 -383.62793 384.25656 -383.4861c211.97699 0.14183044 383.7431 172.02289 383.7431 383.9999l-384.0 0z" fill-rule="evenodd"/><path fill="#000000" fill-opacity="0.0" d="m93.32187 522.59906l0 0c0.283638 -211.97687 172.2796 -383.62793 384.25656 -383.4861c211.97699 0.14183044 383.7431 172.02289 383.7431 383.9999" fill-rule="evenodd"/><path stroke="#ffffff" stroke-width="8.0" stroke-linejoin="round" stroke-linecap="butt" d="m93.32187 522.59906l0 0c0.283638 -211.97687 172.2796 -383.62793 384.25656 -383.4861c211.97699 0.14183044 383.7431 172.02289 383.7431 383.9999" fill-rule="evenodd"/><path fill="#000000" fill-opacity="0.0" d="m477.32153 38.39895l0 510.01572" fill-rule="evenodd"/><path stroke="#ffffff" stroke-width="3.0" stroke-linejoin="round" stroke-linecap="butt" d="m477.32153 38.39895l0 510.01572" fill-rule="evenodd"/><path fill="#000000" fill-opacity="0.0" d="m939.3373 523.7454l-924.0315 0.06298828" fill-rule="evenodd"/><path stroke="#ffffff" stroke-width="3.0" stroke-linejoin="round" stroke-linecap="butt" d="m939.3373 523.7454l-924.0315 0.06298828" fill-rule="evenodd"/><path fill="#000000" fill-opacity="0.0" d="m477.32153 523.11285l332.15747 -192.0" fill-rule="evenodd"/><path stroke="#ffffff" stroke-width="2.0" stroke-linejoin="round" stroke-linecap="butt" d="m477.32153 523.11285l332.15747 -192.0" fill-rule="evenodd"/><path fill="#000000" fill-opacity="0.0" d="m145.16405 331.11285l332.15747 192.0" fill-rule="evenodd"/><path stroke="#ffffff" stroke-width="2.0" stroke-linejoin="round" stroke-linecap="butt" d="m145.16405 331.11285l332.15747 192.0" fill-rule="evenodd"/><path fill="#000000" fill-opacity="0.0" d="m285.32153 190.53543l192.0 332.1575" fill-rule="evenodd"/><path stroke="#ffffff" stroke-width="2.0" stroke-linejoin="round" stroke-linecap="butt" d="m285.32153 190.53543l192.0 332.1575" fill-rule="evenodd"/><path fill="#000000" fill-opacity="0.0" d="m477.32153 522.69293l192.0 -332.1575" fill-rule="evenodd"/><path stroke="#ffffff" stroke-width="2.0" stroke-linejoin="round" stroke-linecap="butt" d="m477.32153 522.69293l192.0 -332.1575" fill-rule="evenodd"/><path fill="#000000" fill-opacity="0.0" d="m477.32153 522.69293l271.68506 -271.68506" fill-rule="evenodd"/><path stroke="#ffffff" stroke-width="2.0" stroke-linejoin="round" stroke-linecap="butt" d="m477.32153 522.69293l271.68506 -271.68506" fill-rule="evenodd"/><path fill="#000000" fill-opacity="0.0" d="m477.32153 522.69293l-271.68506 -271.68506" fill-rule="evenodd"/><path stroke="#ffffff" stroke-width="2.0" stroke-linejoin="round" stroke-linecap="butt" d="m477.32153 522.69293l-271.68506 -271.68506" fill-rule="evenodd"/><path fill="#000000" fill-opacity="0.0" d="m669.32153 190.53543l0.85040283 333.22836" fill-rule="evenodd"/><path stroke="#ffffff" stroke-width="1.0" stroke-linejoin="round" stroke-linecap="butt" stroke-dasharray="1.0,3.0" d="m669.32153 190.53543l0.85040283 333.22836" fill-rule="evenodd"/><path fill="#000000" fill-opacity="0.0" d="m749.0066 251.00787l0.4724121 272.75592" fill-rule="evenodd"/><path stroke="#ffffff" stroke-width="1.0" stroke-linejoin="round" stroke-linecap="butt" stroke-dasharray="1.0,3.0" d="m749.0066 251.00787l0.4724121 272.75592" fill-rule="evenodd"/><path fill="#000000" fill-opacity="0.0" d="m809.479 331.11285l1.0708618 192.62994" fill-rule="evenodd"/><path stroke="#ffffff" stroke-width="1.0" stroke-linejoin="round" stroke-linecap="butt" stroke-dasharray="1.0,3.0" d="m809.479 331.11285l1.0708618 192.62994" fill-rule="evenodd"/><path fill="#000000" fill-opacity="0.0" d="m285.32153 190.0l-0.85040283 333.22833" fill-rule="evenodd"/><path stroke="#ffffff" stroke-width="1.0" stroke-linejoin="round" stroke-linecap="butt" stroke-dasharray="1.0,3.0" d="m285.32153 190.0l-0.85040283 333.22833" fill-rule="evenodd"/><path fill="#000000" fill-opacity="0.0" d="m205.63649 250.47244l-0.47244263 272.7559" fill-rule="evenodd"/><path stroke="#ffffff" stroke-width="1.0" stroke-linejoin="round" stroke-linecap="butt" stroke-dasharray="1.0,3.0" d="m205.63649 250.47244l-0.47244263 272.7559" fill-rule="evenodd"/><path fill="#000000" fill-opacity="0.0" d="m145.16405 330.57742l-1.0708771 192.62991" fill-rule="evenodd"/><path stroke="#ffffff" stroke-width="1.0" stroke-linejoin="round" stroke-linecap="butt" stroke-dasharray="1.0,3.0" d="m145.16405 330.57742l-1.0708771 192.62991" fill-rule="evenodd"/><path fill="#000000" fill-opacity="0.0" d="m810.01447 331.22833l-333.22836 -0.8503723" fill-rule="evenodd"/><path stroke="#ffffff" stroke-width="1.0" stroke-linejoin="round" stroke-linecap="butt" stroke-dasharray="1.0,3.0" d="m810.01447 331.22833l-333.22836 -0.8503723" fill-rule="evenodd"/><path fill="#000000" fill-opacity="0.0" d="m749.542 251.5433l-272.7559 -0.47244263" fill-rule="evenodd"/><path stroke="#ffffff" stroke-width="1.0" stroke-linejoin="round" stroke-linecap="butt" stroke-dasharray="1.0,3.0" d="m749.542 251.5433l-272.7559 -0.47244263" fill-rule="evenodd"/><path fill="#000000" fill-opacity="0.0" d="m669.437 191.07086l-192.62991 -1.0708618" fill-rule="evenodd"/><path stroke="#ffffff" stroke-width="1.0" stroke-linejoin="round" stroke-linecap="butt" stroke-dasharray="1.0,3.0" d="m669.437 191.07086l-192.62991 -1.0708618" fill-rule="evenodd"/><path fill="#000000" fill-opacity="0.0" d="m144.09317 331.22833l333.22836 -0.8503723" fill-rule="evenodd"/><path stroke="#ffffff" stroke-width="1.0" stroke-linejoin="round" stroke-linecap="butt" stroke-dasharray="1.0,3.0" d="m144.09317 331.22833l333.22836 -0.8503723" fill-rule="evenodd"/><path fill="#000000" fill-opacity="0.0" d="m204.56561 251.5433l272.75592 -0.47244263" fill-rule="evenodd"/><path stroke="#ffffff" stroke-width="1.0" stroke-linejoin="round" stroke-linecap="butt" stroke-dasharray="1.0,3.0" d="m204.56561 251.5433l272.75592 -0.47244263" fill-rule="evenodd"/><path fill="#000000" fill-opacity="0.0" d="m284.6706 191.07086l192.62994 -1.0708618" fill-rule="evenodd"/><path stroke="#ffffff" stroke-width="1.0" stroke-linejoin="round" stroke-linecap="butt" stroke-dasharray="1.0,3.0" d="m284.6706 191.07086l192.62994 -1.0708618" fill-rule="evenodd"/><path fill="#000000" fill-opacity="0.0" d="m862.17194 478.50394l47.149597 0l0 45.259857l-47.149597 0z" fill-rule="evenodd"/><path fill="#ffffff" d="m876.4419 500.4527q0 -2.703125 0.546875 -4.34375q0.5625 -1.65625 1.65625 -2.546875q1.109375 -0.90625 2.765625 -0.90625q1.234375 0 2.15625 0.5q0.9375 0.484375 1.53125 1.421875q0.609375 0.9375 0.953125 2.28125q0.34375 1.328125 0.34375 3.59375q0 2.6875 -0.5625 4.34375q-0.546875 1.640625 -1.640625 2.546875q-1.09375 0.90625 -2.78125 0.90625q-2.203125 0 -3.46875 -1.59375q-1.5 -1.90625 -1.5 -6.203125zm1.921875 0q0 3.765625 0.875 5.015625q0.890625 1.234375 2.171875 1.234375q1.296875 0 2.171875 -1.25q0.890625 -1.25 0.890625 -5.0q0 -3.765625 -0.890625 -5.0q-0.875 -1.25 -2.1875 -1.25q-1.296875 0 -2.0625 1.09375q-0.96875 1.40625 -0.96875 5.15625zm10.377319 -5.109375q0 -1.203125 0.84375 -2.046875q0.859375 -0.84375 2.046875 -0.84375q1.203125 0 2.046875 0.84375q0.84375 0.84375 0.84375 2.046875q0 1.203125 -0.84375 2.046875q-0.84375 0.84375 -2.046875 0.84375q-1.1875 0 -2.046875 -0.84375q-0.84375 -0.84375 -0.84375 -2.046875zm1.140625 0q0 0.734375 0.515625 1.25q0.515625 0.515625 1.25 0.515625q0.71875 0 1.234375 -0.515625q0.515625 -0.515625 0.515625 -1.25q0 -0.734375 -0.515625 -1.25q-0.515625 -0.515625 -1.234375 -0.515625q-0.734375 0 -1.25 0.515625q-0.515625 0.515625 -0.515625 1.25z" fill-rule="nonzero"/><path fill="#000000" fill-opacity="0.0" d="m809.479 285.9685l57.606323 0l0 45.259827l-57.606323 0z" fill-rule="evenodd"/><path fill="#ffffff" d="m823.0465 311.41727l1.875 -0.25q0.328125 1.59375 1.09375 2.296875q0.78125 0.703125 1.90625 0.703125q1.3125 0 2.21875 -0.90625q0.921875 -0.921875 0.921875 -2.28125q0 -1.296875 -0.84375 -2.125q-0.84375 -0.84375 -2.140625 -0.84375q-0.53125 0 -1.328125 0.203125l0.203125 -1.640625q0.1875 0.015625 0.3125 0.015625q1.1875 0 2.140625 -0.625q0.96875 -0.625 0.96875 -1.921875q0 -1.03125 -0.703125 -1.703125q-0.6875 -0.671875 -1.796875 -0.671875q-1.09375 0 -1.828125 0.6875q-0.71875 0.6875 -0.9375 2.0625l-1.875 -0.34375q0.34375 -1.875 1.5625 -2.90625q1.21875 -1.046875 3.03125 -1.046875q1.25 0 2.296875 0.546875q1.0625 0.53125 1.609375 1.453125q0.5625 0.921875 0.5625 1.96875q0 0.984375 -0.53125 1.796875q-0.53125 0.8125 -1.5625 1.296875q1.34375 0.3125 2.09375 1.296875q0.75 0.984375 0.75 2.453125q0 2.0 -1.453125 3.390625q-1.453125 1.390625 -3.6875 1.390625q-2.015625 0 -3.34375 -1.1875q-1.328125 -1.203125 -1.515625 -3.109375zm11.861694 -3.5q0 -2.703125 0.546875 -4.34375q0.5625 -1.65625 1.65625 -2.546875q1.109375 -0.90625 2.765625 -0.90625q1.234375 0 2.15625 0.5q0.9375 0.484375 1.53125 1.421875q0.609375 0.9375 0.953125 2.28125q0.34375 1.328125 0.34375 3.59375q0 2.6875 -0.5625 4.34375q-0.546875 1.640625 -1.640625 2.546875q-1.09375 0.90625 -2.78125 0.90625q-2.203125 0 -3.46875 -1.59375q-1.5 -1.90625 -1.5 -6.203125zm1.921875 0q0 3.765625 0.875 5.015625q0.890625 1.234375 2.171875 1.234375q1.296875 0 2.171875 -1.25q0.890625 -1.25 0.890625 -5.0q0 -3.765625 -0.890625 -5.0q-0.875 -1.25 -2.1875 -1.25q-1.296875 0 -2.0625 1.09375q-0.96875 1.40625 -0.96875 5.15625zm10.377319 -5.109375q0 -1.203125 0.84375 -2.046875q0.859375 -0.84375 2.046875 -0.84375q1.203125 0 2.046875 0.84375q0.84375 0.84375 0.84375 2.046875q0 1.203125 -0.84375 2.046875q-0.84375 0.84375 -2.046875 0.84375q-1.1875 0 -2.046875 -0.84375q-0.84375 -0.84375 -0.84375 -2.046875zm1.140625 0q0 0.734375 0.515625 1.25q0.515625 0.515625 1.25 0.515625q0.71875 0 1.234375 -0.515625q0.515625 -0.515625 0.515625 -1.25q0 -0.734375 -0.515625 -1.25q-0.515625 -0.515625 -1.234375 -0.515625q-0.734375 0 -1.25 0.515625q-0.515625 0.515625 -0.515625 1.25z" fill-rule="nonzero"/><path fill="#000000" fill-opacity="0.0" d="m749.0066 205.32808l57.606262 0l0 45.259842l-57.606262 0z" fill-rule="evenodd"/><path fill="#ffffff" d="m768.57404 234.80809l0 -3.65625l-6.625 0l0 -1.71875l6.96875 -9.890625l1.53125 0l0 9.890625l2.0625 0l0 1.71875l-2.0625 0l0 3.65625l-1.875 0zm0 -5.375l0 -6.875l-4.78125 6.875l4.78125 0zm5.8616943 1.375l1.96875 -0.171875q0.21875 1.4375 1.015625 2.171875q0.796875 0.71875 1.921875 0.71875q1.34375 0 2.28125 -1.015625q0.9375 -1.03125 0.9375 -2.71875q0 -1.59375 -0.90625 -2.515625q-0.890625 -0.9375 -2.34375 -0.9375q-0.90625 0 -1.640625 0.421875q-0.734375 0.40625 -1.140625 1.0625l-1.765625 -0.234375l1.484375 -7.84375l7.59375 0l0 1.796875l-6.09375 0l-0.828125 4.09375q1.375 -0.953125 2.890625 -0.953125q2.0 0 3.359375 1.390625q1.375 1.375 1.375 3.5625q0 2.0625 -1.203125 3.578125q-1.46875 1.859375 -4.0 1.859375q-2.09375 0 -3.40625 -1.171875q-1.3125 -1.171875 -1.5 -3.09375zm12.299194 -8.640625q0 -1.203125 0.84375 -2.046875q0.859375 -0.84375 2.046875 -0.84375q1.203125 0 2.046875 0.84375q0.84375 0.84375 0.84375 2.046875q0 1.203125 -0.84375 2.046875q-0.84375 0.84375 -2.046875 0.84375q-1.1875 0 -2.046875 -0.84375q-0.84375 -0.84375 -0.84375 -2.046875zm1.140625 0q0 0.734375 0.515625 1.25q0.515625 0.515625 1.25 0.515625q0.71875 0 1.234375 -0.515625q0.515625 -0.515625 0.515625 -1.25q0 -0.734375 -0.515625 -1.25q-0.515625 -0.515625 -1.234375 -0.515625q-0.734375 0 -1.25 0.515625q-0.515625 0.515625 -0.515625 1.25z" fill-rule="nonzero"/><path fill="#000000" fill-opacity="0.0" d="m670.17194 144.74016l57.606262 0l0 45.259842l-57.606262 0z" fill-rule="evenodd"/><path fill="#ffffff" d="m693.4581 162.6889l-1.859375 0.15625q-0.25 -1.109375 -0.703125 -1.609375q-0.765625 -0.796875 -1.875 -0.796875q-0.90625 0 -1.578125 0.5q-0.890625 0.640625 -1.40625 1.875q-0.5 1.234375 -0.515625 3.53125q0.671875 -1.03125 1.640625 -1.53125q0.984375 -0.5 2.0625 -0.5q1.875 0 3.1875 1.390625q1.3125 1.375 1.3125 3.5625q0 1.4375 -0.625 2.671875q-0.609375 1.234375 -1.6875 1.890625q-1.078125 0.65625 -2.453125 0.65625q-2.34375 0 -3.828125 -1.71875q-1.484375 -1.734375 -1.484375 -5.6875q0 -4.421875 1.640625 -6.4375q1.421875 -1.75 3.84375 -1.75q1.796875 0 2.953125 1.015625q1.15625 1.0 1.375 2.78125zm-7.65625 6.578125q0 0.96875 0.40625 1.859375q0.421875 0.890625 1.15625 1.359375q0.75 0.453125 1.5625 0.453125q1.1875 0 2.03125 -0.953125q0.859375 -0.96875 0.859375 -2.609375q0 -1.578125 -0.84375 -2.484375q-0.84375 -0.921875 -2.125 -0.921875q-1.265625 0 -2.15625 0.921875q-0.890625 0.90625 -0.890625 2.375zm9.799194 -2.578125q0 -2.703125 0.546875 -4.34375q0.5625 -1.65625 1.65625 -2.546875q1.109375 -0.90625 2.765625 -0.90625q1.234375 0 2.15625 0.5q0.9375 0.484375 1.53125 1.421875q0.609375 0.9375 0.953125 2.28125q0.34375 1.328125 0.34375 3.59375q0 2.6875 -0.5625 4.34375q-0.546875 1.640625 -1.640625 2.546875q-1.09375 0.90625 -2.78125 0.90625q-2.203125 0 -3.46875 -1.59375q-1.5 -1.90625 -1.5 -6.203125zm1.921875 0q0 3.765625 0.875 5.015625q0.890625 1.234375 2.171875 1.234375q1.296875 0 2.171875 -1.25q0.890625 -1.25 0.890625 -5.0q0 -3.765625 -0.890625 -5.0q-0.875 -1.25 -2.1875 -1.25q-1.296875 0 -2.0625 1.09375q-0.96875 1.40625 -0.96875 5.15625zm10.377319 -5.109375q0 -1.203125 0.84375 -2.046875q0.859375 -0.84375 2.046875 -0.84375q1.203125 0 2.046875 0.84375q0.84375 0.84375 0.84375 2.046875q0 1.203125 -0.84375 2.046875q-0.84375 0.84375 -2.046875 0.84375q-1.1875 0 -2.046875 -0.84375q-0.84375 -0.84375 -0.84375 -2.046875zm1.140625 0q0 0.734375 0.515625 1.25q0.515625 0.515625 1.25 0.515625q0.71875 0 1.234375 -0.515625q0.515625 -0.515625 0.515625 -1.25q0 -0.734375 -0.515625 -1.25q-0.515625 -0.515625 -1.234375 -0.515625q-0.734375 0 -1.25 0.515625q-0.515625 0.515625 -0.515625 1.25z" fill-rule="nonzero"/><path fill="#000000" fill-opacity="0.0" d="m476.7861 93.2336l57.606293 0l0 45.259842l-57.606293 0z" fill-rule="evenodd"/><path fill="#ffffff" d="m490.63483 119.18234l1.796875 -0.171875q0.234375 1.28125 0.875 1.859375q0.640625 0.5625 1.65625 0.5625q0.859375 0 1.515625 -0.390625q0.65625 -0.40625 1.0625 -1.0625q0.421875 -0.65625 0.703125 -1.78125q0.28125 -1.125 0.28125 -2.296875q0 -0.125 -0.015625 -0.375q-0.5625 0.890625 -1.53125 1.453125q-0.96875 0.5625 -2.109375 0.5625q-1.890625 0 -3.203125 -1.375q-1.3125 -1.375 -1.3125 -3.625q0 -2.328125 1.359375 -3.734375q1.375 -1.421875 3.4375 -1.421875q1.484375 0 2.71875 0.8125q1.234375 0.796875 1.875 2.28125q0.640625 1.484375 0.640625 4.28125q0 2.9375 -0.640625 4.671875q-0.625 1.734375 -1.890625 2.640625q-1.25 0.90625 -2.9375 0.90625q-1.78125 0 -2.921875 -1.0q-1.140625 -1.0 -1.359375 -2.796875zm7.671875 -6.734375q0 -1.609375 -0.859375 -2.5625q-0.859375 -0.953125 -2.0625 -0.953125q-1.25 0 -2.1875 1.03125q-0.921875 1.015625 -0.921875 2.640625q0 1.453125 0.875 2.375q0.890625 0.90625 2.171875 0.90625q1.3125 0 2.140625 -0.90625q0.84375 -0.921875 0.84375 -2.53125zm3.9085693 2.734375q0 -2.703125 0.546875 -4.34375q0.5625 -1.65625 1.65625 -2.546875q1.109375 -0.90625 2.765625 -0.90625q1.234375 0 2.15625 0.5q0.9375 0.484375 1.53125 1.421875q0.609375 0.9375 0.953125 2.28125q0.34375 1.328125 0.34375 3.59375q0 2.6875 -0.5625 4.34375q-0.546875 1.640625 -1.640625 2.546875q-1.09375 0.90625 -2.78125 0.90625q-2.203125 0 -3.46875 -1.59375q-1.5 -1.90625 -1.5 -6.203125zm1.921875 0q0 3.765625 0.875 5.015625q0.890625 1.234375 2.171875 1.234375q1.296875 0 2.171875 -1.25q0.890625 -1.25 0.890625 -5.0q0 -3.765625 -0.890625 -5.0q-0.875 -1.25 -2.1875 -1.25q-1.296875 0 -2.0625 1.09375q-0.96875 1.40625 -0.96875 5.15625zm10.377319 -5.109375q0 -1.203125 0.84375 -2.046875q0.859375 -0.84375 2.046875 -0.84375q1.203125 0 2.046875 0.84375q0.84375 0.84375 0.84375 2.046875q0 1.203125 -0.84375 2.046875q-0.84375 0.84375 -2.046875 0.84375q-1.1875 0 -2.046875 -0.84375q-0.84375 -0.84375 -0.84375 -2.046875zm1.140625 0q0 0.734375 0.515625 1.25q0.515625 0.515625 1.25 0.515625q0.71875 0 1.234375 -0.515625q0.515625 -0.515625 0.515625 -1.25q0 -0.734375 -0.515625 -1.25q-0.515625 -0.515625 -1.234375 -0.515625q-0.734375 0 -1.25 0.515625q-0.515625 0.515625 -0.515625 1.25z" fill-rule="nonzero"/><path fill="#000000" fill-opacity="0.0" d="m238.17192 144.74016l66.645676 0l0 45.259842l-66.645676 0z" fill-rule="evenodd"/><path fill="#ffffff" d="m257.39075 174.22015l-1.875 0l0 -11.9375q-0.6875 0.640625 -1.78125 1.28125q-1.09375 0.640625 -1.96875 0.96875l0 -1.8125q1.5625 -0.734375 2.734375 -1.78125q1.1875 -1.0625 1.671875 -2.046875l1.21875 0l0 15.328125zm14.642944 -1.796875l0 1.796875l-10.09375 0q-0.015625 -0.671875 0.21875 -1.296875q0.390625 -1.03125 1.234375 -2.03125q0.859375 -1.0 2.453125 -2.3125q2.5 -2.046875 3.375 -3.234375q0.875 -1.203125 0.875 -2.25q0 -1.125 -0.796875 -1.890625q-0.796875 -0.765625 -2.078125 -0.765625q-1.359375 0 -2.171875 0.8125q-0.8125 0.8125 -0.828125 2.25l-1.921875 -0.1875q0.203125 -2.15625 1.484375 -3.28125q1.296875 -1.140625 3.46875 -1.140625q2.203125 0 3.484375 1.21875q1.28125 1.21875 1.28125 3.015625q0 0.921875 -0.375 1.8125q-0.375 0.875 -1.25 1.859375q-0.859375 0.96875 -2.890625 2.6875q-1.6875 1.40625 -2.171875 1.921875q-0.46875 0.5 -0.78125 1.015625l7.484375 0zm2.0179443 -5.734375q0 -2.703125 0.546875 -4.34375q0.5625 -1.65625 1.65625 -2.546875q1.109375 -0.90625 2.765625 -0.90625q1.234375 0 2.15625 0.5q0.9375 0.484375 1.53125 1.421875q0.609375 0.9375 0.953125 2.28125q0.34375 1.328125 0.34375 3.59375q0 2.6875 -0.5625 4.34375q-0.546875 1.640625 -1.640625 2.546875q-1.09375 0.90625 -2.78125 0.90625q-2.203125 0 -3.46875 -1.59375q-1.5 -1.90625 -1.5 -6.203125zm1.921875 0q0 3.765625 0.875 5.015625q0.890625 1.234375 2.171875 1.234375q1.296875 0 2.171875 -1.25q0.890625 -1.25 0.890625 -5.0q0 -3.765625 -0.890625 -5.0q-0.875 -1.25 -2.1875 -1.25q-1.296875 0 -2.0625 1.09375q-0.96875 1.40625 -0.96875 5.15625zm10.377319 -5.109375q0 -1.203125 0.84375 -2.046875q0.859375 -0.84375 2.046875 -0.84375q1.203125 0 2.046875 0.84375q0.84375 0.84375 0.84375 2.046875q0 1.203125 -0.84375 2.046875q-0.84375 0.84375 -2.046875 0.84375q-1.1875 0 -2.046875 -0.84375q-0.84375 -0.84375 -0.84375 -2.046875zm1.140625 0q0 0.734375 0.515625 1.25q0.515625 0.515625 1.25 0.515625q0.71875 0 1.234375 -0.515625q0.515625 -0.515625 0.515625 -1.25q0 -0.734375 -0.515625 -1.25q-0.515625 -0.515625 -1.234375 -0.515625q-0.734375 0 -1.25 0.515625q-0.515625 0.515625 -0.515625 1.25z" fill-rule="nonzero"/><path fill="#000000" fill-opacity="0.0" d="m158.48688 206.28346l66.645676 0l0 45.259842l-66.645676 0z" fill-rule="evenodd"/><path fill="#ffffff" d="m177.7057 235.76346l-1.875 0l0 -11.9375q-0.6875 0.640625 -1.78125 1.28125q-1.09375 0.640625 -1.96875 0.96875l0 -1.8125q1.5625 -0.734375 2.734375 -1.78125q1.1875 -1.0625 1.671875 -2.046875l1.21875 0l0 15.328125zm4.7991943 -4.03125l1.875 -0.25q0.328125 1.59375 1.09375 2.296875q0.78125 0.703125 1.90625 0.703125q1.3125 0 2.21875 -0.90625q0.921875 -0.921875 0.921875 -2.28125q0 -1.296875 -0.84375 -2.125q-0.84375 -0.84375 -2.140625 -0.84375q-0.53125 0 -1.328125 0.203125l0.203125 -1.640625q0.1875 0.015625 0.3125 0.015625q1.1875 0 2.140625 -0.625q0.96875 -0.625 0.96875 -1.921875q0 -1.03125 -0.703125 -1.703125q-0.6875 -0.671875 -1.796875 -0.671875q-1.09375 0 -1.828125 0.6875q-0.71875 0.6875 -0.9375 2.0625l-1.875 -0.34375q0.34375 -1.875 1.5625 -2.90625q1.21875 -1.046875 3.03125 -1.046875q1.25 0 2.296875 0.546875q1.0625 0.53125 1.609375 1.453125q0.5625 0.921875 0.5625 1.96875q0 0.984375 -0.53125 1.796875q-0.53125 0.8125 -1.5625 1.296875q1.34375 0.3125 2.09375 1.296875q0.75 0.984375 0.75 2.453125q0 2.0 -1.453125 3.390625q-1.453125 1.390625 -3.6875 1.390625q-2.015625 0 -3.34375 -1.1875q-1.328125 -1.203125 -1.515625 -3.109375zm11.861694 0.03125l1.96875 -0.171875q0.21875 1.4375 1.015625 2.171875q0.796875 0.71875 1.921875 0.71875q1.34375 0 2.28125 -1.015625q0.9375 -1.03125 0.9375 -2.71875q0 -1.59375 -0.90625 -2.515625q-0.890625 -0.9375 -2.34375 -0.9375q-0.90625 0 -1.640625 0.421875q-0.734375 0.40625 -1.140625 1.0625l-1.765625 -0.234375l1.484375 -7.84375l7.59375 0l0 1.796875l-6.09375 0l-0.828125 4.09375q1.375 -0.953125 2.890625 -0.953125q2.0 0 3.359375 1.390625q1.375 1.375 1.375 3.5625q0 2.0625 -1.203125 3.578125q-1.46875 1.859375 -4.0 1.859375q-2.09375 0 -3.40625 -1.171875q-1.3125 -1.171875 -1.5 -3.09375zm12.299194 -8.640625q0 -1.203125 0.84375 -2.046875q0.859375 -0.84375 2.046875 -0.84375q1.203125 0 2.046875 0.84375q0.84375 0.84375 0.84375 2.046875q0 1.203125 -0.84375 2.046875q-0.84375 0.84375 -2.046875 0.84375q-1.1875 0 -2.046875 -0.84375q-0.84375 -0.84375 -0.84375 -2.046875zm1.140625 0q0 0.734375 0.515625 1.25q0.515625 0.515625 1.25 0.515625q0.71875 0 1.234375 -0.515625q0.515625 -0.515625 0.515625 -1.25q0 -0.734375 -0.515625 -1.25q-0.515625 -0.515625 -1.234375 -0.515625q-0.734375 0 -1.25 0.515625q-0.515625 0.515625 -0.515625 1.25z" fill-rule="nonzero"/><path fill="#000000" fill-opacity="0.0" d="m98.014435 285.9685l66.645676 0l0 45.259827l-66.645676 0z" fill-rule="evenodd"/><path fill="#ffffff" d="m117.23327 315.44852l-1.875 0l0 -11.9375q-0.6875 0.640625 -1.78125 1.28125q-1.09375 0.640625 -1.96875 0.96875l0 -1.8125q1.5625 -0.734375 2.734375 -1.78125q1.1875 -1.0625 1.671875 -2.046875l1.21875 0l0 15.328125zm4.7991943 -4.0l1.96875 -0.171875q0.21875 1.4375 1.015625 2.171875q0.796875 0.71875 1.921875 0.71875q1.3437424 0 2.2812424 -1.015625q0.9375 -1.03125 0.9375 -2.71875q0 -1.59375 -0.90625 -2.515625q-0.890625 -0.9375 -2.3437424 -0.9375q-0.90625 0 -1.640625 0.421875q-0.734375 0.40625 -1.140625 1.0625l-1.765625 -0.234375l1.484375 -7.84375l7.5937424 0l0 1.796875l-6.0937424 0l-0.828125 4.09375q1.375 -0.953125 2.890625 -0.953125q1.9999924 0 3.3593674 1.390625q1.375 1.375 1.375 3.5625q0 2.0625 -1.203125 3.578125q-1.46875 1.859375 -3.9999924 1.859375q-2.09375 0 -3.40625 -1.171875q-1.3125 -1.171875 -1.5 -3.09375zm11.861687 -3.53125q0 -2.703125 0.546875 -4.34375q0.5625 -1.65625 1.65625 -2.546875q1.109375 -0.90625 2.765625 -0.90625q1.234375 0 2.15625 0.5q0.9375 0.484375 1.53125 1.421875q0.609375 0.9375 0.953125 2.28125q0.34375 1.328125 0.34375 3.59375q0 2.6875 -0.5625 4.34375q-0.546875 1.640625 -1.640625 2.546875q-1.09375 0.90625 -2.78125 0.90625q-2.203125 0 -3.46875 -1.59375q-1.5 -1.90625 -1.5 -6.203125zm1.921875 0q0 3.765625 0.875 5.015625q0.890625 1.234375 2.171875 1.234375q1.296875 0 2.171875 -1.25q0.890625 -1.25 0.890625 -5.0q0 -3.765625 -0.890625 -5.0q-0.875 -1.25 -2.1875 -1.25q-1.296875 0 -2.0625 1.09375q-0.96875 1.40625 -0.96875 5.15625zm10.377319 -5.109375q0 -1.203125 0.84375 -2.046875q0.859375 -0.84375 2.046875 -0.84375q1.203125 0 2.046875 0.84375q0.84375 0.84375 0.84375 2.046875q0 1.203125 -0.84375 2.046875q-0.84375 0.84375 -2.046875 0.84375q-1.1875 0 -2.046875 -0.84375q-0.84375 -0.84375 -0.84375 -2.046875zm1.140625 0q0 0.734375 0.515625 1.25q0.515625 0.515625 1.25 0.515625q0.71875 0 1.234375 -0.515625q0.515625 -0.515625 0.515625 -1.25q0 -0.734375 -0.515625 -1.25q-0.515625 -0.515625 -1.234375 -0.515625q-0.734375 0 -1.25 0.515625q-0.515625 0.515625 -0.515625 1.25z" fill-rule="nonzero"/><path fill="#000000" fill-opacity="0.0" d="m25.825459 477.43307l66.645676 0l0 45.259857l-66.645676 0z" fill-rule="evenodd"/><path fill="#ffffff" d="m45.04429 506.91306l-1.875 0l0 -11.9375q-0.6875 0.640625 -1.78125 1.28125q-1.09375 0.640625 -1.96875 0.96875l0 -1.8125q1.5625 -0.734375 2.734375 -1.78125q1.1875 -1.0625 1.671875 -2.046875l1.21875 0l0 15.328125zm7.6741943 -8.28125q-1.15625 -0.421875 -1.71875 -1.21875q-0.5625 -0.796875 -0.5625 -1.890625q0 -1.671875 1.1875 -2.796875q1.203125 -1.140625 3.1875 -1.140625q2.0 0 3.21875 1.171875q1.21875 1.15625 1.21875 2.8125q0 1.0625 -0.5625 1.859375q-0.546875 0.78125 -1.6875 1.203125q1.40625 0.453125 2.140625 1.484375q0.734375 1.015625 0.734375 2.4375q0 1.953125 -1.390625 3.296875q-1.375 1.328125 -3.640625 1.328125q-2.25 0 -3.640625 -1.34375q-1.390625 -1.34375 -1.390625 -3.34375q0 -1.484375 0.75 -2.484375q0.765625 -1.015625 2.15625 -1.375zm-0.375 -3.171875q0 1.078125 0.703125 1.765625q0.703125 0.6875 1.8125 0.6875q1.078125 0 1.765625 -0.671875q0.703125 -0.6875 0.703125 -1.671875q0 -1.03125 -0.71875 -1.734375q-0.703125 -0.703125 -1.765625 -0.703125q-1.078125 0 -1.796875 0.6875q-0.703125 0.6875 -0.703125 1.640625zm-0.59375 7.046875q0 0.796875 0.375 1.546875q0.375 0.75 1.125 1.171875q0.75 0.40625 1.625 0.40625q1.34375 0 2.21875 -0.859375q0.875 -0.875 0.875 -2.203125q0 -1.359375 -0.90625 -2.234375q-0.90625 -0.890625 -2.25 -0.890625q-1.328125 0 -2.203125 0.875q-0.859375 0.875 -0.859375 2.1875zm9.955444 -3.125q0 -2.703125 0.546875 -4.34375q0.5625 -1.65625 1.65625 -2.546875q1.109375 -0.90625 2.765625 -0.90625q1.234375 0 2.15625 0.5q0.9375 0.484375 1.53125 1.421875q0.609375 0.9375 0.953125 2.28125q0.34375 1.328125 0.34375 3.59375q0 2.6875 -0.5625 4.34375q-0.546875 1.640625 -1.640625 2.546875q-1.09375 0.90625 -2.78125 0.90625q-2.203125 0 -3.46875 -1.59375q-1.5 -1.90625 -1.5 -6.203125zm1.921875 0q0 3.765625 0.875 5.015625q0.890625 1.234375 2.171875 1.234375q1.296875 0 2.171875 -1.25q0.890625 -1.25 0.890625 -5.0q0 -3.765625 -0.890625 -5.0q-0.875 -1.25 -2.1875 -1.25q-1.296875 0 -2.0625 1.09375q-0.96875 1.40625 -0.96875 5.15625zm10.377319 -5.109375q0 -1.203125 0.84375 -2.046875q0.859375 -0.84375 2.046875 -0.84375q1.203125 0 2.046875 0.84375q0.84375 0.84375 0.84375 2.046875q0 1.203125 -0.84375 2.046875q-0.84375 0.84375 -2.046875 0.84375q-1.1875 0 -2.046875 -0.84375q-0.84375 -0.84375 -0.84375 -2.046875zm1.140625 0q0 0.734375 0.515625 1.25q0.515625 0.515625 1.25 0.515625q0.71875 0 1.234375 -0.515625q0.515625 -0.515625 0.515625 -1.25q0 -0.734375 -0.515625 -1.25q-0.515625 -0.515625 -1.234375 -0.515625q-0.734375 0 -1.25 0.515625q-0.515625 0.515625 -0.515625 1.25z" fill-rule="nonzero"/><path fill="#000000" d="m805.2113 330.80316l0 0c0 -2.65271 2.1504517 -4.8031616 4.8031616 -4.8031616l0 0c1.2738647 0 2.4955444 0.5060425 3.3963013 1.4067993c0.90075684 0.90078735 1.4067993 2.122467 1.4067993 3.3963623l0 0c0 2.6526794 -2.1504517 4.803131 -4.8031006 4.803131l0 0c-2.65271 0 -4.8031616 -2.1504517 -4.8031616 -4.803131z" fill-rule="evenodd"/><path stroke="#ffffff" stroke-width="1.0" stroke-linejoin="round" stroke-linecap="butt" d="m805.2113 330.80316l0 0c0 -2.65271 2.1504517 -4.8031616 4.8031616 -4.8031616l0 0c1.2738647 0 2.4955444 0.5060425 3.3963013 1.4067993c0.90075684 0.90078735 1.4067993 2.122467 1.4067993 3.3963623l0 0c0 2.6526794 -2.1504517 4.803131 -4.8031006 4.803131l0 0c-2.65271 0 -4.8031616 -2.1504517 -4.8031616 -4.803131z" fill-rule="evenodd"/><path fill="#000000" d="m744.43964 251.30708l0 0c0 -2.65271 2.1504517 -4.8031464 4.8031616 -4.8031464l0 0c1.2738647 0 2.4955444 0.5060425 3.3963013 1.4068146c0.9008179 0.90075684 1.4068604 2.122467 1.4068604 3.3963318l0 0c0 2.65271 -2.1504517 4.8031464 -4.8031616 4.8031464l0 0c-2.65271 0 -4.8031616 -2.1504364 -4.8031616 -4.8031464z" fill-rule="evenodd"/><path stroke="#ffffff" stroke-width="1.0" stroke-linejoin="round" stroke-linecap="butt" d="m744.43964 251.30708l0 0c0 -2.65271 2.1504517 -4.8031464 4.8031616 -4.8031464l0 0c1.2738647 0 2.4955444 0.5060425 3.3963013 1.4068146c0.9008179 0.90075684 1.4068604 2.122467 1.4068604 3.3963318l0 0c0 2.65271 -2.1504517 4.8031464 -4.8031616 4.8031464l0 0c-2.65271 0 -4.8031616 -2.1504364 -4.8031616 -4.8031464z" fill-rule="evenodd"/><path fill="#000000" d="m664.94354 190.53543l0 0c0 -2.65271 2.1504517 -4.8031464 4.8031616 -4.8031464l0 0c1.2738647 0 2.4956055 0.5060425 3.3963623 1.4068146c0.90075684 0.90075684 1.4067993 2.122467 1.4067993 3.3963318l0 0c0 2.65271 -2.1504517 4.8031464 -4.8031616 4.8031464l0 0c-2.65271 0 -4.8031616 -2.1504364 -4.8031616 -4.8031464z" fill-rule="evenodd"/><path stroke="#ffffff" stroke-width="1.0" stroke-linejoin="round" stroke-linecap="butt" d="m664.94354 190.53543l0 0c0 -2.65271 2.1504517 -4.8031464 4.8031616 -4.8031464l0 0c1.2738647 0 2.4956055 0.5060425 3.3963623 1.4068146c0.90075684 0.90075684 1.4067993 2.122467 1.4067993 3.3963318l0 0c0 2.65271 -2.1504517 4.8031464 -4.8031616 4.8031464l0 0c-2.65271 0 -4.8031616 -2.1504364 -4.8031616 -4.8031464z" fill-rule="evenodd"/><path fill="#000000" d="m472.51837 139.45932l0 0c0 -2.65271 2.1504517 -4.8031464 4.8031616 -4.8031464l0 0c1.2738647 0 2.495575 0.5060425 3.3963318 1.4067993c0.90075684 0.9007721 1.4067993 2.122467 1.4067993 3.396347l0 0c0 2.65271 -2.1504211 4.8031464 -4.803131 4.8031464l0 0c-2.65271 0 -4.8031616 -2.1504364 -4.8031616 -4.8031464z" fill-rule="evenodd"/><path stroke="#ffffff" stroke-width="1.0" stroke-linejoin="round" stroke-linecap="butt" d="m472.51837 139.45932l0 0c0 -2.65271 2.1504517 -4.8031464 4.8031616 -4.8031464l0 0c1.2738647 0 2.495575 0.5060425 3.3963318 1.4067993c0.90075684 0.9007721 1.4067993 2.122467 1.4067993 3.396347l0 0c0 2.65271 -2.1504211 4.8031464 -4.803131 4.8031464l0 0c-2.65271 0 -4.8031616 -2.1504364 -4.8031616 -4.8031464z" fill-rule="evenodd"/><path fill="#000000" d="m280.09317 190.53543l0 0c0 -2.65271 2.1504517 -4.8031464 4.8031616 -4.8031464l0 0c1.2738647 0 2.495575 0.5060425 3.3963318 1.4068146c0.90075684 0.90075684 1.4067993 2.122467 1.4067993 3.3963318l0 0c0 2.65271 -2.1504211 4.8031464 -4.803131 4.8031464l0 0c-2.65271 0 -4.8031616 -2.1504364 -4.8031616 -4.8031464z" fill-rule="evenodd"/><path stroke="#ffffff" stroke-width="1.0" stroke-linejoin="round" stroke-linecap="butt" d="m280.09317 190.53543l0 0c0 -2.65271 2.1504517 -4.8031464 4.8031616 -4.8031464l0 0c1.2738647 0 2.495575 0.5060425 3.3963318 1.4068146c0.90075684 0.90075684 1.4067993 2.122467 1.4067993 3.3963318l0 0c0 2.65271 -2.1504211 4.8031464 -4.803131 4.8031464l0 0c-2.65271 0 -4.8031616 -2.1504364 -4.8031616 -4.8031464z" fill-rule="evenodd"/><path fill="#000000" d="m200.5971 251.30708l0 0c0 -2.65271 2.1504517 -4.8031464 4.8031616 -4.8031464l0 0c1.2738647 0 2.495575 0.5060425 3.3963318 1.4068146c0.9007721 0.90075684 1.4068146 2.122467 1.4068146 3.3963318l0 0c0 2.65271 -2.1504517 4.8031464 -4.8031464 4.8031464l0 0c-2.65271 0 -4.8031616 -2.1504364 -4.8031616 -4.8031464z" fill-rule="evenodd"/><path stroke="#ffffff" stroke-width="1.0" stroke-linejoin="round" stroke-linecap="butt" d="m200.5971 251.30708l0 0c0 -2.65271 2.1504517 -4.8031464 4.8031616 -4.8031464l0 0c1.2738647 0 2.495575 0.5060425 3.3963318 1.4068146c0.9007721 0.90075684 1.4068146 2.122467 1.4068146 3.3963318l0 0c0 2.65271 -2.1504517 4.8031464 -4.8031464 4.8031464l0 0c-2.65271 0 -4.8031616 -2.1504364 -4.8031616 -4.8031464z" fill-rule="evenodd"/><path fill="#000000" d="m139.82545 330.80316l0 0c0 -2.65271 2.1504517 -4.8031616 4.8031616 -4.8031616l0 0c1.2738647 0 2.4955597 0.5060425 3.3963318 1.4067993c0.9007721 0.90078735 1.4068146 2.122467 1.4068146 3.3963623l0 0c0 2.6526794 -2.1504517 4.803131 -4.8031464 4.803131l0 0c-2.65271 0 -4.8031616 -2.1504517 -4.8031616 -4.803131z" fill-rule="evenodd"/><path stroke="#ffffff" stroke-width="1.0" stroke-linejoin="round" stroke-linecap="butt" d="m139.82545 330.80316l0 0c0 -2.65271 2.1504517 -4.8031616 4.8031616 -4.8031616l0 0c1.2738647 0 2.4955597 0.5060425 3.3963318 1.4067993c0.9007721 0.90078735 1.4068146 2.122467 1.4068146 3.3963623l0 0c0 2.6526794 -2.1504517 4.803131 -4.8031464 4.803131l0 0c-2.65271 0 -4.8031616 -2.1504517 -4.8031616 -4.803131z" fill-rule="evenodd"/><path fill="#000000" d="m856.6575 523.11285l0 0c0 -2.65271 2.1504517 -4.8031616 4.8031616 -4.8031616l0 0c1.2738647 0 2.4955444 0.5060425 3.3963623 1.4067993c0.90075684 0.9008179 1.4067993 2.1224976 1.4067993 3.3963623l0 0c0 2.65271 -2.1504517 4.8031616 -4.8031616 4.8031616l0 0c-2.65271 0 -4.8031616 -2.1504517 -4.8031616 -4.8031616z" fill-rule="evenodd"/><path stroke="#ffffff" stroke-width="1.0" stroke-linejoin="round" stroke-linecap="butt" d="m856.6575 523.11285l0 0c0 -2.65271 2.1504517 -4.8031616 4.8031616 -4.8031616l0 0c1.2738647 0 2.4955444 0.5060425 3.3963623 1.4067993c0.90075684 0.9008179 1.4067993 2.1224976 1.4067993 3.3963623l0 0c0 2.65271 -2.1504517 4.8031616 -4.8031616 4.8031616l0 0c-2.65271 0 -4.8031616 -2.1504517 -4.8031616 -4.8031616z" fill-rule="evenodd"/><path fill="#000000" d="m88.379265 523.4278l0 0c0 -2.65271 2.150444 -4.8031006 4.8031464 -4.8031006l0 0c1.27388 0 2.495575 0.5060425 3.3963394 1.4067993c0.9007721 0.90075684 1.4068146 2.1224365 1.4068146 3.3963013l0 0c0 2.65271 -2.150444 4.8031616 -4.803154 4.8031616l0 0c-2.6527023 0 -4.8031464 -2.1504517 -4.8031464 -4.8031616z" fill-rule="evenodd"/><path stroke="#ffffff" stroke-width="1.0" stroke-linejoin="round" stroke-linecap="butt" d="m88.379265 523.4278l0 0c0 -2.65271 2.150444 -4.8031006 4.8031464 -4.8031006l0 0c1.27388 0 2.495575 0.5060425 3.3963394 1.4067993c0.9007721 0.90075684 1.4068146 2.1224365 1.4068146 3.3963013l0 0c0 2.65271 -2.150444 4.8031616 -4.803154 4.8031616l0 0c-2.6527023 0 -4.8031464 -2.1504517 -4.8031464 -4.8031616z" fill-rule="evenodd"/><path fill="#000000" fill-opacity="0.0" d="m477.1168 1007.8268l0 -510.01575" fill-rule="evenodd"/><path stroke="#ffffff" stroke-width="3.0" stroke-linejoin="round" stroke-linecap="butt" d="m477.1168 1007.8268l0 -510.01575" fill-rule="evenodd"/><path fill="#000000" fill-opacity="0.0" d="m144.95932 715.11285l332.15747 -192.0" fill-rule="evenodd"/><path stroke="#ffffff" stroke-width="2.0" stroke-linejoin="round" stroke-linecap="butt" d="m144.95932 715.11285l332.15747 -192.0" fill-rule="evenodd"/><path fill="#000000" fill-opacity="0.0" d="m285.1168 855.6903l192.0 -332.15747" fill-rule="evenodd"/><path stroke="#ffffff" stroke-width="2.0" stroke-linejoin="round" stroke-linecap="butt" d="m285.1168 855.6903l192.0 -332.15747" fill-rule="evenodd"/><path fill="#000000" fill-opacity="0.0" d="m477.1168 523.53284l192.00003 332.15747" fill-rule="evenodd"/><path stroke="#ffffff" stroke-width="2.0" stroke-linejoin="round" stroke-linecap="butt" d="m477.1168 523.53284l192.00003 332.15747" fill-rule="evenodd"/><path fill="#000000" fill-opacity="0.0" d="m477.1168 523.53284l271.68503 271.685" fill-rule="evenodd"/><path stroke="#ffffff" stroke-width="2.0" stroke-linejoin="round" stroke-linecap="butt" d="m477.1168 523.53284l271.68503 271.685" fill-rule="evenodd"/><path fill="#000000" fill-opacity="0.0" d="m477.1168 523.53284l-271.68503 271.685" fill-rule="evenodd"/><path stroke="#ffffff" stroke-width="2.0" stroke-linejoin="round" stroke-linecap="butt" d="m477.1168 523.53284l-271.68503 271.685" fill-rule="evenodd"/><path fill="#000000" fill-opacity="0.0" d="m669.1168 855.6903l0.8503418 -333.2284" fill-rule="evenodd"/><path stroke="#ffffff" stroke-width="1.0" stroke-linejoin="round" stroke-linecap="butt" stroke-dasharray="1.0,3.0" d="m669.1168 855.6903l0.8503418 -333.2284" fill-rule="evenodd"/><path fill="#000000" fill-opacity="0.0" d="m748.8018 795.21783l0.47247314 -272.75592" fill-rule="evenodd"/><path stroke="#ffffff" stroke-width="1.0" stroke-linejoin="round" stroke-linecap="butt" stroke-dasharray="1.0,3.0" d="m748.8018 795.21783l0.47247314 -272.75592" fill-rule="evenodd"/><path fill="#000000" fill-opacity="0.0" d="m809.2743 715.11285l1.0708618 -192.62994" fill-rule="evenodd"/><path stroke="#ffffff" stroke-width="1.0" stroke-linejoin="round" stroke-linecap="butt" stroke-dasharray="1.0,3.0" d="m809.2743 715.11285l1.0708618 -192.62994" fill-rule="evenodd"/><path fill="#000000" fill-opacity="0.0" d="m285.1168 856.2257l-0.8503723 -333.22833" fill-rule="evenodd"/><path stroke="#ffffff" stroke-width="1.0" stroke-linejoin="round" stroke-linecap="butt" stroke-dasharray="1.0,3.0" d="m285.1168 856.2257l-0.8503723 -333.22833" fill-rule="evenodd"/><path fill="#000000" fill-opacity="0.0" d="m205.43176 795.7533l-0.47244263 -272.75592" fill-rule="evenodd"/><path stroke="#ffffff" stroke-width="1.0" stroke-linejoin="round" stroke-linecap="butt" stroke-dasharray="1.0,3.0" d="m205.43176 795.7533l-0.47244263 -272.75592" fill-rule="evenodd"/><path fill="#000000" fill-opacity="0.0" d="m144.95932 715.6483l-1.0708618 -192.62994" fill-rule="evenodd"/><path stroke="#ffffff" stroke-width="1.0" stroke-linejoin="round" stroke-linecap="butt" stroke-dasharray="1.0,3.0" d="m144.95932 715.6483l-1.0708618 -192.62994" fill-rule="evenodd"/><path fill="#000000" fill-opacity="0.0" d="m809.8097 714.9974l-333.22833 0.85040283" fill-rule="evenodd"/><path stroke="#ffffff" stroke-width="1.0" stroke-linejoin="round" stroke-linecap="butt" stroke-dasharray="1.0,3.0" d="m809.8097 714.9974l-333.22833 0.85040283" fill-rule="evenodd"/><path fill="#000000" fill-opacity="0.0" d="m749.3373 794.68243l-272.75592 0.4724121" fill-rule="evenodd"/><path stroke="#ffffff" stroke-width="1.0" stroke-linejoin="round" stroke-linecap="butt" stroke-dasharray="1.0,3.0" d="m749.3373 794.68243l-272.75592 0.4724121" fill-rule="evenodd"/><path fill="#000000" fill-opacity="0.0" d="m669.2323 855.15485l-192.62994 1.0708618" fill-rule="evenodd"/><path stroke="#ffffff" stroke-width="1.0" stroke-linejoin="round" stroke-linecap="butt" stroke-dasharray="1.0,3.0" d="m669.2323 855.15485l-192.62994 1.0708618" fill-rule="evenodd"/><path fill="#000000" fill-opacity="0.0" d="m143.88846 714.9974l333.22833 0.85040283" fill-rule="evenodd"/><path stroke="#ffffff" stroke-width="1.0" stroke-linejoin="round" stroke-linecap="butt" stroke-dasharray="1.0,3.0" d="m143.88846 714.9974l333.22833 0.85040283" fill-rule="evenodd"/><path fill="#000000" fill-opacity="0.0" d="m204.36089 794.68243l272.75592 0.4724121" fill-rule="evenodd"/><path stroke="#ffffff" stroke-width="1.0" stroke-linejoin="round" stroke-linecap="butt" stroke-dasharray="1.0,3.0" d="m204.36089 794.68243l272.75592 0.4724121" fill-rule="evenodd"/><path fill="#000000" fill-opacity="0.0" d="m284.46588 855.15485l192.62991 1.0708618" fill-rule="evenodd"/><path stroke="#ffffff" stroke-width="1.0" stroke-linejoin="round" stroke-linecap="butt" stroke-dasharray="1.0,3.0" d="m284.46588 855.15485l192.62991 1.0708618" fill-rule="evenodd"/><path fill="#000000" fill-opacity="0.0" d="m872.92926 714.9974l-63.653564 0l0 45.259827l63.653564 0z" fill-rule="evenodd"/><path fill="#ffffff" d="m819.936 740.4461l1.875 -0.25q0.328125 1.59375 1.09375 2.296875q0.78125 0.703125 1.90625 0.703125q1.3125 0 2.21875 -0.90625q0.921875 -0.921875 0.921875 -2.28125q0 -1.296875 -0.84375 -2.125q-0.84375 -0.84375 -2.140625 -0.84375q-0.53125 0 -1.328125 0.203125l0.203125 -1.640625q0.1875 0.015625 0.3125 0.015625q1.1875 0 2.140625 -0.625q0.96875 -0.625 0.96875 -1.921875q0 -1.03125 -0.703125 -1.703125q-0.6875 -0.671875 -1.796875 -0.671875q-1.09375 0 -1.828125 0.6875q-0.71875 0.6875 -0.9375 2.0625l-1.875 -0.34375q0.34375 -1.875 1.5625 -2.90625q1.21875 -1.046875 3.03125 -1.046875q1.25 0 2.296875 0.546875q1.0625 0.53125 1.609375 1.453125q0.5625 0.921875 0.5625 1.96875q0 0.984375 -0.53125 1.796875q-0.53125 0.8125 -1.5625 1.296875q1.34375 0.3125 2.09375 1.296875q0.75 0.984375 0.75 2.453125q0 2.0 -1.453125 3.390625q-1.453125 1.390625 -3.6875 1.390625q-2.015625 0 -3.34375 -1.1875q-1.328125 -1.203125 -1.515625 -3.109375zm11.861694 0l1.875 -0.25q0.328125 1.59375 1.09375 2.296875q0.78125 0.703125 1.90625 0.703125q1.3125 0 2.21875 -0.90625q0.921875 -0.921875 0.921875 -2.28125q0 -1.296875 -0.84375 -2.125q-0.84375 -0.84375 -2.140625 -0.84375q-0.53125 0 -1.328125 0.203125l0.203125 -1.640625q0.1875 0.015625 0.3125 0.015625q1.1875 0 2.140625 -0.625q0.96875 -0.625 0.96875 -1.921875q0 -1.03125 -0.703125 -1.703125q-0.6875 -0.671875 -1.796875 -0.671875q-1.09375 0 -1.828125 0.6875q-0.71875 0.6875 -0.9375 2.0625l-1.875 -0.34375q0.34375 -1.875 1.5625 -2.90625q1.21875 -1.046875 3.03125 -1.046875q1.25 0 2.296875 0.546875q1.0625 0.53125 1.609375 1.453125q0.5625 0.921875 0.5625 1.96875q0 0.984375 -0.53125 1.796875q-0.53125 0.8125 -1.5625 1.296875q1.34375 0.3125 2.09375 1.296875q0.75 0.984375 0.75 2.453125q0 2.0 -1.453125 3.390625q-1.453125 1.390625 -3.6875 1.390625q-2.015625 0 -3.34375 -1.1875q-1.328125 -1.203125 -1.515625 -3.109375zm11.861694 -3.5q0 -2.703125 0.546875 -4.34375q0.5625 -1.65625 1.65625 -2.546875q1.109375 -0.90625 2.765625 -0.90625q1.234375 0 2.15625 0.5q0.9375 0.484375 1.53125 1.421875q0.609375 0.9375 0.953125 2.28125q0.34375 1.328125 0.34375 3.59375q0 2.6875 -0.5625 4.34375q-0.546875 1.640625 -1.640625 2.546875q-1.09375 0.90625 -2.78125 0.90625q-2.203125 0 -3.46875 -1.59375q-1.5 -1.90625 -1.5 -6.203125zm1.921875 0q0 3.765625 0.875 5.015625q0.890625 1.234375 2.171875 1.234375q1.296875 0 2.171875 -1.25q0.890625 -1.25 0.890625 -5.0q0 -3.765625 -0.890625 -5.0q-0.875 -1.25 -2.1875 -1.25q-1.296875 0 -2.0625 1.09375q-0.96875 1.40625 -0.96875 5.15625zm10.377319 -5.109375q0 -1.203125 0.84375 -2.046875q0.859375 -0.84375 2.046875 -0.84375q1.203125 0 2.046875 0.84375q0.84375 0.84375 0.84375 2.046875q0 1.203125 -0.84375 2.046875q-0.84375 0.84375 -2.046875 0.84375q-1.1875 0 -2.046875 -0.84375q-0.84375 -0.84375 -0.84375 -2.046875zm1.140625 0q0 0.734375 0.515625 1.25q0.515625 0.515625 1.25 0.515625q0.71875 0 1.234375 -0.515625q0.515625 -0.515625 0.515625 -1.25q0 -0.734375 -0.515625 -1.25q-0.515625 -0.515625 -1.234375 -0.515625q-0.734375 0 -1.25 0.515625q-0.515625 0.515625 -0.515625 1.25z" fill-rule="nonzero"/><path fill="#000000" fill-opacity="0.0" d="m748.8033 795.6378l63.653564 0l0 45.259827l-63.653564 0z" fill-rule="evenodd"/><path fill="#ffffff" d="m759.46356 821.08655l1.875 -0.25q0.328125 1.59375 1.09375 2.296875q0.78125 0.703125 1.90625 0.703125q1.3125 0 2.21875 -0.90625q0.921875 -0.921875 0.921875 -2.28125q0 -1.296875 -0.84375 -2.125q-0.84375 -0.84375 -2.140625 -0.84375q-0.53125 0 -1.328125 0.203125l0.203125 -1.640625q0.1875 0.015625 0.3125 0.015625q1.1875 0 2.140625 -0.625q0.96875 -0.625 0.96875 -1.921875q0 -1.03125 -0.703125 -1.703125q-0.6875 -0.671875 -1.796875 -0.671875q-1.09375 0 -1.828125 0.6875q-0.71875 0.6875 -0.9375 2.0625l-1.875 -0.34375q0.34375 -1.875 1.5625 -2.90625q1.21875 -1.046875 3.03125 -1.046875q1.25 0 2.296875 0.546875q1.0625 0.53125 1.609375 1.453125q0.5625 0.921875 0.5625 1.96875q0 0.984375 -0.53125 1.796875q-0.53125 0.8125 -1.5625 1.296875q1.34375 0.3125 2.09375 1.296875q0.75 0.984375 0.75 2.453125q0 2.0 -1.453125 3.390625q-1.453125 1.390625 -3.6875 1.390625q-2.015625 0 -3.34375 -1.1875q-1.328125 -1.203125 -1.515625 -3.109375zm18.924194 4.03125l-1.875 0l0 -11.9375q-0.6875 0.640625 -1.78125 1.28125q-1.09375 0.640625 -1.96875 0.96875l0 -1.8125q1.5625 -0.734375 2.734375 -1.78125q1.1875 -1.0625 1.671875 -2.046875l1.21875 0l0 15.328125zm4.7991943 -4.0l1.96875 -0.171875q0.21875 1.4375 1.015625 2.171875q0.796875 0.71875 1.921875 0.71875q1.34375 0 2.28125 -1.015625q0.9375 -1.03125 0.9375 -2.71875q0 -1.59375 -0.90625 -2.515625q-0.890625 -0.9375 -2.34375 -0.9375q-0.90625 0 -1.640625 0.421875q-0.734375 0.40625 -1.140625 1.0625l-1.765625 -0.234375l1.484375 -7.84375l7.59375 0l0 1.796875l-6.09375 0l-0.828125 4.09375q1.375 -0.953125 2.890625 -0.953125q2.0 0 3.359375 1.390625q1.375 1.375 1.375 3.5625q0 2.0625 -1.203125 3.578125q-1.46875 1.859375 -4.0 1.859375q-2.09375 0 -3.40625 -1.171875q-1.3125 -1.171875 -1.5 -3.09375zm12.299194 -8.640625q0 -1.203125 0.84375 -2.046875q0.859375 -0.84375 2.046875 -0.84375q1.203125 0 2.046875 0.84375q0.84375 0.84375 0.84375 2.046875q0 1.203125 -0.84375 2.046875q-0.84375 0.84375 -2.046875 0.84375q-1.1875 0 -2.046875 -0.84375q-0.84375 -0.84375 -0.84375 -2.046875zm1.140625 0q0 0.734375 0.515625 1.25q0.515625 0.515625 1.25 0.515625q0.71875 0 1.234375 -0.515625q0.515625 -0.515625 0.515625 -1.25q0 -0.734375 -0.515625 -1.25q-0.515625 -0.515625 -1.234375 -0.515625q-0.734375 0 -1.25 0.515625q-0.515625 0.515625 -0.515625 1.25z" fill-rule="nonzero"/><path fill="#000000" fill-opacity="0.0" d="m669.96875 856.2257l66.64563 0l0 45.259827l-66.64563 0z" fill-rule="evenodd"/><path fill="#ffffff" d="m682.12506 881.6745l1.875 -0.25q0.328125 1.59375 1.09375 2.296875q0.78125 0.703125 1.90625 0.703125q1.3125 0 2.21875 -0.90625q0.921875 -0.921875 0.921875 -2.28125q0 -1.296875 -0.84375 -2.125q-0.84375 -0.84375 -2.140625 -0.84375q-0.53125 0 -1.328125 0.203125l0.203125 -1.640625q0.1875 0.015625 0.3125 0.015625q1.1875 0 2.140625 -0.625q0.96875 -0.625 0.96875 -1.921875q0 -1.03125 -0.703125 -1.703125q-0.6875 -0.671875 -1.796875 -0.671875q-1.09375 0 -1.828125 0.6875q-0.71875 0.6875 -0.9375 2.0625l-1.875 -0.34375q0.34375 -1.875 1.5625 -2.90625q1.21875 -1.046875 3.03125 -1.046875q1.25 0 2.296875 0.546875q1.0625 0.53125 1.609375 1.453125q0.5625 0.921875 0.5625 1.96875q0 0.984375 -0.53125 1.796875q-0.53125 0.8125 -1.5625 1.296875q1.34375 0.3125 2.09375 1.296875q0.75 0.984375 0.75 2.453125q0 2.0 -1.453125 3.390625q-1.453125 1.390625 -3.6875 1.390625q-2.015625 0 -3.34375 -1.1875q-1.328125 -1.203125 -1.515625 -3.109375zm11.861694 -3.5q0 -2.703125 0.546875 -4.34375q0.5625 -1.65625 1.65625 -2.546875q1.109375 -0.90625 2.765625 -0.90625q1.234375 0 2.15625 0.5q0.9375 0.484375 1.53125 1.421875q0.609375 0.9375 0.953125 2.28125q0.34375 1.328125 0.34375 3.59375q0 2.6875 -0.5625 4.34375q-0.546875 1.640625 -1.640625 2.546875q-1.09375 0.90625 -2.78125 0.90625q-2.203125 0 -3.46875 -1.59375q-1.5 -1.90625 -1.5 -6.203125zm1.921875 0q0 3.765625 0.875 5.015625q0.890625 1.234375 2.171875 1.234375q1.296875 0 2.171875 -1.25q0.890625 -1.25 0.890625 -5.0q0 -3.765625 -0.890625 -5.0q-0.875 -1.25 -2.1875 -1.25q-1.296875 0 -2.0625 1.09375q-0.96875 1.40625 -0.96875 5.15625zm9.939819 0q0 -2.703125 0.546875 -4.34375q0.5625 -1.65625 1.65625 -2.546875q1.109375 -0.90625 2.765625 -0.90625q1.234375 0 2.15625 0.5q0.9375 0.484375 1.53125 1.421875q0.609375 0.9375 0.953125 2.28125q0.34375 1.328125 0.34375 3.59375q0 2.6875 -0.5625 4.34375q-0.546875 1.640625 -1.640625 2.546875q-1.09375 0.90625 -2.78125 0.90625q-2.203125 0 -3.46875 -1.59375q-1.5 -1.90625 -1.5 -6.203125zm1.921875 0q0 3.765625 0.875 5.015625q0.890625 1.234375 2.171875 1.234375q1.296875 0 2.171875 -1.25q0.890625 -1.25 0.890625 -5.0q0 -3.765625 -0.890625 -5.0q-0.875 -1.25 -2.1875 -1.25q-1.296875 0 -2.0625 1.09375q-0.96875 1.40625 -0.96875 5.15625zm10.377319 -5.109375q0 -1.203125 0.84375 -2.046875q0.859375 -0.84375 2.046875 -0.84375q1.203125 0 2.046875 0.84375q0.84375 0.84375 0.84375 2.046875q0 1.203125 -0.84375 2.046875q-0.84375 0.84375 -2.046875 0.84375q-1.1875 0 -2.046875 -0.84375q-0.84375 -0.84375 -0.84375 -2.046875zm1.140625 0q0 0.734375 0.515625 1.25q0.515625 0.515625 1.25 0.515625q0.71875 0 1.234375 -0.515625q0.515625 -0.515625 0.515625 -1.25q0 -0.734375 -0.515625 -1.25q-0.515625 -0.515625 -1.234375 -0.515625q-0.734375 0 -1.25 0.515625q-0.515625 0.515625 -0.515625 1.25z" fill-rule="nonzero"/><path fill="#000000" fill-opacity="0.0" d="m476.58282 907.7323l63.653564 0l0 45.259827l-63.653564 0z" fill-rule="evenodd"/><path fill="#ffffff" d="m497.08685 935.4154l0 1.796875l-10.09375 0q-0.015625 -0.671875 0.21875 -1.296875q0.390625 -1.03125 1.234375 -2.03125q0.859375 -1.0 2.453125 -2.3125q2.5 -2.046875 3.375 -3.234375q0.875 -1.203125 0.875 -2.25q0 -1.125 -0.796875 -1.890625q-0.796875 -0.765625 -2.078125 -0.765625q-1.359375 0 -2.171875 0.8125q-0.8125 0.8125 -0.828125 2.25l-1.921875 -0.1875q0.203125 -2.15625 1.484375 -3.28125q1.296875 -1.140625 3.46875 -1.140625q2.203125 0 3.484375 1.21875q1.28125 1.21875 1.28125 3.015625q0 0.921875 -0.375 1.8125q-0.375 0.875 -1.25 1.859375q-0.859375 0.96875 -2.890625 2.6875q-1.6875 1.40625 -2.171875 1.921875q-0.46875 0.5 -0.78125 1.015625l7.484375 0zm2.1429443 -11.46875l0 -1.796875l9.875 0l0 1.453125q-1.453125 1.546875 -2.890625 4.125q-1.421875 2.5625 -2.203125 5.28125q-0.5625 1.921875 -0.71875 4.203125l-1.9375 0q0.03125 -1.796875 0.703125 -4.34375q0.6875 -2.5625 1.953125 -4.921875q1.265625 -2.375 2.6875 -4.0l-7.46875 0zm11.736694 5.734375q0 -2.703125 0.546875 -4.34375q0.5625 -1.65625 1.65625 -2.546875q1.109375 -0.90625 2.765625 -0.90625q1.234375 0 2.15625 0.5q0.9375 0.484375 1.53125 1.421875q0.609375 0.9375 0.953125 2.28125q0.34375 1.328125 0.34375 3.59375q0 2.6875 -0.5625 4.34375q-0.546875 1.640625 -1.640625 2.546875q-1.09375 0.90625 -2.78125 0.90625q-2.203125 0 -3.46875 -1.59375q-1.5 -1.90625 -1.5 -6.203125zm1.921875 0q0 3.765625 0.875 5.015625q0.890625 1.234375 2.171875 1.234375q1.296875 0 2.171875 -1.25q0.890625 -1.25 0.890625 -5.0q0 -3.765625 -0.890625 -5.0q-0.875 -1.25 -2.1875 -1.25q-1.296875 0 -2.0625 1.09375q-0.96875 1.40625 -0.96875 5.15625zm10.377319 -5.109375q0 -1.203125 0.84375 -2.046875q0.859375 -0.84375 2.046875 -0.84375q1.203125 0 2.046875 0.84375q0.84375 0.84375 0.84375 2.046875q0 1.203125 -0.84375 2.046875q-0.84375 0.84375 -2.046875 0.84375q-1.1875 0 -2.046875 -0.84375q-0.84375 -0.84375 -0.84375 -2.046875zm1.140625 0q0 0.734375 0.515625 1.25q0.515625 0.515625 1.25 0.515625q0.71875 0 1.234375 -0.515625q0.515625 -0.515625 0.515625 -1.25q0 -0.734375 -0.515625 -1.25q-0.515625 -0.515625 -1.234375 -0.515625q-0.734375 0 -1.25 0.515625q-0.515625 0.515625 -0.515625 1.25z" fill-rule="nonzero"/><path fill="#000000" fill-opacity="0.0" d="m237.9672 856.2257l66.64566 0l0 45.259827l-66.64566 0z" fill-rule="evenodd"/><path fill="#ffffff" d="m259.9673 883.9089l0 1.796875l-10.093765 0q-0.015625 -0.671875 0.21875 -1.296875q0.390625 -1.03125 1.234375 -2.03125q0.859375 -1.0 2.453125 -2.3125q2.5000153 -2.046875 3.3750153 -3.234375q0.875 -1.203125 0.875 -2.25q0 -1.125 -0.796875 -1.890625q-0.796875 -0.765625 -2.0781403 -0.765625q-1.359375 0 -2.171875 0.8125q-0.8125 0.8125 -0.828125 2.25l-1.921875 -0.1875q0.203125 -2.15625 1.484375 -3.28125q1.296875 -1.140625 3.46875 -1.140625q2.2031403 0 3.4843903 1.21875q1.28125 1.21875 1.28125 3.015625q0 0.921875 -0.375 1.8125q-0.375 0.875 -1.25 1.859375q-0.859375 0.96875 -2.8906403 2.6875q-1.6875 1.40625 -2.171875 1.921875q-0.46875 0.5 -0.78125 1.015625l7.4843903 0zm8.017944 1.796875l0 -3.65625l-6.625 0l0 -1.71875l6.96875 -9.890625l1.53125 0l0 9.890625l2.0625 0l0 1.71875l-2.0625 0l0 3.65625l-1.875 0zm0 -5.375l0 -6.875l-4.78125 6.875l4.78125 0zm5.8616943 -2.15625q0 -2.703125 0.546875 -4.34375q0.5625 -1.65625 1.65625 -2.546875q1.109375 -0.90625 2.765625 -0.90625q1.234375 0 2.15625 0.5q0.9375 0.484375 1.53125 1.421875q0.609375 0.9375 0.953125 2.28125q0.34375 1.328125 0.34375 3.59375q0 2.6875 -0.5625 4.34375q-0.546875 1.640625 -1.640625 2.546875q-1.09375 0.90625 -2.78125 0.90625q-2.203125 0 -3.46875 -1.59375q-1.5 -1.90625 -1.5 -6.203125zm1.921875 0q0 3.765625 0.875 5.015625q0.890625 1.234375 2.171875 1.234375q1.296875 0 2.171875 -1.25q0.890625 -1.25 0.890625 -5.0q0 -3.765625 -0.890625 -5.0q-0.875 -1.25 -2.1875 -1.25q-1.296875 0 -2.0625 1.09375q-0.96875 1.40625 -0.96875 5.15625zm10.377319 -5.109375q0 -1.203125 0.84375 -2.046875q0.859375 -0.84375 2.046875 -0.84375q1.203125 0 2.046875 0.84375q0.84375 0.84375 0.84375 2.046875q0 1.203125 -0.84375 2.046875q-0.84375 0.84375 -2.046875 0.84375q-1.1875 0 -2.046875 -0.84375q-0.84375 -0.84375 -0.84375 -2.046875zm1.140625 0q0 0.734375 0.515625 1.25q0.515625 0.515625 1.25 0.515625q0.71875 0 1.234375 -0.515625q0.515625 -0.515625 0.515625 -1.25q0 -0.734375 -0.515625 -1.25q-0.515625 -0.515625 -1.234375 -0.515625q-0.734375 0 -1.25 0.515625q-0.515625 0.515625 -0.515625 1.25z" fill-rule="nonzero"/><path fill="#000000" fill-opacity="0.0" d="m158.28215 794.68243l66.645676 0l0 45.259827l-66.645676 0z" fill-rule="evenodd"/><path fill="#ffffff" d="m180.28223 822.36554l0 1.796875l-10.09375 0q-0.015625 -0.671875 0.21875 -1.296875q0.390625 -1.03125 1.234375 -2.03125q0.859375 -1.0 2.453125 -2.3125q2.5 -2.046875 3.375 -3.234375q0.875 -1.203125 0.875 -2.25q0 -1.125 -0.796875 -1.890625q-0.796875 -0.765625 -2.078125 -0.765625q-1.359375 0 -2.171875 0.8125q-0.8125 0.8125 -0.828125 2.25l-1.921875 -0.1875q0.203125 -2.15625 1.484375 -3.28125q1.296875 -1.140625 3.46875 -1.140625q2.203125 0 3.484375 1.21875q1.28125 1.21875 1.28125 3.015625q0 0.921875 -0.375 1.8125q-0.375 0.875 -1.25 1.859375q-0.859375 0.96875 -2.890625 2.6875q-1.6875 1.40625 -2.171875 1.921875q-0.46875 0.5 -0.78125 1.015625l7.484375 0zm11.861694 0l0 1.796875l-10.09375 0q-0.015625 -0.671875 0.21875 -1.296875q0.390625 -1.03125 1.234375 -2.03125q0.859375 -1.0 2.453125 -2.3125q2.5 -2.046875 3.375 -3.234375q0.875 -1.203125 0.875 -2.25q0 -1.125 -0.796875 -1.890625q-0.796875 -0.765625 -2.078125 -0.765625q-1.359375 0 -2.171875 0.8125q-0.8125 0.8125 -0.828125 2.25l-1.921875 -0.1875q0.203125 -2.15625 1.484375 -3.28125q1.296875 -1.140625 3.46875 -1.140625q2.203125 0 3.484375 1.21875q1.28125 1.21875 1.28125 3.015625q0 0.921875 -0.375 1.8125q-0.375 0.875 -1.25 1.859375q-0.859375 0.96875 -2.890625 2.6875q-1.6875 1.40625 -2.171875 1.921875q-0.46875 0.5 -0.78125 1.015625l7.484375 0zm2.0179443 -2.203125l1.96875 -0.171875q0.21875 1.4375 1.015625 2.171875q0.796875 0.71875 1.921875 0.71875q1.34375 0 2.28125 -1.015625q0.9375 -1.03125 0.9375 -2.71875q0 -1.59375 -0.90625 -2.515625q-0.890625 -0.9375 -2.34375 -0.9375q-0.90625 0 -1.640625 0.421875q-0.734375 0.40625 -1.140625 1.0625l-1.765625 -0.234375l1.484375 -7.84375l7.59375 0l0 1.796875l-6.09375 0l-0.828125 4.09375q1.375 -0.953125 2.890625 -0.953125q2.0 0 3.359375 1.390625q1.375 1.375 1.375 3.5625q0 2.0625 -1.203125 3.578125q-1.46875 1.859375 -4.0 1.859375q-2.09375 0 -3.40625 -1.171875q-1.3125 -1.171875 -1.5 -3.09375zm12.299194 -8.640625q0 -1.203125 0.84375 -2.046875q0.859375 -0.84375 2.046875 -0.84375q1.203125 0 2.046875 0.84375q0.84375 0.84375 0.84375 2.046875q0 1.203125 -0.84375 2.046875q-0.84375 0.84375 -2.046875 0.84375q-1.1875 0 -2.046875 -0.84375q-0.84375 -0.84375 -0.84375 -2.046875zm1.140625 0q0 0.734375 0.515625 1.25q0.515625 0.515625 1.25 0.515625q0.71875 0 1.234375 -0.515625q0.515625 -0.515625 0.515625 -1.25q0 -0.734375 -0.515625 -1.25q-0.515625 -0.515625 -1.234375 -0.515625q-0.734375 0 -1.25 0.515625q-0.515625 0.515625 -0.515625 1.25z" fill-rule="nonzero"/><path fill="#000000" fill-opacity="0.0" d="m82.58137 711.9475l66.64567 0l0 45.259827l-66.64567 0z" fill-rule="evenodd"/><path fill="#ffffff" d="m104.58144 739.6306l0 1.796875l-10.09375 0q-0.015625 -0.671875 0.21875 -1.296875q0.390625 -1.03125 1.234375 -2.03125q0.859375 -1.0 2.453125 -2.3125q2.5 -2.046875 3.375 -3.234375q0.875 -1.203125 0.875 -2.25q0 -1.125 -0.796875 -1.890625q-0.796875 -0.765625 -2.078125 -0.765625q-1.359375 0 -2.171875 0.8125q-0.8125 0.8125 -0.828125 2.25l-1.921875 -0.1875q0.203125 -2.15625 1.484375 -3.28125q1.296875 -1.140625 3.46875 -1.140625q2.203125 0 3.484375 1.21875q1.28125 1.21875 1.28125 3.015625q0 0.921875 -0.375 1.8125q-0.375 0.875 -1.25 1.859375q-0.859375 0.96875 -2.890625 2.6875q-1.6875 1.40625 -2.171875 1.921875q-0.46875 0.5 -0.78125 1.015625l7.484375 0zm9.080444 1.796875l-1.875 0l0 -11.9375q-0.6875 0.640625 -1.78125 1.28125q-1.09375 0.640625 -1.96875 0.96875l0 -1.8125q1.5625 -0.734375 2.734375 -1.78125q1.1875 -1.0625 1.671875 -2.046875l1.21875 0l0 15.328125zm4.7991943 -7.53125q0 -2.703125 0.546875 -4.34375q0.5625 -1.65625 1.65625 -2.546875q1.109375 -0.90625 2.765625 -0.90625q1.234375 0 2.15625 0.5q0.9375 0.484375 1.53125 1.421875q0.609375 0.9375 0.9531326 2.28125q0.34375 1.328125 0.34375 3.59375q0 2.6875 -0.5625076 4.34375q-0.546875 1.640625 -1.640625 2.546875q-1.09375 0.90625 -2.78125 0.90625q-2.203125 0 -3.46875 -1.59375q-1.5 -1.90625 -1.5 -6.203125zm1.921875 0q0 3.765625 0.875 5.015625q0.890625 1.234375 2.171875 1.234375q1.296875 0 2.171875 -1.25q0.890625 -1.25 0.890625 -5.0q0 -3.765625 -0.890625 -5.0q-0.875 -1.25 -2.1875 -1.25q-1.296875 0 -2.0625 1.09375q-0.96875 1.40625 -0.96875 5.15625zm10.377327 -5.109375q0 -1.203125 0.84375 -2.046875q0.859375 -0.84375 2.046875 -0.84375q1.203125 0 2.046875 0.84375q0.84375 0.84375 0.84375 2.046875q0 1.203125 -0.84375 2.046875q-0.84375 0.84375 -2.046875 0.84375q-1.1875 0 -2.046875 -0.84375q-0.84375 -0.84375 -0.84375 -2.046875zm1.140625 0q0 0.734375 0.515625 1.25q0.515625 0.515625 1.25 0.515625q0.71875 0 1.234375 -0.515625q0.515625 -0.515625 0.515625 -1.25q0 -0.734375 -0.515625 -1.25q-0.515625 -0.515625 -1.234375 -0.515625q-0.734375 0 -1.25 0.515625q-0.515625 0.515625 -0.515625 1.25z" fill-rule="nonzero"/><path fill="#000000" d="m805.0066 715.42255l0 0c0 2.65271 2.1503906 4.8031616 4.8031006 4.8031616l0 0c1.2738647 0 2.4956055 -0.5060425 3.3963623 -1.4067993c0.90075684 -0.90075684 1.4067993 -2.1224365 1.4067993 -3.3963623l0 0c0 -2.65271 -2.1504517 -4.8031006 -4.8031616 -4.8031006l0 0c-2.65271 0 -4.8031006 2.1503906 -4.8031006 4.8031006z" fill-rule="evenodd"/><path stroke="#ffffff" stroke-width="1.0" stroke-linejoin="round" stroke-linecap="butt" d="m805.0066 715.42255l0 0c0 2.65271 2.1503906 4.8031616 4.8031006 4.8031616l0 0c1.2738647 0 2.4956055 -0.5060425 3.3963623 -1.4067993c0.90075684 -0.90075684 1.4067993 -2.1224365 1.4067993 -3.3963623l0 0c0 -2.65271 -2.1504517 -4.8031006 -4.8031616 -4.8031006l0 0c-2.65271 0 -4.8031006 2.1503906 -4.8031006 4.8031006z" fill-rule="evenodd"/><path fill="#000000" d="m744.2349 794.91864l0 0c0 2.65271 2.1504517 4.8031616 4.8031616 4.8031616l0 0c1.2738647 0 2.4955444 -0.5060425 3.3963013 -1.4067993c0.90075684 -0.9008179 1.4067993 -2.1224976 1.4067993 -3.3963623l0 0c0 -2.65271 -2.1504517 -4.8031616 -4.8031006 -4.8031616l0 0c-2.65271 0 -4.8031616 2.1504517 -4.8031616 4.8031616z" fill-rule="evenodd"/><path stroke="#ffffff" stroke-width="1.0" stroke-linejoin="round" stroke-linecap="butt" d="m744.2349 794.91864l0 0c0 2.65271 2.1504517 4.8031616 4.8031616 4.8031616l0 0c1.2738647 0 2.4955444 -0.5060425 3.3963013 -1.4067993c0.90075684 -0.9008179 1.4067993 -2.1224976 1.4067993 -3.3963623l0 0c0 -2.65271 -2.1504517 -4.8031616 -4.8031006 -4.8031616l0 0c-2.65271 0 -4.8031616 2.1504517 -4.8031616 4.8031616z" fill-rule="evenodd"/><path fill="#000000" d="m664.73883 855.6903l0 0c0 2.65271 2.1504517 4.8031006 4.8031616 4.8031006l0 0c1.2738647 0 2.4956055 -0.5060425 3.3963623 -1.4067993c0.90075684 -0.90075684 1.4067993 -2.1224365 1.4067993 -3.3963013l0 0c0 -2.65271 -2.1504517 -4.8031616 -4.8031616 -4.8031616l0 0c-2.65271 0 -4.8031616 2.1504517 -4.8031616 4.8031616z" fill-rule="evenodd"/><path stroke="#ffffff" stroke-width="1.0" stroke-linejoin="round" stroke-linecap="butt" d="m664.73883 855.6903l0 0c0 2.65271 2.1504517 4.8031006 4.8031616 4.8031006l0 0c1.2738647 0 2.4956055 -0.5060425 3.3963623 -1.4067993c0.90075684 -0.90075684 1.4067993 -2.1224365 1.4067993 -3.3963013l0 0c0 -2.65271 -2.1504517 -4.8031616 -4.8031616 -4.8031616l0 0c-2.65271 0 -4.8031616 2.1504517 -4.8031616 4.8031616z" fill-rule="evenodd"/><path fill="#000000" d="m472.31366 906.7664l0 0c0 2.65271 2.1504211 4.8031616 4.803131 4.8031616l0 0c1.2738953 0 2.495575 -0.5060425 3.3963318 -1.4068604c0.90078735 -0.90075684 1.4068298 -2.1224365 1.4068298 -3.3963013l0 0c0 -2.65271 -2.1504517 -4.8031616 -4.8031616 -4.8031616l0 0c-2.65271 0 -4.803131 2.1504517 -4.803131 4.8031616z" fill-rule="evenodd"/><path stroke="#ffffff" stroke-width="1.0" stroke-linejoin="round" stroke-linecap="butt" d="m472.31366 906.7664l0 0c0 2.65271 2.1504211 4.8031616 4.803131 4.8031616l0 0c1.2738953 0 2.495575 -0.5060425 3.3963318 -1.4068604c0.90078735 -0.90075684 1.4068298 -2.1224365 1.4068298 -3.3963013l0 0c0 -2.65271 -2.1504517 -4.8031616 -4.8031616 -4.8031616l0 0c-2.65271 0 -4.803131 2.1504517 -4.803131 4.8031616z" fill-rule="evenodd"/><path fill="#000000" d="m279.88846 855.6903l0 0c0 2.65271 2.1504517 4.8031006 4.803131 4.8031006l0 0c1.2738953 0 2.495575 -0.5060425 3.3963623 -1.4067993c0.90075684 -0.90075684 1.4067993 -2.1224365 1.4067993 -3.3963013l0 0c0 -2.65271 -2.1504517 -4.8031616 -4.8031616 -4.8031616l0 0c-2.6526794 0 -4.803131 2.1504517 -4.803131 4.8031616z" fill-rule="evenodd"/><path stroke="#ffffff" stroke-width="1.0" stroke-linejoin="round" stroke-linecap="butt" d="m279.88846 855.6903l0 0c0 2.65271 2.1504517 4.8031006 4.803131 4.8031006l0 0c1.2738953 0 2.495575 -0.5060425 3.3963623 -1.4067993c0.90075684 -0.90075684 1.4067993 -2.1224365 1.4067993 -3.3963013l0 0c0 -2.65271 -2.1504517 -4.8031616 -4.8031616 -4.8031616l0 0c-2.6526794 0 -4.803131 2.1504517 -4.803131 4.8031616z" fill-rule="evenodd"/><path fill="#000000" d="m200.3924 794.91864l0 0c0 2.65271 2.1504364 4.8031616 4.8031464 4.8031616l0 0c1.2738647 0 2.495575 -0.5060425 3.3963318 -1.4067993c0.9007721 -0.9008179 1.4068146 -2.1224976 1.4068146 -3.3963623l0 0c0 -2.65271 -2.1504364 -4.8031616 -4.8031464 -4.8031616l0 0c-2.65271 0 -4.8031464 2.1504517 -4.8031464 4.8031616z" fill-rule="evenodd"/><path stroke="#ffffff" stroke-width="1.0" stroke-linejoin="round" stroke-linecap="butt" d="m200.3924 794.91864l0 0c0 2.65271 2.1504364 4.8031616 4.8031464 4.8031616l0 0c1.2738647 0 2.495575 -0.5060425 3.3963318 -1.4067993c0.9007721 -0.9008179 1.4068146 -2.1224976 1.4068146 -3.3963623l0 0c0 -2.65271 -2.1504364 -4.8031616 -4.8031464 -4.8031616l0 0c-2.65271 0 -4.8031464 2.1504517 -4.8031464 4.8031616z" fill-rule="evenodd"/><path fill="#000000" d="m139.62073 715.42255l0 0c0 2.65271 2.1504517 4.8031616 4.8031616 4.8031616l0 0c1.2738647 0 2.495575 -0.5060425 3.3963318 -1.4067993c0.9007721 -0.90075684 1.4068146 -2.1224365 1.4068146 -3.3963623l0 0c0 -2.65271 -2.1504517 -4.8031006 -4.8031464 -4.8031006l0 0c-2.65271 0 -4.8031616 2.1503906 -4.8031616 4.8031006z" fill-rule="evenodd"/><path stroke="#ffffff" stroke-width="1.0" stroke-linejoin="round" stroke-linecap="butt" d="m139.62073 715.42255l0 0c0 2.65271 2.1504517 4.8031616 4.8031616 4.8031616l0 0c1.2738647 0 2.495575 -0.5060425 3.3963318 -1.4067993c0.9007721 -0.90075684 1.4068146 -2.1224365 1.4068146 -3.3963623l0 0c0 -2.65271 -2.1504517 -4.8031006 -4.8031464 -4.8031006l0 0c-2.65271 0 -4.8031616 2.1503906 -4.8031616 4.8031006z" fill-rule="evenodd"/></g></svg>