<svg version="1.1" viewBox="0.0 0.0 955.1286089238845 1015.3858267716536" fill="none" stroke="none" stroke-linecap="square" stroke-miterlimit="10" xmlns:xlink="http://www.w3.org/1999/xlink" xmlns="http://www.w3.org/2000/svg"><clipPath id="p.0"><path d="m0 0l955.1286 0l0 1015.3858l-955.1286 0l0 -1015.3858z" clip-rule="nonzero"/></clipPath><g clip-path="url(#p.0)"><path fill="#000000" fill-opacity="0.0" d="m0 0l955.1286 0l0 1015.3858l-955.1286 0z" fill-rule="evenodd"/><path fill="#000000" fill-opacity="0.0" d="m93.11714 523.6267l0 0c0.28364563 211.9768 172.27959 383.62787 384.2566 383.48608c211.97699 -0.1418457 383.7431 -172.02289 383.7431 -383.99994l-384.00003 0z" fill-rule="evenodd"/><path fill="#000000" fill-opacity="0.0" d="m93.11714 523.6267l0 0c0.28364563 211.9768 172.27959 383.62787 384.2566 383.48608c211.97699 -0.1418457 383.7431 -172.02289 383.7431 -383.99994" fill-rule="evenodd"/><path stroke="#ffffff" stroke-width="8.0" stroke-linejoin="round" stroke-linecap="butt" d="m93.11714 523.6267l0 0c0.28364563 211.9768 172.27959 383.62787 384.2566 383.48608c211.97699 -0.1418457 383.7431 -172.02289 383.7431 -383.99994" fill-rule="evenodd"/><path fill="#000000" fill-opacity="0.0" d="m93.32187 522.59906l0 0c0.283638 -211.97687 172.2796 -383.62793 384.25656 -383.4861c211.97699 0.14183044 383.7431 172.02289 383.7431 383.9999l-384.0 0z" fill-rule="evenodd"/><path fill="#000000" fill-opacity="0.0" d="m93.32187 522.59906l0 0c0.283638 -211.97687 172.2796 -383.62793 384.25656 -383.4861c211.97699 0.14183044 383.7431 172.02289 383.7431 383.9999" fill-rule="evenodd"/><path stroke="#ffffff" stroke-width="8.0" stroke-linejoin="round" stroke-linecap="butt" d="m93.32187 522.59906l0 0c0.283638 -211.97687 172.2796 -383.62793 384.25656 -383.4861c211.97699 0.14183044 383.7431 172.02289 383.7431 383.9999" fill-rule="evenodd"/><path fill="#000000" fill-opacity="0.0" d="m477.32153 38.39895l0 510.01572" fill-rule="evenodd"/><path stroke="#ffffff" stroke-width="3.0" stroke-linejoin="round" stroke-linecap="butt" d="m477.32153 38.39895l0 510.01572" fill-rule="evenodd"/><path fill="#000000" fill-opacity="0.0" d="m939.3373 523.7454l-924.0315 0.06298828" fill-rule="evenodd"/><path stroke="#ffffff" stroke-width="3.0" stroke-linejoin="round" stroke-linecap="butt" d="m939.3373 523.7454l-924.0315 0.06298828" fill-rule="evenodd"/><path fill="#000000" fill-opacity="0.0" d="m477.32153 523.11285l332.15747 -192.0" fill-rule="evenodd"/><path stroke="#ffffff" stroke-width="2.0" stroke-linejoin="round" stroke-linecap="butt" d="m477.32153 523.11285l332.15747 -192.0" fill-rule="evenodd"/><path fill="#000000" fill-opacity="0.0" d="m145.16405 331.11285l332.15747 192.0" fill-rule="evenodd"/><path stroke="#ffffff" stroke-width="2.0" stroke-linejoin="round" stroke-linecap="butt" d="m145.16405 331.11285l332.15747 192.0" fill-rule="evenodd"/><path fill="#000000" fill-opacity="0.0" d="m285.32153 190.53543l192.0 332.1575" fill-rule="evenodd"/><path stroke="#ffffff" stroke-width="2.0" stroke-linejoin="round" stroke-linecap="butt" d="m285.32153 190.53543l192.0 332.1575" fill-rule="evenodd"/><path fill="#000000" fill-opacity="0.0" d="m477.32153 522.69293l192.0 -332.1575" fill-rule="evenodd"/><path stroke="#ffffff" stroke-width="2.0" stroke-linejoin="round" stroke-linecap="butt" d="m477.32153 522.69293l192.0 -332.1575" fill-rule="evenodd"/><path fill="#000000" fill-opacity="0.0" d="m477.32153 522.69293l271.68506 -271.68506" fill-rule="evenodd"/><path stroke="#ffffff" stroke-width="2.0" stroke-linejoin="round" stroke-linecap="butt" d="m477.32153 522.69293l271.68506 -271.68506" fill-rule="evenodd"/><path fill="#000000" fill-opacity="0.0" d="m477.32153 522.69293l-271.68506 -271.68506" fill-rule="evenodd"/><path stroke="#ffffff" stroke-width="2.0" stroke-linejoin="round" stroke-linecap="butt" d="m477.32153 522.69293l-271.68506 -271.68506" fill-rule="evenodd"/><path fill="#000000" d="m805.2113 330.80316l0 0c0 -2.65271 2.1504517 -4.8031616 4.8031616 -4.8031616l0 0c1.2738647 0 2.4955444 0.5060425 3.3963013 1.4067993c0.90075684 0.90078735 1.4067993 2.122467 1.4067993 3.3963623l0 0c0 2.6526794 -2.1504517 4.803131 -4.8031006 4.803131l0 0c-2.65271 0 -4.8031616 -2.1504517 -4.8031616 -4.803131z" fill-rule="evenodd"/><path stroke="#ffffff" stroke-width="1.0" stroke-linejoin="round" stroke-linecap="butt" d="m805.2113 330.80316l0 0c0 -2.65271 2.1504517 -4.8031616 4.8031616 -4.8031616l0 0c1.2738647 0 2.4955444 0.5060425 3.3963013 1.4067993c0.90075684 0.90078735 1.4067993 2.122467 1.4067993 3.3963623l0 0c0 2.6526794 -2.1504517 4.803131 -4.8031006 4.803131l0 0c-2.65271 0 -4.8031616 -2.1504517 -4.8031616 -4.803131z" fill-rule="evenodd"/><path fill="#000000" d="m744.43964 251.30708l0 0c0 -2.65271 2.1504517 -4.8031464 4.8031616 -4.8031464l0 0c1.2738647 0 2.4955444 0.5060425 3.3963013 1.4068146c0.9008179 0.90075684 1.4068604 2.122467 1.4068604 3.3963318l0 0c0 2.65271 -2.1504517 4.8031464 -4.8031616 4.8031464l0 0c-2.65271 0 -4.8031616 -2.1504364 -4.8031616 -4.8031464z" fill-rule="evenodd"/><path stroke="#ffffff" stroke-width="1.0" stroke-linejoin="round" stroke-linecap="butt" d="m744.43964 251.30708l0 0c0 -2.65271 2.1504517 -4.8031464 4.8031616 -4.8031464l0 0c1.2738647 0 2.4955444 0.5060425 3.3963013 1.4068146c0.9008179 0.90075684 1.4068604 2.122467 1.4068604 3.3963318l0 0c0 2.65271 -2.1504517 4.8031464 -4.8031616 4.8031464l0 0c-2.65271 0 -4.8031616 -2.1504364 -4.8031616 -4.8031464z" fill-rule="evenodd"/><path fill="#000000" d="m664.94354 190.53543l0 0c0 -2.65271 2.1504517 -4.8031464 4.8031616 -4.8031464l0 0c1.2738647 0 2.4956055 0.5060425 3.3963623 1.4068146c0.90075684 0.90075684 1.4067993 2.122467 1.4067993 3.3963318l0 0c0 2.65271 -2.1504517 4.8031464 -4.8031616 4.8031464l0 0c-2.65271 0 -4.8031616 -2.1504364 -4.8031616 -4.8031464z" fill-rule="evenodd"/><path stroke="#ffffff" stroke-width="1.0" stroke-linejoin="round" stroke-linecap="butt" d="m664.94354 190.53543l0 0c0 -2.65271 2.1504517 -4.8031464 4.8031616 -4.8031464l0 0c1.2738647 0 2.4956055 0.5060425 3.3963623 1.4068146c0.90075684 0.90075684 1.4067993 2.122467 1.4067993 3.3963318l0 0c0 2.65271 -2.1504517 4.8031464 -4.8031616 4.8031464l0 0c-2.65271 0 -4.8031616 -2.1504364 -4.8031616 -4.8031464z" fill-rule="evenodd"/><path fill="#000000" d="m472.51837 139.45932l0 0c0 -2.65271 2.1504517 -4.8031464 4.8031616 -4.8031464l0 0c1.2738647 0 2.495575 0.5060425 3.3963318 1.4067993c0.90075684 0.9007721 1.4067993 2.122467 1.4067993 3.396347l0 0c0 2.65271 -2.1504211 4.8031464 -4.803131 4.8031464l0 0c-2.65271 0 -4.8031616 -2.1504364 -4.8031616 -4.8031464z" fill-rule="evenodd"/><path stroke="#ffffff" stroke-width="1.0" stroke-linejoin="round" stroke-linecap="butt" d="m472.51837 139.45932l0 0c0 -2.65271 2.1504517 -4.8031464 4.8031616 -4.8031464l0 0c1.2738647 0 2.495575 0.5060425 3.3963318 1.4067993c0.90075684 0.9007721 1.4067993 2.122467 1.4067993 3.396347l0 0c0 2.65271 -2.1504211 4.8031464 -4.803131 4.8031464l0 0c-2.65271 0 -4.8031616 -2.1504364 -4.8031616 -4.8031464z" fill-rule="evenodd"/><path fill="#000000" d="m280.09317 190.53543l0 0c0 -2.65271 2.1504517 -4.8031464 4.8031616 -4.8031464l0 0c1.2738647 0 2.495575 0.5060425 3.3963318 1.4068146c0.90075684 0.90075684 1.4067993 2.122467 1.4067993 3.3963318l0 0c0 2.65271 -2.1504211 4.8031464 -4.803131 4.8031464l0 0c-2.65271 0 -4.8031616 -2.1504364 -4.8031616 -4.8031464z" fill-rule="evenodd"/><path stroke="#ffffff" stroke-width="1.0" stroke-linejoin="round" stroke-linecap="butt" d="m280.09317 190.53543l0 0c0 -2.65271 2.1504517 -4.8031464 4.8031616 -4.8031464l0 0c1.2738647 0 2.495575 0.5060425 3.3963318 1.4068146c0.90075684 0.90075684 1.4067993 2.122467 1.4067993 3.3963318l0 0c0 2.65271 -2.1504211 4.8031464 -4.803131 4.8031464l0 0c-2.65271 0 -4.8031616 -2.1504364 -4.8031616 -4.8031464z" fill-rule="evenodd"/><path fill="#000000" d="m200.5971 251.30708l0 0c0 -2.65271 2.1504517 -4.8031464 4.8031616 -4.8031464l0 0c1.2738647 0 2.495575 0.5060425 3.3963318 1.4068146c0.9007721 0.90075684 1.4068146 2.122467 1.4068146 3.3963318l0 0c0 2.65271 -2.1504517 4.8031464 -4.8031464 4.8031464l0 0c-2.65271 0 -4.8031616 -2.1504364 -4.8031616 -4.8031464z" fill-rule="evenodd"/><path stroke="#ffffff" stroke-width="1.0" stroke-linejoin="round" stroke-linecap="butt" d="m200.5971 251.30708l0 0c0 -2.65271 2.1504517 -4.8031464 4.8031616 -4.8031464l0 0c1.2738647 0 2.495575 0.5060425 3.3963318 1.4068146c0.9007721 0.90075684 1.4068146 2.122467 1.4068146 3.3963318l0 0c0 2.65271 -2.1504517 4.8031464 -4.8031464 4.8031464l0 0c-2.65271 0 -4.8031616 -2.1504364 -4.8031616 -4.8031464z" fill-rule="evenodd"/><path fill="#000000" d="m139.82545 330.80316l0 0c0 -2.65271 2.1504517 -4.8031616 4.8031616 -4.8031616l0 0c1.2738647 0 2.4955597 0.5060425 3.3963318 1.4067993c0.9007721 0.90078735 1.4068146 2.122467 1.4068146 3.3963623l0 0c0 2.6526794 -2.1504517 4.803131 -4.8031464 4.803131l0 0c-2.65271 0 -4.8031616 -2.1504517 -4.8031616 -4.803131z" fill-rule="evenodd"/><path stroke="#ffffff" stroke-width="1.0" stroke-linejoin="round" stroke-linecap="butt" d="m139.82545 330.80316l0 0c0 -2.65271 2.1504517 -4.8031616 4.8031616 -4.8031616l0 0c1.2738647 0 2.4955597 0.5060425 3.3963318 1.4067993c0.9007721 0.90078735 1.4068146 2.122467 1.4068146 3.3963623l0 0c0 2.6526794 -2.1504517 4.803131 -4.8031464 4.803131l0 0c-2.65271 0 -4.8031616 -2.1504517 -4.8031616 -4.803131z" fill-rule="evenodd"/><path fill="#000000" d="m856.6575 523.11285l0 0c0 -2.65271 2.1504517 -4.8031616 4.8031616 -4.8031616l0 0c1.2738647 0 2.4955444 0.5060425 3.3963623 1.4067993c0.90075684 0.9008179 1.4067993 2.1224976 1.4067993 3.3963623l0 0c0 2.65271 -2.1504517 4.8031616 -4.8031616 4.8031616l0 0c-2.65271 0 -4.8031616 -2.1504517 -4.8031616 -4.8031616z" fill-rule="evenodd"/><path stroke="#ffffff" stroke-width="1.0" stroke-linejoin="round" stroke-linecap="butt" d="m856.6575 523.11285l0 0c0 -2.65271 2.1504517 -4.8031616 4.8031616 -4.8031616l0 0c1.2738647 0 2.4955444 0.5060425 3.3963623 1.4067993c0.90075684 0.9008179 1.4067993 2.1224976 1.4067993 3.3963623l0 0c0 2.65271 -2.1504517 4.8031616 -4.8031616 4.8031616l0 0c-2.65271 0 -4.8031616 -2.1504517 -4.8031616 -4.8031616z" fill-rule="evenodd"/><path fill="#000000" d="m88.379265 523.4278l0 0c0 -2.65271 2.150444 -4.8031006 4.8031464 -4.8031006l0 0c1.27388 0 2.495575 0.5060425 3.3963394 1.4067993c0.9007721 0.90075684 1.4068146 2.1224365 1.4068146 3.3963013l0 0c0 2.65271 -2.150444 4.8031616 -4.803154 4.8031616l0 0c-2.6527023 0 -4.8031464 -2.1504517 -4.8031464 -4.8031616z" fill-rule="evenodd"/><path stroke="#ffffff" stroke-width="1.0" stroke-linejoin="round" stroke-linecap="butt" d="m88.379265 523.4278l0 0c0 -2.65271 2.150444 -4.8031006 4.8031464 -4.8031006l0 0c1.27388 0 2.495575 0.5060425 3.3963394 1.4067993c0.9007721 0.90075684 1.4068146 2.1224365 1.4068146 3.3963013l0 0c0 2.65271 -2.150444 4.8031616 -4.803154 4.8031616l0 0c-2.6527023 0 -4.8031464 -2.1504517 -4.8031464 -4.8031616z" fill-rule="evenodd"/><path fill="#000000" fill-opacity="0.0" d="m477.1168 1007.8268l0 -510.01575" fill-rule="evenodd"/><path stroke="#ffffff" stroke-width="3.0" stroke-linejoin="round" stroke-linecap="butt" d="m477.1168 1007.8268l0 -510.01575" fill-rule="evenodd"/><path fill="#000000" fill-opacity="0.0" d="m477.1168 523.11285l332.1575 192.0" fill-rule="evenodd"/><path stroke="#ffffff" stroke-width="2.0" stroke-linejoin="round" stroke-linecap="butt" d="m477.1168 523.11285l332.1575 192.0" fill-rule="evenodd"/><path fill="#000000" fill-opacity="0.0" d="m144.95932 715.11285l332.15747 -192.0" fill-rule="evenodd"/><path stroke="#ffffff" stroke-width="2.0" stroke-linejoin="round" stroke-linecap="butt" d="m144.95932 715.11285l332.15747 -192.0" fill-rule="evenodd"/><path fill="#000000" fill-opacity="0.0" d="m285.1168 855.6903l192.0 -332.15747" fill-rule="evenodd"/><path stroke="#ffffff" stroke-width="2.0" stroke-linejoin="round" stroke-linecap="butt" d="m285.1168 855.6903l192.0 -332.15747" fill-rule="evenodd"/><path fill="#000000" fill-opacity="0.0" d="m477.1168 523.53284l192.00003 332.15747" fill-rule="evenodd"/><path stroke="#ffffff" stroke-width="2.0" stroke-linejoin="round" stroke-linecap="butt" d="m477.1168 523.53284l192.00003 332.15747" fill-rule="evenodd"/><path fill="#000000" fill-opacity="0.0" d="m477.1168 523.53284l271.68503 271.685" fill-rule="evenodd"/><path stroke="#ffffff" stroke-width="2.0" stroke-linejoin="round" stroke-linecap="butt" d="m477.1168 523.53284l271.68503 271.685" fill-rule="evenodd"/><path fill="#000000" fill-opacity="0.0" d="m477.1168 523.53284l-271.68503 271.685" fill-rule="evenodd"/><path stroke="#ffffff" stroke-width="2.0" stroke-linejoin="round" stroke-linecap="butt" d="m477.1168 523.53284l-271.68503 271.685" fill-rule="evenodd"/><path fill="#000000" d="m805.0066 715.42255l0 0c0 2.65271 2.1503906 4.8031616 4.8031006 4.8031616l0 0c1.2738647 0 2.4956055 -0.5060425 3.3963623 -1.4067993c0.90075684 -0.90075684 1.4067993 -2.1224365 1.4067993 -3.3963623l0 0c0 -2.65271 -2.1504517 -4.8031006 -4.8031616 -4.8031006l0 0c-2.65271 0 -4.8031006 2.1503906 -4.8031006 4.8031006z" fill-rule="evenodd"/><path stroke="#ffffff" stroke-width="1.0" stroke-linejoin="round" stroke-linecap="butt" d="m805.0066 715.42255l0 0c0 2.65271 2.1503906 4.8031616 4.8031006 4.8031616l0 0c1.2738647 0 2.4956055 -0.5060425 3.3963623 -1.4067993c0.90075684 -0.90075684 1.4067993 -2.1224365 1.4067993 -3.3963623l0 0c0 -2.65271 -2.1504517 -4.8031006 -4.8031616 -4.8031006l0 0c-2.65271 0 -4.8031006 2.1503906 -4.8031006 4.8031006z" fill-rule="evenodd"/><path fill="#000000" d="m744.2349 794.91864l0 0c0 2.65271 2.1504517 4.8031616 4.8031616 4.8031616l0 0c1.2738647 0 2.4955444 -0.5060425 3.3963013 -1.4067993c0.90075684 -0.9008179 1.4067993 -2.1224976 1.4067993 -3.3963623l0 0c0 -2.65271 -2.1504517 -4.8031616 -4.8031006 -4.8031616l0 0c-2.65271 0 -4.8031616 2.1504517 -4.8031616 4.8031616z" fill-rule="evenodd"/><path stroke="#ffffff" stroke-width="1.0" stroke-linejoin="round" stroke-linecap="butt" d="m744.2349 794.91864l0 0c0 2.65271 2.1504517 4.8031616 4.8031616 4.8031616l0 0c1.2738647 0 2.4955444 -0.5060425 3.3963013 -1.4067993c0.90075684 -0.9008179 1.4067993 -2.1224976 1.4067993 -3.3963623l0 0c0 -2.65271 -2.1504517 -4.8031616 -4.8031006 -4.8031616l0 0c-2.65271 0 -4.8031616 2.1504517 -4.8031616 4.8031616z" fill-rule="evenodd"/><path fill="#000000" d="m664.73883 855.6903l0 0c0 2.65271 2.1504517 4.8031006 4.8031616 4.8031006l0 0c1.2738647 0 2.4956055 -0.5060425 3.3963623 -1.4067993c0.90075684 -0.90075684 1.4067993 -2.1224365 1.4067993 -3.3963013l0 0c0 -2.65271 -2.1504517 -4.8031616 -4.8031616 -4.8031616l0 0c-2.65271 0 -4.8031616 2.1504517 -4.8031616 4.8031616z" fill-rule="evenodd"/><path stroke="#ffffff" stroke-width="1.0" stroke-linejoin="round" stroke-linecap="butt" d="m664.73883 855.6903l0 0c0 2.65271 2.1504517 4.8031006 4.8031616 4.8031006l0 0c1.2738647 0 2.4956055 -0.5060425 3.3963623 -1.4067993c0.90075684 -0.90075684 1.4067993 -2.1224365 1.4067993 -3.3963013l0 0c0 -2.65271 -2.1504517 -4.8031616 -4.8031616 -4.8031616l0 0c-2.65271 0 -4.8031616 2.1504517 -4.8031616 4.8031616z" fill-rule="evenodd"/><path fill="#000000" d="m472.31366 906.7664l0 0c0 2.65271 2.1504211 4.8031616 4.803131 4.8031616l0 0c1.2738953 0 2.495575 -0.5060425 3.3963318 -1.4068604c0.90078735 -0.90075684 1.4068298 -2.1224365 1.4068298 -3.3963013l0 0c0 -2.65271 -2.1504517 -4.8031616 -4.8031616 -4.8031616l0 0c-2.65271 0 -4.803131 2.1504517 -4.803131 4.8031616z" fill-rule="evenodd"/><path stroke="#ffffff" stroke-width="1.0" stroke-linejoin="round" stroke-linecap="butt" d="m472.31366 906.7664l0 0c0 2.65271 2.1504211 4.8031616 4.803131 4.8031616l0 0c1.2738953 0 2.495575 -0.5060425 3.3963318 -1.4068604c0.90078735 -0.90075684 1.4068298 -2.1224365 1.4068298 -3.3963013l0 0c0 -2.65271 -2.1504517 -4.8031616 -4.8031616 -4.8031616l0 0c-2.65271 0 -4.803131 2.1504517 -4.803131 4.8031616z" fill-rule="evenodd"/><path fill="#000000" d="m279.88846 855.6903l0 0c0 2.65271 2.1504517 4.8031006 4.803131 4.8031006l0 0c1.2738953 0 2.495575 -0.5060425 3.3963623 -1.4067993c0.90075684 -0.90075684 1.4067993 -2.1224365 1.4067993 -3.3963013l0 0c0 -2.65271 -2.1504517 -4.8031616 -4.8031616 -4.8031616l0 0c-2.6526794 0 -4.803131 2.1504517 -4.803131 4.8031616z" fill-rule="evenodd"/><path stroke="#ffffff" stroke-width="1.0" stroke-linejoin="round" stroke-linecap="butt" d="m279.88846 855.6903l0 0c0 2.65271 2.1504517 4.8031006 4.803131 4.8031006l0 0c1.2738953 0 2.495575 -0.5060425 3.3963623 -1.4067993c0.90075684 -0.90075684 1.4067993 -2.1224365 1.4067993 -3.3963013l0 0c0 -2.65271 -2.1504517 -4.8031616 -4.8031616 -4.8031616l0 0c-2.6526794 0 -4.803131 2.1504517 -4.803131 4.8031616z" fill-rule="evenodd"/><path fill="#000000" d="m200.3924 794.91864l0 0c0 2.65271 2.1504364 4.8031616 4.8031464 4.8031616l0 0c1.2738647 0 2.495575 -0.5060425 3.3963318 -1.4067993c0.9007721 -0.9008179 1.4068146 -2.1224976 1.4068146 -3.3963623l0 0c0 -2.65271 -2.1504364 -4.8031616 -4.8031464 -4.8031616l0 0c-2.65271 0 -4.8031464 2.1504517 -4.8031464 4.8031616z" fill-rule="evenodd"/><path stroke="#ffffff" stroke-width="1.0" stroke-linejoin="round" stroke-linecap="butt" d="m200.3924 794.91864l0 0c0 2.65271 2.1504364 4.8031616 4.8031464 4.8031616l0 0c1.2738647 0 2.495575 -0.5060425 3.3963318 -1.4067993c0.9007721 -0.9008179 1.4068146 -2.1224976 1.4068146 -3.3963623l0 0c0 -2.65271 -2.1504364 -4.8031616 -4.8031464 -4.8031616l0 0c-2.65271 0 -4.8031464 2.1504517 -4.8031464 4.8031616z" fill-rule="evenodd"/><path fill="#000000" d="m139.62073 715.42255l0 0c0 2.65271 2.1504517 4.8031616 4.8031616 4.8031616l0 0c1.2738647 0 2.495575 -0.5060425 3.3963318 -1.4067993c0.9007721 -0.90075684 1.4068146 -2.1224365 1.4068146 -3.3963623l0 0c0 -2.65271 -2.1504517 -4.8031006 -4.8031464 -4.8031006l0 0c-2.65271 0 -4.8031616 2.1503906 -4.8031616 4.8031006z" fill-rule="evenodd"/><path stroke="#ffffff" stroke-width="1.0" stroke-linejoin="round" stroke-linecap="butt" d="m139.62073 715.42255l0 0c0 2.65271 2.1504517 4.8031616 4.8031616 4.8031616l0 0c1.2738647 0 2.495575 -0.5060425 3.3963318 -1.4067993c0.9007721 -0.90075684 1.4068146 -2.1224365 1.4068146 -3.3963623l0 0c0 -2.65271 -2.1504517 -4.8031006 -4.8031464 -4.8031006l0 0c-2.65271 0 -4.8031616 2.1503906 -4.8031616 4.8031006z" fill-rule="evenodd"/></g></svg>