<svg version="1.1" viewBox="0.0 0.0 960.0 720.0" fill="none" stroke="none" stroke-linecap="square" stroke-miterlimit="10" xmlns:xlink="http://www.w3.org/1999/xlink" xmlns="http://www.w3.org/2000/svg"><clipPath id="p.0"><path d="m0 0l960.0 0l0 720.0l-960.0 0l0 -720.0z" clip-rule="nonzero"/></clipPath><g clip-path="url(#p.0)"><path fill="#000000" d="m0 0l960.0 0l0 720.0l-960.0 0z" fill-rule="evenodd"/><path fill="#000000" fill-opacity="0.0" d="m96.00034 525.98486l0 0c0.28364563 -211.97684 172.2796 -383.62793 384.2566 -383.48608c211.97696 0.14181519 383.74307 172.02289 383.74307 383.99988l-384.0 0z" fill-rule="evenodd"/><path fill="#000000" fill-opacity="0.0" d="m96.00034 525.98486l0 0c0.28364563 -211.97684 172.2796 -383.62793 384.2566 -383.48608c211.97696 0.14181519 383.74307 172.02289 383.74307 383.99988" fill-rule="evenodd"/><path stroke="#ffffff" stroke-width="8.0" stroke-linejoin="round" stroke-linecap="butt" d="m96.00034 525.98486l0 0c0.28364563 -211.97684 172.2796 -383.62793 384.2566 -383.48608c211.97696 0.14181519 383.74307 172.02289 383.74307 383.99988" fill-rule="evenodd"/><path fill="#000000" fill-opacity="0.0" d="m480.0 41.78478l0 510.01575" fill-rule="evenodd"/><path stroke="#ffffff" stroke-width="3.0" stroke-linejoin="round" stroke-linecap="butt" d="m480.0 41.78478l0 510.01575" fill-rule="evenodd"/><path fill="#000000" fill-opacity="0.0" d="m938.3727 527.1312l-924.0315 0.06298828" fill-rule="evenodd"/><path stroke="#ffffff" stroke-width="3.0" stroke-linejoin="round" stroke-linecap="butt" d="m938.3727 527.1312l-924.0315 0.06298828" fill-rule="evenodd"/><path fill="#000000" fill-opacity="0.0" d="m480.0 526.49866l332.15747 -191.99997" fill-rule="evenodd"/><path stroke="#ffffff" stroke-width="2.0" stroke-linejoin="round" stroke-linecap="butt" d="m480.0 526.49866l332.15747 -191.99997" fill-rule="evenodd"/><path fill="#000000" fill-opacity="0.0" d="m147.84251 334.4987l332.15747 191.99997" fill-rule="evenodd"/><path stroke="#ffffff" stroke-width="2.0" stroke-linejoin="round" stroke-linecap="butt" d="m147.84251 334.4987l332.15747 191.99997" fill-rule="evenodd"/><path fill="#000000" fill-opacity="0.0" d="m288.0 193.92126l192.0 332.15747" fill-rule="evenodd"/><path stroke="#ffffff" stroke-width="2.0" stroke-linejoin="round" stroke-linecap="butt" d="m288.0 193.92126l192.0 332.15747" fill-rule="evenodd"/><path fill="#000000" fill-opacity="0.0" d="m480.0 526.07874l192.0 -332.15747" fill-rule="evenodd"/><path stroke="#ffffff" stroke-width="2.0" stroke-linejoin="round" stroke-linecap="butt" d="m480.0 526.07874l192.0 -332.15747" fill-rule="evenodd"/><path fill="#000000" fill-opacity="0.0" d="m480.0 526.07874l271.68506 -271.68503" fill-rule="evenodd"/><path stroke="#ffffff" stroke-width="2.0" stroke-linejoin="round" stroke-linecap="butt" d="m480.0 526.07874l271.68506 -271.68503" fill-rule="evenodd"/><path fill="#000000" fill-opacity="0.0" d="m480.0 526.07874l-271.68506 -271.68503" fill-rule="evenodd"/><path stroke="#ffffff" stroke-width="2.0" stroke-linejoin="round" stroke-linecap="butt" d="m480.0 526.07874l-271.68506 -271.68503" fill-rule="evenodd"/><path fill="#000000" fill-opacity="0.0" d="m672.0 193.92126l0.85040283 333.22833" fill-rule="evenodd"/><path stroke="#ffffff" stroke-width="1.0" stroke-linejoin="round" stroke-linecap="butt" stroke-dasharray="1.0,3.0" d="m672.0 193.92126l0.85040283 333.22833" fill-rule="evenodd"/><path fill="#000000" fill-opacity="0.0" d="m751.68506 254.3937l0.4724121 272.7559" fill-rule="evenodd"/><path stroke="#ffffff" stroke-width="1.0" stroke-linejoin="round" stroke-linecap="butt" stroke-dasharray="1.0,3.0" d="m751.68506 254.3937l0.4724121 272.7559" fill-rule="evenodd"/><path fill="#000000" fill-opacity="0.0" d="m812.1575 334.4987l1.0708618 192.62991" fill-rule="evenodd"/><path stroke="#ffffff" stroke-width="1.0" stroke-linejoin="round" stroke-linecap="butt" stroke-dasharray="1.0,3.0" d="m812.1575 334.4987l1.0708618 192.62991" fill-rule="evenodd"/><path fill="#000000" fill-opacity="0.0" d="m288.0 193.38583l-0.85040283 333.22836" fill-rule="evenodd"/><path stroke="#ffffff" stroke-width="1.0" stroke-linejoin="round" stroke-linecap="butt" stroke-dasharray="1.0,3.0" d="m288.0 193.38583l-0.85040283 333.22836" fill-rule="evenodd"/><path fill="#000000" fill-opacity="0.0" d="m208.31496 253.85826l-0.47244263 272.75592" fill-rule="evenodd"/><path stroke="#ffffff" stroke-width="1.0" stroke-linejoin="round" stroke-linecap="butt" stroke-dasharray="1.0,3.0" d="m208.31496 253.85826l-0.47244263 272.75592" fill-rule="evenodd"/><path fill="#000000" fill-opacity="0.0" d="m147.84251 333.96326l-1.0708618 192.62994" fill-rule="evenodd"/><path stroke="#ffffff" stroke-width="1.0" stroke-linejoin="round" stroke-linecap="butt" stroke-dasharray="1.0,3.0" d="m147.84251 333.96326l-1.0708618 192.62994" fill-rule="evenodd"/><path fill="#000000" fill-opacity="0.0" d="m812.69293 334.61417l-333.22836 -0.8503723" fill-rule="evenodd"/><path stroke="#ffffff" stroke-width="1.0" stroke-linejoin="round" stroke-linecap="butt" stroke-dasharray="1.0,3.0" d="m812.69293 334.61417l-333.22836 -0.8503723" fill-rule="evenodd"/><path fill="#000000" fill-opacity="0.0" d="m752.22046 254.92914l-272.7559 -0.47244263" fill-rule="evenodd"/><path stroke="#ffffff" stroke-width="1.0" stroke-linejoin="round" stroke-linecap="butt" stroke-dasharray="1.0,3.0" d="m752.22046 254.92914l-272.7559 -0.47244263" fill-rule="evenodd"/><path fill="#000000" fill-opacity="0.0" d="m672.1155 194.4567l-192.62991 -1.0708618" fill-rule="evenodd"/><path stroke="#ffffff" stroke-width="1.0" stroke-linejoin="round" stroke-linecap="butt" stroke-dasharray="1.0,3.0" d="m672.1155 194.4567l-192.62991 -1.0708618" fill-rule="evenodd"/><path fill="#000000" fill-opacity="0.0" d="m146.77165 334.61417l333.22833 -0.8503723" fill-rule="evenodd"/><path stroke="#ffffff" stroke-width="1.0" stroke-linejoin="round" stroke-linecap="butt" stroke-dasharray="1.0,3.0" d="m146.77165 334.61417l333.22833 -0.8503723" fill-rule="evenodd"/><path fill="#000000" fill-opacity="0.0" d="m207.2441 254.92914l272.75592 -0.47244263" fill-rule="evenodd"/><path stroke="#ffffff" stroke-width="1.0" stroke-linejoin="round" stroke-linecap="butt" stroke-dasharray="1.0,3.0" d="m207.2441 254.92914l272.75592 -0.47244263" fill-rule="evenodd"/><path fill="#000000" fill-opacity="0.0" d="m287.3491 194.4567l192.62991 -1.0708618" fill-rule="evenodd"/><path stroke="#ffffff" stroke-width="1.0" stroke-linejoin="round" stroke-linecap="butt" stroke-dasharray="1.0,3.0" d="m287.3491 194.4567l192.62991 -1.0708618" fill-rule="evenodd"/><path fill="#000000" fill-opacity="0.0" d="m864.8504 481.88977l47.149597 0l0 45.259827l-47.149597 0z" fill-rule="evenodd"/><path fill="#ffffff" d="m879.12036 503.8385q0 -2.703125 0.546875 -4.34375q0.5625 -1.65625 1.65625 -2.546875q1.109375 -0.90625 2.765625 -0.90625q1.234375 0 2.15625 0.5q0.9375 0.484375 1.53125 1.421875q0.609375 0.9375 0.953125 2.28125q0.34375 1.328125 0.34375 3.59375q0 2.6875 -0.5625 4.34375q-0.546875 1.640625 -1.640625 2.546875q-1.09375 0.90625 -2.78125 0.90625q-2.203125 0 -3.46875 -1.59375q-1.5 -1.90625 -1.5 -6.203125zm1.921875 0q0 3.765625 0.875 5.015625q0.890625 1.234375 2.171875 1.234375q1.296875 0 2.171875 -1.25q0.890625 -1.25 0.890625 -5.0q0 -3.765625 -0.890625 -5.0q-0.875 -1.25 -2.1875 -1.25q-1.296875 0 -2.0625 1.09375q-0.96875 1.40625 -0.96875 5.15625zm10.377319 -5.109375q0 -1.203125 0.84375 -2.046875q0.859375 -0.84375 2.046875 -0.84375q1.203125 0 2.046875 0.84375q0.84375 0.84375 0.84375 2.046875q0 1.203125 -0.84375 2.046875q-0.84375 0.84375 -2.046875 0.84375q-1.1875 0 -2.046875 -0.84375q-0.84375 -0.84375 -0.84375 -2.046875zm1.140625 0q0 0.734375 0.515625 1.25q0.515625 0.515625 1.25 0.515625q0.71875 0 1.234375 -0.515625q0.515625 -0.515625 0.515625 -1.25q0 -0.734375 -0.515625 -1.25q-0.515625 -0.515625 -1.234375 -0.515625q-0.734375 0 -1.25 0.515625q-0.515625 0.515625 -0.515625 1.25z" fill-rule="nonzero"/><path fill="#000000" fill-opacity="0.0" d="m812.1575 289.35434l57.606323 0l0 45.259827l-57.606323 0z" fill-rule="evenodd"/><path fill="#ffffff" d="m825.725 314.80307l1.875 -0.25q0.328125 1.59375 1.09375 2.296875q0.78125 0.703125 1.90625 0.703125q1.3125 0 2.21875 -0.90625q0.921875 -0.921875 0.921875 -2.28125q0 -1.296875 -0.84375 -2.125q-0.84375 -0.84375 -2.140625 -0.84375q-0.53125 0 -1.328125 0.203125l0.203125 -1.640625q0.1875 0.015625 0.3125 0.015625q1.1875 0 2.140625 -0.625q0.96875 -0.625 0.96875 -1.921875q0 -1.03125 -0.703125 -1.703125q-0.6875 -0.671875 -1.796875 -0.671875q-1.09375 0 -1.828125 0.6875q-0.71875 0.6875 -0.9375 2.0625l-1.875 -0.34375q0.34375 -1.875 1.5625 -2.90625q1.21875 -1.046875 3.03125 -1.046875q1.25 0 2.296875 0.546875q1.0625 0.53125 1.609375 1.453125q0.5625 0.921875 0.5625 1.96875q0 0.984375 -0.53125 1.796875q-0.53125 0.8125 -1.5625 1.296875q1.34375 0.3125 2.09375 1.296875q0.75 0.984375 0.75 2.453125q0 2.0 -1.453125 3.390625q-1.453125 1.390625 -3.6875 1.390625q-2.015625 0 -3.34375 -1.1875q-1.328125 -1.203125 -1.515625 -3.109375zm11.861694 -3.5q0 -2.703125 0.546875 -4.34375q0.5625 -1.65625 1.65625 -2.546875q1.109375 -0.90625 2.765625 -0.90625q1.234375 0 2.15625 0.5q0.9375 0.484375 1.53125 1.421875q0.609375 0.9375 0.953125 2.28125q0.34375 1.328125 0.34375 3.59375q0 2.6875 -0.5625 4.34375q-0.546875 1.640625 -1.640625 2.546875q-1.09375 0.90625 -2.78125 0.90625q-2.203125 0 -3.46875 -1.59375q-1.5 -1.90625 -1.5 -6.203125zm1.921875 0q0 3.765625 0.875 5.015625q0.890625 1.234375 2.171875 1.234375q1.296875 0 2.171875 -1.25q0.890625 -1.25 0.890625 -5.0q0 -3.765625 -0.890625 -5.0q-0.875 -1.25 -2.1875 -1.25q-1.296875 0 -2.0625 1.09375q-0.96875 1.40625 -0.96875 5.15625zm10.377319 -5.109375q0 -1.203125 0.84375 -2.046875q0.859375 -0.84375 2.046875 -0.84375q1.203125 0 2.046875 0.84375q0.84375 0.84375 0.84375 2.046875q0 1.203125 -0.84375 2.046875q-0.84375 0.84375 -2.046875 0.84375q-1.1875 0 -2.046875 -0.84375q-0.84375 -0.84375 -0.84375 -2.046875zm1.140625 0q0 0.734375 0.515625 1.25q0.515625 0.515625 1.25 0.515625q0.71875 0 1.234375 -0.515625q0.515625 -0.515625 0.515625 -1.25q0 -0.734375 -0.515625 -1.25q-0.515625 -0.515625 -1.234375 -0.515625q-0.734375 0 -1.25 0.515625q-0.515625 0.515625 -0.515625 1.25z" fill-rule="nonzero"/><path fill="#000000" fill-opacity="0.0" d="m751.68506 208.71391l57.606262 0l0 45.259842l-57.606262 0z" fill-rule="evenodd"/><path fill="#ffffff" d="m771.2525 238.19391l0 -3.65625l-6.625 0l0 -1.71875l6.96875 -9.890625l1.53125 0l0 9.890625l2.0625 0l0 1.71875l-2.0625 0l0 3.65625l-1.875 0zm0 -5.375l0 -6.875l-4.78125 6.875l4.78125 0zm5.8616943 1.375l1.96875 -0.171875q0.21875 1.4375 1.015625 2.171875q0.796875 0.71875 1.921875 0.71875q1.34375 0 2.28125 -1.015625q0.9375 -1.03125 0.9375 -2.71875q0 -1.59375 -0.90625 -2.515625q-0.890625 -0.9375 -2.34375 -0.9375q-0.90625 0 -1.640625 0.421875q-0.734375 0.40625 -1.140625 1.0625l-1.765625 -0.234375l1.484375 -7.84375l7.59375 0l0 1.796875l-6.09375 0l-0.828125 4.09375q1.375 -0.953125 2.890625 -0.953125q2.0 0 3.359375 1.390625q1.375 1.375 1.375 3.5625q0 2.0625 -1.203125 3.578125q-1.46875 1.859375 -4.0 1.859375q-2.09375 0 -3.40625 -1.171875q-1.3125 -1.171875 -1.5 -3.09375zm12.299194 -8.640625q0 -1.203125 0.84375 -2.046875q0.859375 -0.84375 2.046875 -0.84375q1.203125 0 2.046875 0.84375q0.84375 0.84375 0.84375 2.046875q0 1.203125 -0.84375 2.046875q-0.84375 0.84375 -2.046875 0.84375q-1.1875 0 -2.046875 -0.84375q-0.84375 -0.84375 -0.84375 -2.046875zm1.140625 0q0 0.734375 0.515625 1.25q0.515625 0.515625 1.25 0.515625q0.71875 0 1.234375 -0.515625q0.515625 -0.515625 0.515625 -1.25q0 -0.734375 -0.515625 -1.25q-0.515625 -0.515625 -1.234375 -0.515625q-0.734375 0 -1.25 0.515625q-0.515625 0.515625 -0.515625 1.25z" fill-rule="nonzero"/><path fill="#000000" fill-opacity="0.0" d="m672.8504 148.12599l57.606262 0l0 45.259842l-57.606262 0z" fill-rule="evenodd"/><path fill="#ffffff" d="m696.13666 166.07474l-1.859375 0.15625q-0.25 -1.109375 -0.703125 -1.609375q-0.765625 -0.796875 -1.875 -0.796875q-0.90625 0 -1.578125 0.5q-0.890625 0.640625 -1.40625 1.875q-0.5 1.234375 -0.515625 3.53125q0.671875 -1.03125 1.640625 -1.53125q0.984375 -0.5 2.0625 -0.5q1.875 0 3.1875 1.390625q1.3125 1.375 1.3125 3.5625q0 1.4375 -0.625 2.671875q-0.609375 1.234375 -1.6875 1.890625q-1.078125 0.65625 -2.453125 0.65625q-2.34375 0 -3.828125 -1.71875q-1.484375 -1.734375 -1.484375 -5.6875q0 -4.421875 1.640625 -6.4375q1.421875 -1.75 3.84375 -1.75q1.796875 0 2.953125 1.015625q1.15625 1.0 1.375 2.78125zm-7.65625 6.578125q0 0.96875 0.40625 1.859375q0.421875 0.890625 1.15625 1.359375q0.75 0.453125 1.5625 0.453125q1.1875 0 2.03125 -0.953125q0.859375 -0.96875 0.859375 -2.609375q0 -1.578125 -0.84375 -2.484375q-0.84375 -0.921875 -2.125 -0.921875q-1.265625 0 -2.15625 0.921875q-0.890625 0.90625 -0.890625 2.375zm9.799194 -2.578125q0 -2.703125 0.546875 -4.34375q0.5625 -1.65625 1.65625 -2.546875q1.109375 -0.90625 2.765625 -0.90625q1.234375 0 2.15625 0.5q0.9375 0.484375 1.53125 1.421875q0.609375 0.9375 0.953125 2.28125q0.34375 1.328125 0.34375 3.59375q0 2.6875 -0.5625 4.34375q-0.546875 1.640625 -1.640625 2.546875q-1.09375 0.90625 -2.78125 0.90625q-2.203125 0 -3.46875 -1.59375q-1.5 -1.90625 -1.5 -6.203125zm1.921875 0q0 3.765625 0.875 5.015625q0.890625 1.234375 2.171875 1.234375q1.296875 0 2.171875 -1.25q0.890625 -1.25 0.890625 -5.0q0 -3.765625 -0.890625 -5.0q-0.875 -1.25 -2.1875 -1.25q-1.296875 0 -2.0625 1.09375q-0.96875 1.40625 -0.96875 5.15625zm10.377319 -5.109375q0 -1.203125 0.84375 -2.046875q0.859375 -0.84375 2.046875 -0.84375q1.203125 0 2.046875 0.84375q0.84375 0.84375 0.84375 2.046875q0 1.203125 -0.84375 2.046875q-0.84375 0.84375 -2.046875 0.84375q-1.1875 0 -2.046875 -0.84375q-0.84375 -0.84375 -0.84375 -2.046875zm1.140625 0q0 0.734375 0.515625 1.25q0.515625 0.515625 1.25 0.515625q0.71875 0 1.234375 -0.515625q0.515625 -0.515625 0.515625 -1.25q0 -0.734375 -0.515625 -1.25q-0.515625 -0.515625 -1.234375 -0.515625q-0.734375 0 -1.25 0.515625q-0.515625 0.515625 -0.515625 1.25z" fill-rule="nonzero"/><path fill="#000000" fill-opacity="0.0" d="m479.46457 96.61942l57.606293 0l0 45.25985l-57.606293 0z" fill-rule="evenodd"/><path fill="#ffffff" d="m493.31332 122.56817l1.796875 -0.171875q0.234375 1.28125 0.875 1.859375q0.640625 0.5625 1.65625 0.5625q0.859375 0 1.515625 -0.390625q0.65625 -0.40625 1.0625 -1.0625q0.421875 -0.65625 0.703125 -1.78125q0.28125 -1.125 0.28125 -2.296875q0 -0.125 -0.015625 -0.375q-0.5625 0.890625 -1.53125 1.453125q-0.96875 0.5625 -2.109375 0.5625q-1.890625 0 -3.203125 -1.375q-1.3125 -1.375 -1.3125 -3.625q0 -2.328125 1.359375 -3.734375q1.375 -1.421875 3.4375 -1.421875q1.484375 0 2.71875 0.8125q1.234375 0.796875 1.875 2.28125q0.640625 1.484375 0.640625 4.28125q0 2.9375 -0.640625 4.671875q-0.625 1.734375 -1.890625 2.640625q-1.25 0.90625 -2.9375 0.90625q-1.78125 0 -2.921875 -1.0q-1.140625 -1.0 -1.359375 -2.796875zm7.671875 -6.734375q0 -1.609375 -0.859375 -2.5625q-0.859375 -0.953125 -2.0625 -0.953125q-1.25 0 -2.1875 1.03125q-0.921875 1.015625 -0.921875 2.640625q0 1.453125 0.875 2.375q0.890625 0.90625 2.171875 0.90625q1.3125 0 2.140625 -0.90625q0.84375 -0.921875 0.84375 -2.53125zm3.9085693 2.734375q0 -2.703125 0.546875 -4.34375q0.5625 -1.65625 1.65625 -2.546875q1.109375 -0.90625 2.765625 -0.90625q1.234375 0 2.1562195 0.5q0.9375 0.484375 1.53125 1.421875q0.609375 0.9375 0.953125 2.28125q0.34375 1.328125 0.34375 3.59375q0 2.6875 -0.5625 4.34375q-0.546875 1.640625 -1.640625 2.546875q-1.0937195 0.90625 -2.7812195 0.90625q-2.203125 0 -3.46875 -1.59375q-1.5 -1.90625 -1.5 -6.203125zm1.921875 0q0 3.765625 0.875 5.015625q0.890625 1.234375 2.171875 1.234375q1.296875 0 2.1718445 -1.25q0.890625 -1.25 0.890625 -5.0q0 -3.765625 -0.890625 -5.0q-0.8749695 -1.25 -2.1874695 -1.25q-1.296875 0 -2.0625 1.09375q-0.96875 1.40625 -0.96875 5.15625zm10.377289 -5.109375q0 -1.203125 0.84375 -2.046875q0.859375 -0.84375 2.046875 -0.84375q1.203125 0 2.046875 0.84375q0.84375 0.84375 0.84375 2.046875q0 1.203125 -0.84375 2.046875q-0.84375 0.84375 -2.046875 0.84375q-1.1875 0 -2.046875 -0.84375q-0.84375 -0.84375 -0.84375 -2.046875zm1.140625 0q0 0.734375 0.515625 1.25q0.515625 0.515625 1.25 0.515625q0.71875 0 1.234375 -0.515625q0.515625 -0.515625 0.515625 -1.25q0 -0.734375 -0.515625 -1.25q-0.515625 -0.515625 -1.234375 -0.515625q-0.734375 0 -1.25 0.515625q-0.515625 0.515625 -0.515625 1.25z" fill-rule="nonzero"/><path fill="#000000" fill-opacity="0.0" d="m240.85039 148.12599l66.645676 0l0 45.259842l-66.645676 0z" fill-rule="evenodd"/><path fill="#ffffff" d="m260.0692 177.60599l-1.875 0l0 -11.9375q-0.6875 0.640625 -1.78125 1.28125q-1.0937347 0.640625 -1.9687347 0.96875l0 -1.8125q1.5624847 -0.734375 2.7343597 -1.78125q1.1875 -1.0625 1.671875 -2.046875l1.21875 0l0 15.328125zm14.642944 -1.796875l0 1.796875l-10.09375 0q-0.015625 -0.671875 0.21875 -1.296875q0.390625 -1.03125 1.234375 -2.03125q0.859375 -1.0 2.453125 -2.3125q2.5 -2.046875 3.375 -3.234375q0.875 -1.203125 0.875 -2.25q0 -1.125 -0.796875 -1.890625q-0.796875 -0.765625 -2.078125 -0.765625q-1.359375 0 -2.171875 0.8125q-0.8125 0.8125 -0.828125 2.25l-1.921875 -0.1875q0.203125 -2.15625 1.484375 -3.28125q1.296875 -1.140625 3.46875 -1.140625q2.203125 0 3.484375 1.21875q1.28125 1.21875 1.28125 3.015625q0 0.921875 -0.375 1.8125q-0.375 0.875 -1.25 1.859375q-0.859375 0.96875 -2.890625 2.6875q-1.6875 1.40625 -2.171875 1.921875q-0.46875 0.5 -0.78125 1.015625l7.484375 0zm2.0179443 -5.734375q0 -2.703125 0.546875 -4.34375q0.5625 -1.65625 1.65625 -2.546875q1.109375 -0.90625 2.765625 -0.90625q1.234375 0 2.15625 0.5q0.9375 0.484375 1.53125 1.421875q0.609375 0.9375 0.953125 2.28125q0.34375 1.328125 0.34375 3.59375q0 2.6875 -0.5625 4.34375q-0.546875 1.640625 -1.640625 2.546875q-1.09375 0.90625 -2.78125 0.90625q-2.203125 0 -3.46875 -1.59375q-1.5 -1.90625 -1.5 -6.203125zm1.921875 0q0 3.765625 0.875 5.015625q0.890625 1.234375 2.171875 1.234375q1.296875 0 2.171875 -1.25q0.890625 -1.25 0.890625 -5.0q0 -3.765625 -0.890625 -5.0q-0.875 -1.25 -2.1875 -1.25q-1.296875 0 -2.0625 1.09375q-0.96875 1.40625 -0.96875 5.15625zm10.377319 -5.109375q0 -1.203125 0.84375 -2.046875q0.859375 -0.84375 2.046875 -0.84375q1.203125 0 2.046875 0.84375q0.84375 0.84375 0.84375 2.046875q0 1.203125 -0.84375 2.046875q-0.84375 0.84375 -2.046875 0.84375q-1.1875 0 -2.046875 -0.84375q-0.84375 -0.84375 -0.84375 -2.046875zm1.140625 0q0 0.734375 0.515625 1.25q0.515625 0.515625 1.25 0.515625q0.71875 0 1.234375 -0.515625q0.515625 -0.515625 0.515625 -1.25q0 -0.734375 -0.515625 -1.25q-0.515625 -0.515625 -1.234375 -0.515625q-0.734375 0 -1.25 0.515625q-0.515625 0.515625 -0.515625 1.25z" fill-rule="nonzero"/><path fill="#000000" fill-opacity="0.0" d="m161.16536 209.6693l66.64566 0l0 45.259842l-66.64566 0z" fill-rule="evenodd"/><path fill="#ffffff" d="m180.38419 239.14929l-1.875 0l0 -11.9375q-0.6875 0.640625 -1.78125 1.28125q-1.09375 0.640625 -1.96875 0.96875l0 -1.8125q1.5625 -0.734375 2.734375 -1.78125q1.1875 -1.0625 1.671875 -2.046875l1.21875 0l0 15.328125zm4.7991943 -4.03125l1.875 -0.25q0.328125 1.59375 1.09375 2.296875q0.78125 0.703125 1.90625 0.703125q1.3125 0 2.21875 -0.90625q0.921875 -0.921875 0.921875 -2.28125q0 -1.296875 -0.84375 -2.125q-0.84375 -0.84375 -2.140625 -0.84375q-0.53125 0 -1.328125 0.203125l0.203125 -1.640625q0.1875 0.015625 0.3125 0.015625q1.1875 0 2.140625 -0.625q0.96875 -0.625 0.96875 -1.921875q0 -1.03125 -0.703125 -1.703125q-0.6875 -0.671875 -1.796875 -0.671875q-1.09375 0 -1.828125 0.6875q-0.71875 0.6875 -0.9375 2.0625l-1.875 -0.34375q0.34375 -1.875 1.5625 -2.90625q1.21875 -1.046875 3.03125 -1.046875q1.25 0 2.296875 0.546875q1.0625 0.53125 1.609375 1.453125q0.5625 0.921875 0.5625 1.96875q0 0.984375 -0.53125 1.796875q-0.53125 0.8125 -1.5625 1.296875q1.34375 0.3125 2.09375 1.296875q0.75 0.984375 0.75 2.453125q0 2.0 -1.453125 3.390625q-1.453125 1.390625 -3.6875 1.390625q-2.015625 0 -3.34375 -1.1875q-1.328125 -1.203125 -1.515625 -3.109375zm11.861694 0.03125l1.96875 -0.171875q0.21875 1.4375 1.015625 2.171875q0.796875 0.71875 1.921875 0.71875q1.34375 0 2.28125 -1.015625q0.9375 -1.03125 0.9375 -2.71875q0 -1.59375 -0.90625 -2.515625q-0.890625 -0.9375 -2.34375 -0.9375q-0.90625 0 -1.640625 0.421875q-0.734375 0.40625 -1.140625 1.0625l-1.765625 -0.234375l1.484375 -7.84375l7.59375 0l0 1.796875l-6.09375 0l-0.828125 4.09375q1.375 -0.953125 2.890625 -0.953125q2.0 0 3.359375 1.390625q1.375 1.375 1.375 3.5625q0 2.0625 -1.203125 3.578125q-1.46875 1.859375 -4.0 1.859375q-2.09375 0 -3.40625 -1.171875q-1.3125 -1.171875 -1.5 -3.09375zm12.299194 -8.640625q0 -1.203125 0.84375 -2.046875q0.859375 -0.84375 2.046875 -0.84375q1.203125 0 2.046875 0.84375q0.84375 0.84375 0.84375 2.046875q0 1.203125 -0.84375 2.046875q-0.84375 0.84375 -2.046875 0.84375q-1.1875 0 -2.046875 -0.84375q-0.84375 -0.84375 -0.84375 -2.046875zm1.140625 0q0 0.734375 0.515625 1.25q0.515625 0.515625 1.25 0.515625q0.71875 0 1.234375 -0.515625q0.515625 -0.515625 0.515625 -1.25q0 -0.734375 -0.515625 -1.25q-0.515625 -0.515625 -1.234375 -0.515625q-0.734375 0 -1.25 0.515625q-0.515625 0.515625 -0.515625 1.25z" fill-rule="nonzero"/><path fill="#000000" fill-opacity="0.0" d="m100.69292 289.35434l66.64566 0l0 45.259827l-66.64566 0z" fill-rule="evenodd"/><path fill="#ffffff" d="m119.91174 318.83432l-1.875 0l0 -11.9375q-0.6875 0.640625 -1.78125 1.28125q-1.09375 0.640625 -1.96875 0.96875l0 -1.8125q1.5625 -0.734375 2.734375 -1.78125q1.1875 -1.0625 1.671875 -2.046875l1.21875 0l0 15.328125zm4.7991943 -4.0l1.96875 -0.171875q0.21875 1.4375 1.015625 2.171875q0.796875 0.71875 1.921875 0.71875q1.34375 0 2.28125 -1.015625q0.9375 -1.03125 0.9375 -2.71875q0 -1.59375 -0.90625 -2.515625q-0.890625 -0.9375 -2.34375 -0.9375q-0.90625 0 -1.640625 0.421875q-0.734375 0.40625 -1.140625 1.0625l-1.765625 -0.234375l1.484375 -7.84375l7.59375 0l0 1.796875l-6.09375 0l-0.828125 4.09375q1.375 -0.953125 2.890625 -0.953125q2.0 0 3.359375 1.390625q1.375 1.375 1.375 3.5625q0 2.0625 -1.203125 3.578125q-1.46875 1.859375 -4.0 1.859375q-2.09375 0 -3.40625 -1.171875q-1.3125 -1.171875 -1.5 -3.09375zm11.861694 -3.53125q0 -2.703125 0.546875 -4.34375q0.5625 -1.65625 1.65625 -2.546875q1.109375 -0.90625 2.765625 -0.90625q1.234375 0 2.15625 0.5q0.9375 0.484375 1.53125 1.421875q0.609375 0.9375 0.953125 2.28125q0.34375 1.328125 0.34375 3.59375q0 2.6875 -0.5625 4.34375q-0.546875 1.640625 -1.640625 2.546875q-1.09375 0.90625 -2.78125 0.90625q-2.203125 0 -3.46875 -1.59375q-1.5 -1.90625 -1.5 -6.203125zm1.921875 0q0 3.765625 0.875 5.015625q0.890625 1.234375 2.171875 1.234375q1.296875 0 2.171875 -1.25q0.890625 -1.25 0.890625 -5.0q0 -3.765625 -0.890625 -5.0q-0.875 -1.25 -2.1875 -1.25q-1.296875 0 -2.0625 1.09375q-0.96875 1.40625 -0.96875 5.15625zm10.377319 -5.109375q0 -1.203125 0.84375 -2.046875q0.859375 -0.84375 2.046875 -0.84375q1.203125 0 2.046875 0.84375q0.84375 0.84375 0.84375 2.046875q0 1.203125 -0.84375 2.046875q-0.84375 0.84375 -2.046875 0.84375q-1.1875 0 -2.046875 -0.84375q-0.84375 -0.84375 -0.84375 -2.046875zm1.140625 0q0 0.734375 0.515625 1.25q0.515625 0.515625 1.25 0.515625q0.71875 0 1.234375 -0.515625q0.515625 -0.515625 0.515625 -1.25q0 -0.734375 -0.515625 -1.25q-0.515625 -0.515625 -1.234375 -0.515625q-0.734375 0 -1.25 0.515625q-0.515625 0.515625 -0.515625 1.25z" fill-rule="nonzero"/><path fill="#000000" fill-opacity="0.0" d="m28.503937 480.8189l66.64567 0l0 45.259827l-66.64567 0z" fill-rule="evenodd"/><path fill="#ffffff" d="m47.722767 510.2989l-1.875 0l0 -11.9375q-0.6875 0.640625 -1.78125 1.28125q-1.09375 0.640625 -1.96875 0.96875l0 -1.8125q1.5625 -0.734375 2.734375 -1.78125q1.1875 -1.0625 1.671875 -2.046875l1.21875 0l0 15.328125zm7.6741943 -8.28125q-1.15625 -0.421875 -1.71875 -1.21875q-0.5625 -0.796875 -0.5625 -1.890625q0 -1.671875 1.1875 -2.796875q1.203125 -1.140625 3.1875 -1.140625q2.0 0 3.21875 1.171875q1.21875 1.15625 1.21875 2.8125q0 1.0625 -0.5625 1.859375q-0.546875 0.78125 -1.6875 1.203125q1.40625 0.453125 2.140625 1.484375q0.734375 1.015625 0.734375 2.4375q0 1.953125 -1.390625 3.296875q-1.375 1.328125 -3.640625 1.328125q-2.25 0 -3.640625 -1.34375q-1.390625 -1.34375 -1.390625 -3.34375q0 -1.484375 0.75 -2.484375q0.765625 -1.015625 2.15625 -1.375zm-0.375 -3.171875q0 1.078125 0.703125 1.765625q0.703125 0.6875 1.8125 0.6875q1.078125 0 1.765625 -0.671875q0.703125 -0.6875 0.703125 -1.671875q0 -1.03125 -0.71875 -1.734375q-0.703125 -0.703125 -1.765625 -0.703125q-1.078125 0 -1.796875 0.6875q-0.703125 0.6875 -0.703125 1.640625zm-0.59375 7.046875q0 0.796875 0.375 1.546875q0.375 0.75 1.125 1.171875q0.75 0.40625 1.625 0.40625q1.34375 0 2.21875 -0.859375q0.875 -0.875 0.875 -2.203125q0 -1.359375 -0.90625 -2.234375q-0.90625 -0.890625 -2.25 -0.890625q-1.328125 0 -2.203125 0.875q-0.859375 0.875 -0.859375 2.1875zm9.955448 -3.125q0 -2.703125 0.546875 -4.34375q0.5625 -1.65625 1.65625 -2.546875q1.109375 -0.90625 2.765625 -0.90625q1.234375 0 2.15625 0.5q0.9375 0.484375 1.53125 1.421875q0.609375 0.9375 0.953125 2.28125q0.34375 1.328125 0.34375 3.59375q0 2.6875 -0.5625 4.34375q-0.546875 1.640625 -1.640625 2.546875q-1.09375 0.90625 -2.78125 0.90625q-2.203125 0 -3.46875 -1.59375q-1.5 -1.90625 -1.5 -6.203125zm1.921875 0q0 3.765625 0.875 5.015625q0.890625 1.234375 2.171875 1.234375q1.296875 0 2.171875 -1.25q0.890625 -1.25 0.890625 -5.0q0 -3.765625 -0.890625 -5.0q-0.875 -1.25 -2.1875 -1.25q-1.296875 0 -2.0625 1.09375q-0.96875 1.40625 -0.96875 5.15625zm10.377319 -5.109375q0 -1.203125 0.84375 -2.046875q0.859375 -0.84375 2.046875 -0.84375q1.203125 0 2.046875 0.84375q0.84375 0.84375 0.84375 2.046875q0 1.203125 -0.84375 2.046875q-0.84375 0.84375 -2.046875 0.84375q-1.1875 0 -2.046875 -0.84375q-0.84375 -0.84375 -0.84375 -2.046875zm1.140625 0q0 0.734375 0.515625 1.25q0.515625 0.515625 1.25 0.515625q0.71875 0 1.234375 -0.515625q0.515625 -0.515625 0.515625 -1.25q0 -0.734375 -0.515625 -1.25q-0.515625 -0.515625 -1.234375 -0.515625q-0.734375 0 -1.25 0.515625q-0.515625 0.515625 -0.515625 1.25z" fill-rule="nonzero"/><path fill="#000000" fill-opacity="0.0" d="m479.35434 193.38583l63.653534 0l0 25.543304l-63.653534 0z" fill-rule="evenodd"/><path fill="#93c47d" d="m491.91684 196.27458l0.671875 0l-2.84375 17.734375l-4.515625 -9.296875l-1.796875 0.828125l-0.3125 -0.578125l2.734375 -1.375l3.703125 7.5l2.359375 -14.8125zm1.4578247 13.5l1.640625 -0.21875q0.28125 1.40625 0.953125 2.015625q0.6875 0.609375 1.65625 0.609375q1.15625 0 1.953125 -0.796875q0.796875 -0.796875 0.796875 -1.984375q0 -1.125 -0.734375 -1.859375q-0.734375 -0.734375 -1.875 -0.734375q-0.46875 0 -1.15625 0.171875l0.1875 -1.4375q0.15625 0.015625 0.265625 0.015625q1.046875 0 1.875 -0.546875q0.84375 -0.546875 0.84375 -1.671875q0 -0.90625 -0.609375 -1.5q-0.609375 -0.59375 -1.578125 -0.59375q-0.953125 0 -1.59375 0.609375q-0.640625 0.59375 -0.8125 1.796875l-1.640625 -0.296875q0.296875 -1.640625 1.359375 -2.546875q1.0625 -0.90625 2.65625 -0.90625q1.09375 0 2.0 0.46875q0.921875 0.46875 1.40625 1.28125q0.5 0.8125 0.5 1.71875q0 0.859375 -0.46875 1.578125q-0.46875 0.703125 -1.375 1.125q1.1875 0.28125 1.84375 1.140625q0.65625 0.859375 0.65625 2.15625q0 1.734375 -1.28125 2.953125q-1.265625 1.21875 -3.21875 1.21875q-1.765625 0 -2.921875 -1.046875q-1.15625 -1.046875 -1.328125 -2.71875zm9.594452 3.765625l3.875 -13.8125l1.3125 0l-3.859375 13.8125l-1.328125 0zm14.573914 -1.8125l0 1.578125l-8.8280945 0q-0.015625 -0.59375 0.1875 -1.140625q0.34375 -0.90625 1.078125 -1.78125q0.75 -0.875 2.1562195 -2.015625q2.171875 -1.78125 2.9375 -2.828125q0.765625 -1.046875 0.765625 -1.96875q0 -0.984375 -0.703125 -1.640625q-0.6875 -0.671875 -1.8125 -0.671875q-1.1875 0 -1.9062195 0.71875q-0.703125 0.703125 -0.703125 1.953125l-1.6875 -0.171875q0.171875 -1.890625 1.296875 -2.875q1.140625 -0.984375 3.0312195 -0.984375q1.921875 0 3.046875 1.0625q1.125 1.0625 1.125 2.640625q0 0.796875 -0.328125 1.578125q-0.328125 0.78125 -1.09375 1.640625q-0.75 0.84375 -2.53125 2.34375q-1.46875 1.234375 -1.8905945 1.6875q-0.421875 0.4375 -0.6875 0.875l6.5468445 0z" fill-rule="nonzero"/><path fill="#000000" fill-opacity="0.0" d="m479.35434 255.75853l63.653534 0l0 25.54332l-63.653534 0z" fill-rule="evenodd"/><path fill="#93c47d" d="m491.91684 258.64728l0.671875 0l-2.84375 17.734375l-4.515625 -9.296875l-1.796875 0.828125l-0.3125 -0.578125l2.734375 -1.375l3.703125 7.5l2.359375 -14.8125zm10.0672 15.453125l0 1.578125l-8.828125 0q-0.015625 -0.59375 0.1875 -1.140625q0.34375 -0.90625 1.078125 -1.78125q0.75 -0.875 2.15625 -2.015625q2.171875 -1.78125 2.9375 -2.828125q0.765625 -1.046875 0.765625 -1.96875q0 -0.984375 -0.703125 -1.640625q-0.6875 -0.671875 -1.8125 -0.671875q-1.1875 0 -1.90625 0.71875q-0.703125 0.703125 -0.703125 1.953125l-1.6875 -0.171875q0.171875 -1.890625 1.296875 -2.875q1.140625 -0.984375 3.03125 -0.984375q1.921875 0 3.046875 1.0625q1.125 1.0625 1.125 2.640625q0 0.796875 -0.328125 1.578125q-0.328125 0.78125 -1.09375 1.640625q-0.75 0.84375 -2.53125 2.34375q-1.46875 1.234375 -1.890625 1.6875q-0.421875 0.4375 -0.6875 0.875l6.546875 0zm0.9850769 1.8125l3.875 -13.8125l1.3125 0l-3.859375 13.8125l-1.328125 0zm14.573914 -1.8125l0 1.578125l-8.8280945 0q-0.015625 -0.59375 0.1875 -1.140625q0.34375 -0.90625 1.078125 -1.78125q0.75 -0.875 2.1562195 -2.015625q2.171875 -1.78125 2.9375 -2.828125q0.765625 -1.046875 0.765625 -1.96875q0 -0.984375 -0.703125 -1.640625q-0.6875 -0.671875 -1.8125 -0.671875q-1.1875 0 -1.9062195 0.71875q-0.703125 0.703125 -0.703125 1.953125l-1.6875 -0.171875q0.171875 -1.890625 1.296875 -2.875q1.140625 -0.984375 3.0312195 -0.984375q1.921875 0 3.046875 1.0625q1.125 1.0625 1.125 2.640625q0 0.796875 -0.328125 1.578125q-0.328125 0.78125 -1.09375 1.640625q-0.75 0.84375 -2.53125 2.34375q-1.46875 1.234375 -1.8905945 1.6875q-0.421875 0.4375 -0.6875 0.875l6.5468445 0z" fill-rule="nonzero"/><path fill="#000000" fill-opacity="0.0" d="m477.7638 334.59317l63.653503 0l0 25.543304l-63.653503 0z" fill-rule="evenodd"/><path fill="#93c47d" d="m487.71692 354.51318l-1.640625 0l0 -10.453125q-0.59375 0.5625 -1.5625 1.140625q-0.953125 0.5625 -1.71875 0.84375l0 -1.59375q1.375 -0.640625 2.40625 -1.5625q1.03125 -0.921875 1.453125 -1.78125l1.0625 0l0 13.40625zm3.422577 0.234375l3.875 -13.8125l1.3125 0l-3.859375 13.8125l-1.328125 0zm14.573944 -1.8125l0 1.578125l-8.828125 0q-0.015625 -0.59375 0.1875 -1.140625q0.34375 -0.90625 1.078125 -1.78125q0.75 -0.875 2.15625 -2.015625q2.171875 -1.78125 2.9375 -2.828125q0.765625 -1.046875 0.765625 -1.96875q0 -0.984375 -0.703125 -1.640625q-0.6875 -0.671875 -1.8125 -0.671875q-1.1875 0 -1.90625 0.71875q-0.703125 0.703125 -0.703125 1.953125l-1.6875 -0.171875q0.171875 -1.890625 1.296875 -2.875q1.140625 -0.984375 3.03125 -0.984375q1.921875 0 3.046875 1.0625q1.125 1.0625 1.125 2.640625q0 0.796875 -0.328125 1.578125q-0.328125 0.78125 -1.09375 1.640625q-0.75 0.84375 -2.53125 2.34375q-1.46875 1.234375 -1.890625 1.6875q-0.421875 0.4375 -0.6875 0.875l6.546875 0z" fill-rule="nonzero"/><path fill="#000000" fill-opacity="0.0" d="m657.19946 531.6168l32.0 0l0 24.566895l-32.0 0z" fill-rule="evenodd"/><path fill="#dd7e6b" d="m667.1526 549.5368l-1.640625 0l0 -10.453125q-0.59375 0.5625 -1.5625 1.140625q-0.953125 0.5625 -1.71875 0.84375l0 -1.59375q1.375 -0.640625 2.40625 -1.5625q1.03125 -0.921875 1.453125 -1.78125l1.0625 0l0 13.40625zm3.4226074 0.234375l3.875 -13.8125l1.3125 0l-3.859375 13.8125l-1.328125 0zm14.573914 -1.8125l0 1.578125l-8.828125 0q-0.015625 -0.59375 0.1875 -1.140625q0.34375 -0.90625 1.078125 -1.78125q0.75 -0.875 2.15625 -2.015625q2.171875 -1.78125 2.9375 -2.828125q0.765625 -1.046875 0.765625 -1.96875q0 -0.984375 -0.703125 -1.640625q-0.6875 -0.671875 -1.8125 -0.671875q-1.1875 0 -1.90625 0.71875q-0.703125 0.703125 -0.703125 1.953125l-1.6875 -0.171875q0.171875 -1.890625 1.296875 -2.875q1.140625 -0.984375 3.03125 -0.984375q1.921875 0 3.046875 1.0625q1.125 1.0625 1.125 2.640625q0 0.796875 -0.328125 1.578125q-0.328125 0.78125 -1.09375 1.640625q-0.75 0.84375 -2.53125 2.34375q-1.46875 1.234375 -1.890625 1.6875q-0.421875 0.4375 -0.6875 0.875l6.546875 0z" fill-rule="nonzero"/><path fill="#000000" fill-opacity="0.0" d="m725.4199 531.6168l43.14966 0l0 24.566895l-43.14966 0z" fill-rule="evenodd"/><path fill="#dd7e6b" d="m737.9824 532.50555l0.671875 0l-2.84375 17.734375l-4.515625 -9.296875l-1.796875 0.828125l-0.3125 -0.578125l2.734375 -1.375l3.703125 7.5l2.359375 -14.8125zm10.0672 15.453125l0 1.578125l-8.828125 0q-0.015625 -0.59375 0.1875 -1.140625q0.34375 -0.90625 1.078125 -1.78125q0.75 -0.875 2.15625 -2.015625q2.171875 -1.78125 2.9375 -2.828125q0.765625 -1.046875 0.765625 -1.96875q0 -0.984375 -0.703125 -1.640625q-0.6875 -0.671875 -1.8125 -0.671875q-1.1875 0 -1.90625 0.71875q-0.703125 0.703125 -0.703125 1.953125l-1.6875 -0.171875q0.171875 -1.890625 1.296875 -2.875q1.140625 -0.984375 3.03125 -0.984375q1.921875 0 3.046875 1.0625q1.125 1.0625 1.125 2.640625q0 0.796875 -0.328125 1.578125q-0.328125 0.78125 -1.09375 1.640625q-0.75 0.84375 -2.53125 2.34375q-1.46875 1.234375 -1.890625 1.6875q-0.421875 0.4375 -0.6875 0.875l6.546875 0zm0.9851074 1.8125l3.875 -13.8125l1.3125 0l-3.859375 13.8125l-1.328125 0zm14.573914 -1.8125l0 1.578125l-8.828125 0q-0.015625 -0.59375 0.1875 -1.140625q0.34375 -0.90625 1.078125 -1.78125q0.75 -0.875 2.15625 -2.015625q2.171875 -1.78125 2.9375 -2.828125q0.765625 -1.046875 0.765625 -1.96875q0 -0.984375 -0.703125 -1.640625q-0.6875 -0.671875 -1.8125 -0.671875q-1.1875 0 -1.90625 0.71875q-0.703125 0.703125 -0.703125 1.953125l-1.6875 -0.171875q0.171875 -1.890625 1.296875 -2.875q1.140625 -0.984375 3.03125 -0.984375q1.921875 0 3.046875 1.0625q1.125 1.0625 1.125 2.640625q0 0.796875 -0.328125 1.578125q-0.328125 0.78125 -1.09375 1.640625q-0.75 0.84375 -2.53125 2.34375q-1.46875 1.234375 -1.890625 1.6875q-0.421875 0.4375 -0.6875 0.875l6.546875 0z" fill-rule="nonzero"/><path fill="#000000" fill-opacity="0.0" d="m786.4278 531.6168l43.14966 0l0 24.566895l-43.14966 0z" fill-rule="evenodd"/><path fill="#dd7e6b" d="m798.9903 532.50555l0.671875 0l-2.84375 17.734375l-4.515625 -9.296875l-1.796875 0.828125l-0.3125 -0.578125l2.734375 -1.375l3.703125 7.5l2.359375 -14.8125zm1.4578247 13.5l1.640625 -0.21875q0.28125 1.40625 0.953125 2.015625q0.6875 0.609375 1.65625 0.609375q1.15625 0 1.953125 -0.796875q0.796875 -0.796875 0.796875 -1.984375q0 -1.125 -0.734375 -1.859375q-0.734375 -0.734375 -1.875 -0.734375q-0.46875 0 -1.15625 0.171875l0.1875 -1.4375q0.15625 0.015625 0.265625 0.015625q1.046875 0 1.875 -0.546875q0.84375 -0.546875 0.84375 -1.671875q0 -0.90625 -0.609375 -1.5q-0.609375 -0.59375 -1.578125 -0.59375q-0.953125 0 -1.59375 0.609375q-0.640625 0.59375 -0.8125 1.796875l-1.640625 -0.296875q0.296875 -1.640625 1.359375 -2.546875q1.0625 -0.90625 2.65625 -0.90625q1.09375 0 2.0 0.46875q0.921875 0.46875 1.40625 1.28125q0.5 0.8125 0.5 1.71875q0 0.859375 -0.46875 1.578125q-0.46875 0.703125 -1.375 1.125q1.1875 0.28125 1.84375 1.140625q0.65625 0.859375 0.65625 2.15625q0 1.734375 -1.28125 2.953125q-1.265625 1.21875 -3.21875 1.21875q-1.765625 0 -2.921875 -1.046875q-1.15625 -1.046875 -1.328125 -2.71875zm9.594482 3.765625l3.875 -13.8125l1.3125 0l-3.859375 13.8125l-1.328125 0zm14.573914 -1.8125l0 1.578125l-8.828125 0q-0.015625 -0.59375 0.1875 -1.140625q0.34375 -0.90625 1.078125 -1.78125q0.75 -0.875 2.15625 -2.015625q2.171875 -1.78125 2.9375 -2.828125q0.765625 -1.046875 0.765625 -1.96875q0 -0.984375 -0.703125 -1.640625q-0.6875 -0.671875 -1.8125 -0.671875q-1.1875 0 -1.90625 0.71875q-0.703125 0.703125 -0.703125 1.953125l-1.6875 -0.171875q0.171875 -1.890625 1.296875 -2.875q1.140625 -0.984375 3.03125 -0.984375q1.921875 0 3.046875 1.0625q1.125 1.0625 1.125 2.640625q0 0.796875 -0.328125 1.578125q-0.328125 0.78125 -1.09375 1.640625q-0.75 0.84375 -2.53125 2.34375q-1.46875 1.234375 -1.890625 1.6875q-0.421875 0.4375 -0.6875 0.875l6.546875 0z" fill-rule="nonzero"/><path fill="#000000" fill-opacity="0.0" d="m302.80054 531.6168l-38.834656 0l0 24.566895l38.834656 0z" fill-rule="evenodd"/><path fill="#dd7e6b" d="m267.55963 545.5212l0 -1.640625l5.03125 0l0 1.640625l-5.03125 0zm12.572052 4.015625l-1.640625 0l0 -10.453125q-0.59375 0.5625 -1.5625 1.140625q-0.953125 0.5625 -1.71875 0.84375l0 -1.59375q1.375 -0.640625 2.40625 -1.5625q1.03125 -0.921875 1.453125 -1.78125l1.0625 0l0 13.40625zm3.422577 0.234375l3.875 -13.8125l1.3125 0l-3.859375 13.8125l-1.328125 0zm14.573944 -1.8125l0 1.578125l-8.828125 0q-0.015625 -0.59375 0.1875 -1.140625q0.34375 -0.90625 1.078125 -1.78125q0.75 -0.875 2.15625 -2.015625q2.171875 -1.78125 2.9375 -2.828125q0.765625 -1.046875 0.765625 -1.96875q0 -0.984375 -0.703125 -1.640625q-0.6875 -0.671875 -1.8125 -0.671875q-1.1875 0 -1.90625 0.71875q-0.703125 0.703125 -0.703125 1.953125l-1.6875 -0.171875q0.171875 -1.890625 1.296875 -2.875q1.140625 -0.984375 3.03125 -0.984375q1.921875 0 3.046875 1.0625q1.125 1.0625 1.125 2.640625q0 0.796875 -0.328125 1.578125q-0.328125 0.78125 -1.09375 1.640625q-0.75 0.84375 -2.53125 2.34375q-1.46875 1.234375 -1.890625 1.6875q-0.421875 0.4375 -0.6875 0.875l6.546875 0z" fill-rule="nonzero"/><path fill="#000000" fill-opacity="0.0" d="m236.80052 531.6168l-52.220474 0l0 24.566895l52.220474 0z" fill-rule="evenodd"/><path fill="#dd7e6b" d="m188.1738 545.5212l0 -1.640625l5.03125 0l0 1.640625l-5.03125 0zm15.181427 -13.015625l0.671875 0l-2.84375 17.734375l-4.515625 -9.296875l-1.796875 0.828125l-0.3125 -0.578125l2.734375 -1.375l3.703125 7.5l2.359375 -14.8125zm10.0672 15.453125l0 1.578125l-8.828125 0q-0.015625 -0.59375 0.1875 -1.140625q0.34375 -0.90625 1.078125 -1.78125q0.75 -0.875 2.15625 -2.015625q2.171875 -1.78125 2.9375 -2.828125q0.765625 -1.046875 0.765625 -1.96875q0 -0.984375 -0.703125 -1.640625q-0.6875 -0.671875 -1.8125 -0.671875q-1.1875 0 -1.90625 0.71875q-0.703125 0.703125 -0.703125 1.953125l-1.6875 -0.171875q0.171875 -1.890625 1.296875 -2.875q1.140625 -0.984375 3.03125 -0.984375q1.921875 0 3.046875 1.0625q1.125 1.0625 1.125 2.640625q0 0.796875 -0.328125 1.578125q-0.328125 0.78125 -1.09375 1.640625q-0.75 0.84375 -2.53125 2.34375q-1.46875 1.234375 -1.890625 1.6875q-0.421875 0.4375 -0.6875 0.875l6.546875 0zm0.98509216 1.8125l3.875 -13.8125l1.3125 0l-3.859375 13.8125l-1.328125 0zm14.573929 -1.8125l0 1.578125l-8.828125 0q-0.015625 -0.59375 0.1875 -1.140625q0.34375 -0.90625 1.078125 -1.78125q0.75 -0.875 2.15625 -2.015625q2.171875 -1.78125 2.9375 -2.828125q0.765625 -1.046875 0.765625 -1.96875q0 -0.984375 -0.703125 -1.640625q-0.6875 -0.671875 -1.8125 -0.671875q-1.1875 0 -1.90625 0.71875q-0.703125 0.703125 -0.703125 1.953125l-1.6875 -0.171875q0.171875 -1.890625 1.296875 -2.875q1.140625 -0.984375 3.03125 -0.984375q1.921875 0 3.046875 1.0625q1.125 1.0625 1.125 2.640625q0 0.796875 -0.328125 1.578125q-0.328125 0.78125 -1.09375 1.640625q-0.75 0.84375 -2.53125 2.34375q-1.46875 1.234375 -1.890625 1.6875q-0.421875 0.4375 -0.6875 0.875l6.546875 0z" fill-rule="nonzero"/><path fill="#000000" fill-opacity="0.0" d="m175.79265 531.6168l-52.220467 0l0 24.566895l52.220467 0z" fill-rule="evenodd"/><path fill="#dd7e6b" d="m127.16593 545.5212l0 -1.640625l5.0312424 0l0 1.640625l-5.0312424 0zm15.181419 -13.015625l0.671875 0l-2.84375 17.734375l-4.515625 -9.296875l-1.796875 0.828125l-0.3125 -0.578125l2.734375 -1.375l3.703125 7.5l2.359375 -14.8125zm1.4578247 13.5l1.640625 -0.21875q0.28125 1.40625 0.953125 2.015625q0.6875 0.609375 1.65625 0.609375q1.15625 0 1.953125 -0.796875q0.796875 -0.796875 0.796875 -1.984375q0 -1.125 -0.734375 -1.859375q-0.734375 -0.734375 -1.875 -0.734375q-0.46875 0 -1.15625 0.171875l0.1875 -1.4375q0.15625 0.015625 0.265625 0.015625q1.046875 0 1.875 -0.546875q0.84375 -0.546875 0.84375 -1.671875q0 -0.90625 -0.609375 -1.5q-0.609375 -0.59375 -1.578125 -0.59375q-0.953125 0 -1.59375 0.609375q-0.640625 0.59375 -0.8125 1.796875l-1.640625 -0.296875q0.296875 -1.640625 1.359375 -2.546875q1.0625 -0.90625 2.65625 -0.90625q1.09375 0 2.0 0.46875q0.921875 0.46875 1.40625 1.28125q0.5 0.8125 0.5 1.71875q0 0.859375 -0.46875 1.578125q-0.46875 0.703125 -1.375 1.125q1.1875 0.28125 1.84375 1.140625q0.65625 0.859375 0.65625 2.15625q0 1.734375 -1.28125 2.953125q-1.265625 1.21875 -3.21875 1.21875q-1.765625 0 -2.921875 -1.046875q-1.15625 -1.046875 -1.328125 -2.71875zm9.594467 3.765625l3.875 -13.8125l1.3125 0l-3.859375 13.8125l-1.328125 0zm14.573929 -1.8125l0 1.578125l-8.828125 0q-0.015625 -0.59375 0.1875 -1.140625q0.34375 -0.90625 1.078125 -1.78125q0.75 -0.875 2.15625 -2.015625q2.171875 -1.78125 2.9375 -2.828125q0.765625 -1.046875 0.765625 -1.96875q0 -0.984375 -0.703125 -1.640625q-0.6875 -0.671875 -1.8125 -0.671875q-1.1875 0 -1.90625 0.71875q-0.703125 0.703125 -0.703125 1.953125l-1.6875 -0.171875q0.171875 -1.890625 1.296875 -2.875q1.140625 -0.984375 3.03125 -0.984375q1.921875 0 3.046875 1.0625q1.125 1.0625 1.125 2.640625q0 0.796875 -0.328125 1.578125q-0.328125 0.78125 -1.09375 1.640625q-0.75 0.84375 -2.53125 2.34375q-1.46875 1.234375 -1.890625 1.6875q-0.421875 0.4375 -0.6875 0.875l6.546875 0z" fill-rule="nonzero"/><path fill="#000000" d="m807.8898 334.18896l0 0c0 -2.65271 2.1504517 -4.803131 4.8031616 -4.803131l0 0c1.2738647 0 2.4955444 0.5060425 3.3963013 1.4067993c0.90075684 0.90075684 1.4067993 2.122467 1.4067993 3.3963318l0 0c0 2.65271 -2.1503906 4.8031616 -4.8031006 4.8031616l0 0c-2.65271 0 -4.8031616 -2.1504517 -4.8031616 -4.8031616z" fill-rule="evenodd"/><path stroke="#ffffff" stroke-width="1.0" stroke-linejoin="round" stroke-linecap="butt" d="m807.8898 334.18896l0 0c0 -2.65271 2.1504517 -4.803131 4.8031616 -4.803131l0 0c1.2738647 0 2.4955444 0.5060425 3.3963013 1.4067993c0.90075684 0.90075684 1.4067993 2.122467 1.4067993 3.3963318l0 0c0 2.65271 -2.1503906 4.8031616 -4.8031006 4.8031616l0 0c-2.65271 0 -4.8031616 -2.1504517 -4.8031616 -4.8031616z" fill-rule="evenodd"/><path fill="#000000" d="m747.1181 254.69292l0 0c0 -2.65271 2.1504517 -4.8031464 4.8031616 -4.8031464l0 0c1.2738647 0 2.4955444 0.5060425 3.3963623 1.4067993c0.90075684 0.9007721 1.4067993 2.122467 1.4067993 3.396347l0 0c0 2.6526947 -2.1504517 4.8031464 -4.8031616 4.8031464l0 0c-2.65271 0 -4.8031616 -2.1504517 -4.8031616 -4.8031464z" fill-rule="evenodd"/><path stroke="#ffffff" stroke-width="1.0" stroke-linejoin="round" stroke-linecap="butt" d="m747.1181 254.69292l0 0c0 -2.65271 2.1504517 -4.8031464 4.8031616 -4.8031464l0 0c1.2738647 0 2.4955444 0.5060425 3.3963623 1.4067993c0.90075684 0.9007721 1.4067993 2.122467 1.4067993 3.396347l0 0c0 2.6526947 -2.1504517 4.8031464 -4.8031616 4.8031464l0 0c-2.65271 0 -4.8031616 -2.1504517 -4.8031616 -4.8031464z" fill-rule="evenodd"/><path fill="#000000" d="m667.6221 193.92126l0 0c0 -2.65271 2.1503906 -4.8031616 4.8031006 -4.8031616l0 0c1.2739258 0 2.4956055 0.50605774 3.3963623 1.4068146c0.90075684 0.9007721 1.4067993 2.122467 1.4067993 3.396347l0 0c0 2.6526947 -2.1504517 4.8031464 -4.8031616 4.8031464l0 0c-2.65271 0 -4.8031006 -2.1504517 -4.8031006 -4.8031464z" fill-rule="evenodd"/><path stroke="#ffffff" stroke-width="1.0" stroke-linejoin="round" stroke-linecap="butt" d="m667.6221 193.92126l0 0c0 -2.65271 2.1503906 -4.8031616 4.8031006 -4.8031616l0 0c1.2739258 0 2.4956055 0.50605774 3.3963623 1.4068146c0.90075684 0.9007721 1.4067993 2.122467 1.4067993 3.396347l0 0c0 2.6526947 -2.1504517 4.8031464 -4.8031616 4.8031464l0 0c-2.65271 0 -4.8031006 -2.1504517 -4.8031006 -4.8031464z" fill-rule="evenodd"/><path fill="#000000" d="m475.19684 142.84514l0 0c0 -2.6526947 2.1504517 -4.8031464 4.8031616 -4.8031464l0 0c1.2738647 0 2.495575 0.5060425 3.3963318 1.4068146c0.90078735 0.90075684 1.4068298 2.122467 1.4068298 3.3963318l0 0c0 2.65271 -2.1504517 4.8031616 -4.8031616 4.8031616l0 0c-2.65271 0 -4.8031616 -2.1504517 -4.8031616 -4.8031616z" fill-rule="evenodd"/><path stroke="#ffffff" stroke-width="1.0" stroke-linejoin="round" stroke-linecap="butt" d="m475.19684 142.84514l0 0c0 -2.6526947 2.1504517 -4.8031464 4.8031616 -4.8031464l0 0c1.2738647 0 2.495575 0.5060425 3.3963318 1.4068146c0.90078735 0.90075684 1.4068298 2.122467 1.4068298 3.3963318l0 0c0 2.65271 -2.1504517 4.8031616 -4.8031616 4.8031616l0 0c-2.65271 0 -4.8031616 -2.1504517 -4.8031616 -4.8031616z" fill-rule="evenodd"/><path fill="#000000" d="m282.77167 193.92126l0 0c0 -2.65271 2.1504211 -4.8031616 4.803131 -4.8031616l0 0c1.2738647 0 2.495575 0.50605774 3.3963318 1.4068146c0.90078735 0.9007721 1.4068298 2.122467 1.4068298 3.396347l0 0c0 2.6526947 -2.1504517 4.8031464 -4.8031616 4.8031464l0 0c-2.65271 0 -4.803131 -2.1504517 -4.803131 -4.8031464z" fill-rule="evenodd"/><path stroke="#ffffff" stroke-width="1.0" stroke-linejoin="round" stroke-linecap="butt" d="m282.77167 193.92126l0 0c0 -2.65271 2.1504211 -4.8031616 4.803131 -4.8031616l0 0c1.2738647 0 2.495575 0.50605774 3.3963318 1.4068146c0.90078735 0.9007721 1.4068298 2.122467 1.4068298 3.396347l0 0c0 2.6526947 -2.1504517 4.8031464 -4.8031616 4.8031464l0 0c-2.65271 0 -4.803131 -2.1504517 -4.803131 -4.8031464z" fill-rule="evenodd"/><path fill="#000000" d="m203.27559 254.69292l0 0c0 -2.65271 2.1504517 -4.8031464 4.8031464 -4.8031464l0 0c1.27388 0 2.495575 0.5060425 3.396347 1.4067993c0.90075684 0.9007721 1.4068146 2.122467 1.4068146 3.396347l0 0c0 2.6526947 -2.1504517 4.8031464 -4.8031616 4.8031464l0 0c-2.6526947 0 -4.8031464 -2.1504517 -4.8031464 -4.8031464z" fill-rule="evenodd"/><path stroke="#ffffff" stroke-width="1.0" stroke-linejoin="round" stroke-linecap="butt" d="m203.27559 254.69292l0 0c0 -2.65271 2.1504517 -4.8031464 4.8031464 -4.8031464l0 0c1.27388 0 2.495575 0.5060425 3.396347 1.4067993c0.90075684 0.9007721 1.4068146 2.122467 1.4068146 3.396347l0 0c0 2.6526947 -2.1504517 4.8031464 -4.8031616 4.8031464l0 0c-2.6526947 0 -4.8031464 -2.1504517 -4.8031464 -4.8031464z" fill-rule="evenodd"/><path fill="#000000" d="m142.50394 334.18896l0 0c0 -2.65271 2.1504364 -4.803131 4.8031464 -4.803131l0 0c1.27388 0 2.495575 0.5060425 3.396347 1.4067993c0.90075684 0.90075684 1.4067993 2.122467 1.4067993 3.3963318l0 0c0 2.65271 -2.1504364 4.8031616 -4.8031464 4.8031616l0 0c-2.65271 0 -4.8031464 -2.1504517 -4.8031464 -4.8031616z" fill-rule="evenodd"/><path stroke="#ffffff" stroke-width="1.0" stroke-linejoin="round" stroke-linecap="butt" d="m142.50394 334.18896l0 0c0 -2.65271 2.1504364 -4.803131 4.8031464 -4.803131l0 0c1.27388 0 2.495575 0.5060425 3.396347 1.4067993c0.90075684 0.90075684 1.4067993 2.122467 1.4067993 3.3963318l0 0c0 2.65271 -2.1504364 4.8031616 -4.8031464 4.8031616l0 0c-2.65271 0 -4.8031464 -2.1504517 -4.8031464 -4.8031616z" fill-rule="evenodd"/><path fill="#000000" d="m859.33594 526.49866l0 0c0 -2.652649 2.1504517 -4.8031006 4.8031616 -4.8031006l0 0c1.2738647 0 2.4956055 0.5060425 3.3963623 1.4067993c0.90075684 0.90075684 1.4067993 2.1224365 1.4067993 3.3963013l0 0c0 2.65271 -2.1504517 4.8031616 -4.8031616 4.8031616l0 0c-2.65271 0 -4.8031616 -2.1504517 -4.8031616 -4.8031616z" fill-rule="evenodd"/><path stroke="#ffffff" stroke-width="1.0" stroke-linejoin="round" stroke-linecap="butt" d="m859.33594 526.49866l0 0c0 -2.652649 2.1504517 -4.8031006 4.8031616 -4.8031006l0 0c1.2738647 0 2.4956055 0.5060425 3.3963623 1.4067993c0.90075684 0.90075684 1.4067993 2.1224365 1.4067993 3.3963013l0 0c0 2.65271 -2.1504517 4.8031616 -4.8031616 4.8031616l0 0c-2.65271 0 -4.8031616 -2.1504517 -4.8031616 -4.8031616z" fill-rule="evenodd"/><path fill="#000000" d="m91.05774 526.81366l0 0c0 -2.65271 2.150444 -4.8031616 4.803154 -4.8031616l0 0c1.2738724 0 2.495575 0.5060425 3.3963394 1.4067993c0.90076447 0.90075684 1.406807 2.1224976 1.406807 3.3963623l0 0c0 2.65271 -2.150444 4.8031616 -4.8031464 4.8031616l0 0c-2.65271 0 -4.803154 -2.1504517 -4.803154 -4.8031616z" fill-rule="evenodd"/><path stroke="#ffffff" stroke-width="1.0" stroke-linejoin="round" stroke-linecap="butt" d="m91.05774 526.81366l0 0c0 -2.65271 2.150444 -4.8031616 4.803154 -4.8031616l0 0c1.2738724 0 2.495575 0.5060425 3.3963394 1.4067993c0.90076447 0.90075684 1.406807 2.1224976 1.406807 3.3963623l0 0c0 2.65271 -2.150444 4.8031616 -4.8031464 4.8031616l0 0c-2.65271 0 -4.803154 -2.1504517 -4.803154 -4.8031616z" fill-rule="evenodd"/><path fill="#000000" fill-opacity="0.0" d="m19.212599 16.031496l460.7874 0l0 71.08662l-460.7874 0z" fill-rule="evenodd"/><path fill="#dd7e6b" d="m39.38447 37.714622l-2.875 0.53125q-0.15625 -0.875 -0.671875 -1.3125q-0.515625 -0.4375 -1.328125 -0.4375q-1.09375 0 -1.75 0.765625q-0.65625 0.75 -0.65625 2.515625q0 1.96875 0.65625 2.78125q0.671875 0.8125 1.78125 0.8125q0.84375 0 1.375 -0.46875q0.53125 -0.46875 0.75 -1.625l2.859375 0.484375q-0.4375 1.984375 -1.71875 3.0q-1.265625 1.0 -3.390625 1.0q-2.437498 0 -3.874998 -1.53125q-1.4375 -1.53125 -1.4375 -4.234375q0 -2.75 1.4375 -4.265625q1.453125 -1.53125 3.921873 -1.53125q2.015625 0 3.203125 0.875q1.203125 0.859375 1.71875 2.640625zm1.5491943 2.109375q0 -1.453125 0.71875 -2.8125q0.71875 -1.375 2.03125 -2.09375q1.3125 -0.71875 2.9375 -0.71875q2.515625 0 4.109375 1.640625q1.609375 1.625 1.609375 4.109375q0 2.515625 -1.625 4.171875q-1.609375 1.640625 -4.0625 1.640625q-1.53125 0 -2.90625 -0.6875q-1.375 -0.6875 -2.09375 -2.015625q-0.71875 -1.328125 -0.71875 -3.234375zm3.0 0.15625q0 1.640625 0.78125 2.515625q0.78125 0.875 1.921875 0.875q1.140625 0 1.921875 -0.875q0.78125 -0.875 0.78125 -2.53125q0 -1.625 -0.78125 -2.5q-0.78125 -0.875 -1.921875 -0.875q-1.140625 0 -1.921875 0.875q-0.78125 0.875 -0.78125 2.515625zm9.668701 2.375l2.9375 -0.453125q0.1875 0.859375 0.75 1.3125q0.578125 0.4375 1.609375 0.4375q1.140625 0 1.71875 -0.421875q0.375 -0.296875 0.375 -0.78125q0 -0.328125 -0.203125 -0.546875q-0.21875 -0.21875 -0.984375 -0.390625q-3.53125 -0.78125 -4.484375 -1.421875q-1.3125 -0.90625 -1.3125 -2.5q0 -1.4375 1.125 -2.40625q1.140625 -0.984375 3.53125 -0.984375q2.265625 0 3.375 0.75q1.109375 0.734375 1.515625 2.171875l-2.75 0.515625q-0.1875 -0.640625 -0.6875 -0.984375q-0.484375 -0.34375 -1.40625 -0.34375q-1.15625 0 -1.65625 0.3125q-0.328125 0.234375 -0.328125 0.59375q0 0.3125 0.296875 0.53125q0.390625 0.296875 2.71875 0.828125q2.34375 0.53125 3.28125 1.296875q0.90625 0.78125 0.90625 2.1875q0 1.515625 -1.265625 2.609375q-1.265625 1.09375 -3.765625 1.09375q-2.25 0 -3.578125 -0.90625q-1.3125 -0.921875 -1.71875 -2.5zm17.752323 7.640625l-2.015625 0q-1.59375 -2.40625 -2.4375 -5.0q-0.828125 -2.59375 -0.828125 -5.015625q0 -3.015625 1.03125 -5.6875q0.90625 -2.343752 2.28125 -4.312502l2.0 0q-1.4375 3.156252 -1.96875 5.375002q-0.53125 2.203125 -0.53125 4.6875q0 1.703125 0.3125 3.5q0.3125 1.796875 0.875 3.40625q0.359375 1.0625 1.28125 3.046875zm6.4774323 -20.015627q4.953125 0 4.953125 7.890627q0 7.890625 -4.953125 7.890625q-2.296875 0 -3.625 -1.78125q-1.328125 -1.796875 -1.328125 -6.140625q0 -7.859377 4.953125 -7.859377zm1.9375 6.671877q-0.078125 -2.59375 -0.5625 -3.4375q-0.484375 -0.84375 -1.375 -0.84375q-0.875 0 -1.359375 0.859375q-0.484375 0.84375 -0.5625 3.421875l3.859375 0zm0 2.4375l-3.859375 0q0.078125 2.59375 0.5625 3.4375q0.484375 0.84375 1.359375 0.84375q0.890625 0 1.375 -0.84375q0.484375 -0.84375 0.5625 -3.4375zm4.5440674 10.90625q0.859375 -1.84375 1.21875 -2.84375q0.359375 -0.984375 0.65625 -2.265625q0.296875 -1.296875 0.4375 -2.453125q0.15625 -1.171875 0.15625 -2.390625q0 -2.484375 -0.53125 -4.6875q-0.53125 -2.21875 -1.953125 -5.375002l1.984375 0q1.578125 2.250002 2.4375 4.765627q0.875 2.5 0.875 5.078125q0 2.171875 -0.6875 4.671875q-0.78125 2.78125 -2.578125 5.5l-2.015625 0zm13.199951 -12.984375l0 -2.6875l10.671875 0l0 2.6875l-10.671875 0zm0 4.625l0 -2.703125l10.671875 0l0 2.703125l-10.671875 0zm17.61531 3.875l3.984375 -5.703125l-3.8125 -5.359375l3.5625 0l1.96875 3.046875l2.0625 -3.046875l3.421875 0l-3.734375 5.234375l4.078125 5.828125l-3.578125 0l-2.25 -3.421875l-2.28125 3.421875l-3.421875 0zm12.924194 -4.078125l0 -2.921875l5.75 0l0 2.921875l-5.75 0zm17.086807 -3.71875l-2.875 0.53125q-0.15625 -0.875 -0.671875 -1.3125q-0.515625 -0.4375 -1.328125 -0.4375q-1.09375 0 -1.75 0.765625q-0.65625 0.75 -0.65625 2.515625q0 1.96875 0.65625 2.78125q0.671875 0.8125 1.78125 0.8125q0.84375 0 1.375 -0.46875q0.53125 -0.46875 0.75 -1.625l2.859375 0.484375q-0.4375 1.984375 -1.71875 3.0q-1.265625 1.0 -3.390625 1.0q-2.4375 0 -3.875 -1.53125q-1.4375 -1.53125 -1.4375 -4.234375q0 -2.75 1.4375 -4.265625q1.453125 -1.53125 3.921875 -1.53125q2.015625 0 3.203125 0.875q1.203125 0.859375 1.71875 2.640625zm1.5491943 2.109375q0 -1.453125 0.71875 -2.8125q0.71875 -1.375 2.03125 -2.09375q1.3125 -0.71875 2.9375 -0.71875q2.515625 0 4.109375 1.640625q1.609375 1.625 1.609375 4.109375q0 2.515625 -1.625 4.171875q-1.609375 1.640625 -4.0625 1.640625q-1.53125 0 -2.90625 -0.6875q-1.375 -0.6875 -2.09375 -2.015625q-0.71875 -1.328125 -0.71875 -3.234375zm3.0 0.15625q0 1.640625 0.78125 2.515625q0.78125 0.875 1.921875 0.875q1.140625 0 1.921875 -0.875q0.78125 -0.875 0.78125 -2.53125q0 -1.625 -0.78125 -2.5q-0.78125 -0.875 -1.921875 -0.875q-1.140625 0 -1.921875 0.875q-0.78125 0.875 -0.78125 2.515625zm10.028076 -0.15625q0 -1.453125 0.71875 -2.8125q0.71875 -1.375 2.03125 -2.09375q1.3125 -0.71875 2.9375 -0.71875q2.515625 0 4.109375 1.640625q1.609375 1.625 1.609375 4.109375q0 2.515625 -1.625 4.171875q-1.609375 1.640625 -4.0625 1.640625q-1.53125 0 -2.90625 -0.6875q-1.375 -0.6875 -2.09375 -2.015625q-0.71875 -1.328125 -0.71875 -3.234375zm3.0 0.15625q0 1.640625 0.78125 2.515625q0.78125 0.875 1.921875 0.875q1.140625 0 1.921875 -0.875q0.78125 -0.875 0.78125 -2.53125q0 -1.625 -0.78125 -2.5q-0.78125 -0.875 -1.921875 -0.875q-1.140625 0 -1.921875 0.875q-0.78125 0.875 -0.78125 2.515625zm13.496826 5.53125l-2.921875 0l0 -11.0625l2.71875 0l0 1.578125q0.703125 -1.125 1.25 -1.46875q0.5625 -0.359375 1.265625 -0.359375q1.0 0 1.9375 0.5625l-0.90625 2.546875q-0.75 -0.484375 -1.375 -0.484375q-0.625 0 -1.046875 0.34375q-0.421875 0.328125 -0.671875 1.21875q-0.25 0.890625 -0.25 3.703125l0 3.421875zm15.643814 0l-2.71875 0l0 -1.625q-0.671875 0.953125 -1.59375 1.421875q-0.921875 0.453125 -1.859375 0.453125q-1.90625 0 -3.265625 -1.53125q-1.359375 -1.546875 -1.359375 -4.296875q0 -2.8125 1.3125 -4.265625q1.328125 -1.46875 3.359375 -1.46875q1.84375 0 3.203125 1.546875l0 -5.500002l2.921875 0l0 15.265627zm-7.8125 -5.765625q0 1.765625 0.5 2.5625q0.703125 1.140625 1.96875 1.140625q1.015625 0 1.71875 -0.859375q0.71875 -0.859375 0.71875 -2.5625q0 -1.90625 -0.6875 -2.75q-0.6875 -0.84375 -1.765625 -0.84375q-1.046875 0 -1.75 0.828125q-0.703125 0.828125 -0.703125 2.484375zm10.699951 -6.796875l0 -2.703127l2.921875 0l0 2.703127l-2.921875 0zm0 12.5625l0 -11.0625l2.921875 0l0 11.0625l-2.921875 0zm15.988144 0l-2.921875 0l0 -5.640625q0 -1.796875 -0.1875 -2.3125q-0.1875 -0.53125 -0.609375 -0.828125q-0.421875 -0.296875 -1.015625 -0.296875q-0.765625 0 -1.375 0.421875q-0.59375 0.421875 -0.828125 1.109375q-0.21875 0.6875 -0.21875 2.53125l0 5.015625l-2.921875 0l0 -11.0625l2.71875 0l0 1.625q1.4375 -1.875 3.640625 -1.875q0.96875 0 1.765625 0.359375q0.8125 0.34375 1.21875 0.890625q0.40625 0.53125 0.5625 1.21875q0.171875 0.6875 0.171875 1.96875l0 6.875zm5.153076 -7.6875l-2.65625 -0.484375q0.453125 -1.59375 1.546875 -2.359375q1.09375 -0.78125 3.25 -0.78125q1.953125 0 2.90625 0.46875q0.96875 0.453125 1.359375 1.171875q0.390625 0.71875 0.390625 2.625l-0.03125 3.40625q0 1.46875 0.125 2.15625q0.140625 0.6875 0.53125 1.484375l-2.890625 0q-0.109375 -0.296875 -0.28125 -0.859375q-0.078125 -0.265625 -0.109375 -0.34375q-0.75 0.71875 -1.609375 1.09375q-0.84375 0.359375 -1.8125 0.359375q-1.703125 0 -2.6875 -0.921875q-0.984375 -0.9375 -0.984375 -2.34375q0 -0.9375 0.4375 -1.671875q0.453125 -0.734375 1.25 -1.125q0.8125 -0.390625 2.34375 -0.6875q2.046875 -0.390625 2.84375 -0.71875l0 -0.296875q0 -0.84375 -0.421875 -1.203125q-0.421875 -0.359375 -1.578125 -0.359375q-0.78125 0 -1.21875 0.3125q-0.4375 0.3125 -0.703125 1.078125zm3.921875 2.375q-0.5625 0.1875 -1.78125 0.453125q-1.21875 0.25 -1.59375 0.5q-0.578125 0.40625 -0.578125 1.03125q0 0.625 0.453125 1.078125q0.46875 0.4375 1.171875 0.4375q0.796875 0 1.515625 -0.515625q0.53125 -0.40625 0.6875 -0.96875q0.125 -0.375 0.125 -1.4375l0 -0.578125zm10.830444 -5.75l0 2.328125l-2.0 0l0 4.46875q0 1.34375 0.046875 1.578125q0.0625 0.21875 0.265625 0.375q0.203125 0.140625 0.5 0.140625q0.40625 0 1.171875 -0.28125l0.25 2.265625q-1.015625 0.4375 -2.3125 0.4375q-0.796875 0 -1.4375 -0.265625q-0.625 -0.265625 -0.921875 -0.6875q-0.296875 -0.421875 -0.40625 -1.140625q-0.09375 -0.515625 -0.09375 -2.0625l0 -4.828125l-1.34375 0l0 -2.328125l1.34375 0l0 -2.1875l2.9375 -1.7187519l0 3.906252l2.0 0zm8.430557 7.546875l2.90625 0.484375q-0.546875 1.609375 -1.765625 2.453125q-1.21875 0.828125 -3.03125 0.828125q-2.890625 0 -4.28125 -1.890625q-1.09375 -1.5 -1.09375 -3.8125q0 -2.75 1.4375 -4.296875q1.4375 -1.5625 3.640625 -1.5625q2.46875 0 3.890625 1.640625q1.421875 1.625 1.359375 4.984375l-7.328125 0q0.03125 1.296875 0.703125 2.03125q0.6875 0.71875 1.703125 0.71875q0.6875 0 1.15625 -0.375q0.46875 -0.375 0.703125 -1.203125zm0.171875 -2.96875q-0.03125 -1.265625 -0.65625 -1.921875q-0.625 -0.671875 -1.53125 -0.671875q-0.953125 0 -1.578125 0.703125q-0.625 0.703125 -0.609375 1.890625l4.375 0zm10.537338 0.796875q0 -1.453125 0.71875 -2.8125q0.71875 -1.375 2.03125 -2.09375q1.3125 -0.71875 2.9375 -0.71875q2.515625 0 4.109375 1.640625q1.609375 1.625 1.609375 4.109375q0 2.515625 -1.625 4.171875q-1.609375 1.640625 -4.0625 1.640625q-1.53125 0 -2.90625 -0.6875q-1.375 -0.6875 -2.09375 -2.015625q-0.71875 -1.328125 -0.71875 -3.234375zm3.0 0.15625q0 1.640625 0.78125 2.515625q0.78125 0.875 1.921875 0.875q1.140625 0 1.921875 -0.875q0.78125 -0.875 0.78125 -2.53125q0 -1.625 -0.78125 -2.5q-0.78125 -0.875 -1.921875 -0.875q-1.140625 0 -1.921875 0.875q-0.78125 0.875 -0.78125 2.515625zm9.418701 -5.53125l1.625 0l0 -0.828125q0 -1.390625 0.296875 -2.078127q0.296875 -0.6875 1.09375 -1.125q0.796875 -0.4375 2.015625 -0.4375q1.25 0 2.453125 0.375l-0.40625 2.046877q-0.6875 -0.171875 -1.34375 -0.171875q-0.625 0 -0.90625 0.296875q-0.28125 0.296875 -0.28125 1.140625l0 0.78125l2.1875 0l0 2.296875l-2.1875 0l0 8.765625l-2.921875 0l0 -8.765625l-1.625 0l0 -2.296875zm20.715576 7.546875l2.90625 0.484375q-0.546875 1.609375 -1.765625 2.453125q-1.21875 0.828125 -3.03125 0.828125q-2.890625 0 -4.28125 -1.890625q-1.09375 -1.5 -1.09375 -3.8125q0 -2.75 1.4375 -4.296875q1.4375 -1.5625 3.640625 -1.5625q2.46875 0 3.890625 1.640625q1.421875 1.625 1.359375 4.984375l-7.328125 0q0.03125 1.296875 0.703125 2.03125q0.6875 0.71875 1.703125 0.71875q0.6875 0 1.15625 -0.375q0.46875 -0.375 0.703125 -1.203125zm0.171875 -2.96875q-0.03125 -1.265625 -0.65625 -1.921875q-0.625 -0.671875 -1.53125 -0.671875q-0.953125 0 -1.578125 0.703125q-0.625 0.703125 -0.609375 1.890625l4.375 0zm7.4710693 -1.203125l-2.65625 -0.484375q0.453125 -1.59375 1.546875 -2.359375q1.09375 -0.78125 3.25 -0.78125q1.953125 0 2.90625 0.46875q0.96875 0.453125 1.359375 1.171875q0.390625 0.71875 0.390625 2.625l-0.03125 3.40625q0 1.46875 0.125 2.15625q0.140625 0.6875 0.53125 1.484375l-2.890625 0q-0.109375 -0.296875 -0.28125 -0.859375q-0.078125 -0.265625 -0.109375 -0.34375q-0.75 0.71875 -1.609375 1.09375q-0.84375 0.359375 -1.8125 0.359375q-1.703125 0 -2.6875 -0.921875q-0.984375 -0.9375 -0.984375 -2.34375q0 -0.9375 0.4375 -1.671875q0.453125 -0.734375 1.25 -1.125q0.8125 -0.390625 2.34375 -0.6875q2.046875 -0.390625 2.84375 -0.71875l0 -0.296875q0 -0.84375 -0.421875 -1.203125q-0.421875 -0.359375 -1.578125 -0.359375q-0.78125 0 -1.21875 0.3125q-0.4375 0.3125 -0.703125 1.078125zm3.921875 2.375q-0.5625 0.1875 -1.78125 0.453125q-1.21875 0.25 -1.59375 0.5q-0.578125 0.40625 -0.578125 1.03125q0 0.625 0.453125 1.078125q0.46875 0.4375 1.171875 0.4375q0.796875 0 1.515625 -0.515625q0.53125 -0.40625 0.6875 -0.96875q0.125 -0.375 0.125 -1.4375l0 -0.578125zm15.392944 -2.484375l-2.875 0.53125q-0.15625 -0.875 -0.671875 -1.3125q-0.515625 -0.4375 -1.328125 -0.4375q-1.09375 0 -1.75 0.765625q-0.65625 0.75 -0.65625 2.515625q0 1.96875 0.65625 2.78125q0.671875 0.8125 1.78125 0.8125q0.84375 0 1.375 -0.46875q0.53125 -0.46875 0.75 -1.625l2.859375 0.484375q-0.4375 1.984375 -1.71875 3.0q-1.265625 1.0 -3.390625 1.0q-2.4375 0 -3.875 -1.53125q-1.4375 -1.53125 -1.4375 -4.234375q0 -2.75 1.4375 -4.265625q1.453125 -1.53125 3.921875 -1.53125q2.015625 0 3.203125 0.875q1.203125 0.859375 1.71875 2.640625zm5.1429443 -7.468752l0 5.609377q1.40625 -1.65625 3.375 -1.65625q1.015625 0 1.828125 0.375q0.8125 0.375 1.21875 0.96875q0.40625 0.578125 0.5625 1.28125q0.15625 0.703125 0.15625 2.203125l0 6.484375l-2.921875 0l0 -5.84375q0 -1.734375 -0.171875 -2.203125q-0.171875 -0.46875 -0.59375 -0.75q-0.421875 -0.28125 -1.046875 -0.28125q-0.734375 0 -1.3125 0.359375q-0.5625 0.359375 -0.828125 1.078125q-0.265625 0.703125 -0.265625 2.09375l0 5.546875l-2.9375 0l0 -15.265627l2.9375 0zm18.21933 7.578127l-2.65625 -0.484375q0.453125 -1.59375 1.546875 -2.359375q1.09375 -0.78125 3.25 -0.78125q1.953125 0 2.90625 0.46875q0.96875 0.453125 1.359375 1.171875q0.390625 0.71875 0.390625 2.625l-0.03125 3.40625q0 1.46875 0.125 2.15625q0.140625 0.6875 0.53125 1.484375l-2.890625 0q-0.109375 -0.296875 -0.28125 -0.859375q-0.078125 -0.265625 -0.109375 -0.34375q-0.75 0.71875 -1.609375 1.09375q-0.84375 0.359375 -1.8125 0.359375q-1.703125 0 -2.6875 -0.921875q-0.984375 -0.9375 -0.984375 -2.34375q0 -0.9375 0.4375 -1.671875q0.453125 -0.734375 1.25 -1.125q0.8125 -0.390625 2.34375 -0.6875q2.046875 -0.390625 2.84375 -0.71875l0 -0.296875q0 -0.84375 -0.421875 -1.203125q-0.421875 -0.359375 -1.578125 -0.359375q-0.78125 0 -1.21875 0.3125q-0.4375 0.3125 -0.703125 1.078125zm3.921875 2.375q-0.5625 0.1875 -1.78125 0.453125q-1.21875 0.25 -1.59375 0.5q-0.578125 0.40625 -0.578125 1.03125q0 0.625 0.453125 1.078125q0.46875 0.4375 1.171875 0.4375q0.796875 0 1.515625 -0.515625q0.53125 -0.40625 0.6875 -0.96875q0.125 -0.375 0.125 -1.4375l0 -0.578125zm15.814789 5.3125l-2.921875 0l0 -5.640625q0 -1.796875 -0.1875 -2.3125q-0.1875 -0.53125 -0.609375 -0.828125q-0.421875 -0.296875 -1.015625 -0.296875q-0.765625 0 -1.375 0.421875q-0.59375 0.421875 -0.828125 1.109375q-0.21875 0.6875 -0.21875 2.53125l0 5.015625l-2.921875 0l0 -11.0625l2.71875 0l0 1.625q1.4375 -1.875 3.640625 -1.875q0.96875 0 1.765625 0.359375q0.8125 0.34375 1.21875 0.890625q0.40625 0.53125 0.5625 1.21875q0.171875 0.6875 0.171875 1.96875l0 6.875zm2.6999512 0.734375l3.34375 0.40625q0.078125 0.578125 0.375 0.796875q0.421875 0.3125 1.3125 0.3125q1.15625 0 1.71875 -0.34375q0.390625 -0.234375 0.59375 -0.734375q0.125 -0.375 0.125 -1.34375l0 -1.625q-1.3125 1.796875 -3.3125 1.796875q-2.21875 0 -3.53125 -1.890625q-1.015625 -1.484375 -1.015625 -3.703125q0 -2.78125 1.328125 -4.25q1.34375 -1.46875 3.34375 -1.46875q2.046875 0 3.375 1.796875l0 -1.546875l2.734375 0l0 9.921875q0 1.96875 -0.328125 2.9375q-0.3125 0.96875 -0.890625 1.515625q-0.578125 0.546875 -1.5625 0.859375q-0.96875 0.3125 -2.453125 0.3125q-2.8125 0 -4.0 -0.96875q-1.171875 -0.953125 -1.171875 -2.4375q0 -0.140625 0.015625 -0.34375zm2.609375 -6.5q0 1.765625 0.671875 2.59375q0.6875 0.8125 1.6875 0.8125q1.078125 0 1.8125 -0.84375q0.75 -0.84375 0.75 -2.484375q0 -1.71875 -0.71875 -2.546875q-0.703125 -0.84375 -1.78125 -0.84375q-1.0625 0 -1.75 0.828125q-0.671875 0.8125 -0.671875 2.484375zm10.684326 5.765625l0 -15.265627l2.921875 0l0 15.265627l-2.921875 0zm12.331909 -3.515625l2.90625 0.484375q-0.546875 1.609375 -1.765625 2.453125q-1.21875 0.828125 -3.03125 0.828125q-2.890625 0 -4.28125 -1.890625q-1.09375 -1.5 -1.09375 -3.8125q0 -2.75 1.4375 -4.296875q1.4375 -1.5625 3.640625 -1.5625q2.46875 0 3.890625 1.640625q1.421875 1.625 1.359375 4.984375l-7.328125 0q0.03125 1.296875 0.703125 2.03125q0.6875 0.71875 1.703125 0.71875q0.6875 0 1.15625 -0.375q0.46875 -0.375 0.703125 -1.203125zm0.171875 -2.96875q-0.03125 -1.265625 -0.65625 -1.921875q-0.625 -0.671875 -1.53125 -0.671875q-0.953125 0 -1.578125 0.703125q-0.625 0.703125 -0.609375 1.890625l4.375 0z" fill-rule="nonzero"/><path fill="#93c47d" d="m28.712599 67.955246l2.9375 -0.453125q0.1875 0.859375 0.7499981 1.3125q0.578125 0.4375 1.609375 0.4375q1.140625 0 1.71875 -0.421875q0.375 -0.296875 0.375 -0.78125q0 -0.328125 -0.203125 -0.546875q-0.21875 -0.21875 -0.984375 -0.390625q-3.531248 -0.78125 -4.484373 -1.421875q-1.3125 -0.90625 -1.3125 -2.5q0 -1.4375 1.125 -2.40625q1.140625 -0.984375 3.531248 -0.984375q2.265625 0 3.375 0.75q1.109375 0.734375 1.515625 2.171875l-2.75 0.515625q-0.1875 -0.640625 -0.6875 -0.984375q-0.484375 -0.34375 -1.40625 -0.34375q-1.15625 0 -1.65625 0.3125q-0.3281231 0.234375 -0.3281231 0.59375q0 0.3125 0.2968731 0.53125q0.390625 0.296875 2.71875 0.828125q2.34375 0.53125 3.28125 1.296875q0.90625 0.78125 0.90625 2.1875q0 1.515625 -1.265625 2.609375q-1.265625 1.09375 -3.765625 1.09375q-2.249998 0 -3.578123 -0.90625q-1.3125 -0.921875 -1.71875 -2.5zm12.892942 -9.40625l0 -2.703125l2.921875 0l0 2.703125l-2.921875 0zm0 12.5625l0 -11.0625l2.921875 0l0 11.0625l-2.921875 0zm15.988144 0l-2.921875 0l0 -5.640625q0 -1.796875 -0.1875 -2.3125q-0.1875 -0.53125 -0.609375 -0.828125q-0.421875 -0.296875 -1.015625 -0.296875q-0.765625 0 -1.375 0.421875q-0.59375 0.421875 -0.828125 1.109375q-0.21875 0.6875 -0.21875 2.53125l0 5.015625l-2.921875 0l0 -11.0625l2.71875 0l0 1.625q1.4375 -1.875 3.640625 -1.875q0.96875 0 1.765625 0.359375q0.8125 0.34375 1.21875 0.890625q0.40625 0.53125 0.5625 1.21875q0.171875 0.6875 0.171875 1.96875l0 6.875zm7.824955 4.484375l-2.0156288 0q-1.59375 -2.40625 -2.4375 -5.0q-0.828125 -2.59375 -0.828125 -5.015625q0 -3.015625 1.03125 -5.6875q0.90625 -2.34375 2.28125 -4.3125l2.0000038 0q-1.4375 3.15625 -1.9687538 5.375q-0.53125 2.203125 -0.53125 4.6875q0 1.703125 0.3125 3.5q0.3125 1.796875 0.8750038 3.40625q0.359375 1.0625 1.28125 3.046875zm6.4774323 -20.015625q4.953125 0 4.953125 7.890625q0 7.890625 -4.953125 7.890625q-2.296875 0 -3.625 -1.78125q-1.328125 -1.796875 -1.328125 -6.140625q0 -7.859375 4.953125 -7.859375zm1.9375 6.671875q-0.078125 -2.59375 -0.5625 -3.4375q-0.484375 -0.84375 -1.375 -0.84375q-0.875 0 -1.359375 0.859375q-0.484375 0.84375 -0.5625 3.421875l3.859375 0zm0 2.4375l-3.859375 0q0.078125 2.59375 0.5625 3.4375q0.484375 0.84375 1.359375 0.84375q0.890625 0 1.375 -0.84375q0.484375 -0.84375 0.5625 -3.4375zm4.5440674 10.90625q0.859375 -1.84375 1.21875 -2.84375q0.359375 -0.984375 0.65625 -2.265625q0.296875 -1.296875 0.4375 -2.453125q0.15625 -1.171875 0.15625 -2.390625q0 -2.484375 -0.53125 -4.6875q-0.53125 -2.21875 -1.953125 -5.375l1.984375 0q1.578125 2.25 2.4375 4.765625q0.875 2.5 0.875 5.078125q0 2.171875 -0.6875 4.671875q-0.78125 2.78125 -2.578125 5.5l-2.015625 0zm19.125595 -12.984375l0 -2.6875l10.671875 0l0 2.6875l-10.671875 0zm0 4.625l0 -2.703125l10.671875 0l0 2.703125l-10.671875 0zm17.630936 -7.1875l3.125 0l2.640625 7.859375l2.578125 -7.859375l3.03125 0l-3.90625 10.640625l-0.6875 1.9375q-0.390625 0.96875 -0.75 1.46875q-0.34375 0.515625 -0.796875 0.828125q-0.453125 0.328125 -1.109375 0.5q-0.65625 0.171875 -1.5 0.171875q-0.84375 0 -1.65625 -0.171875l-0.25 -2.296875q0.6875 0.140625 1.234375 0.140625q1.015625 0 1.5 -0.609375q0.5 -0.59375 0.765625 -1.515625l-4.21875 -11.09375zm12.908569 6.984375l0 -2.921875l5.75 0l0 2.921875l-5.75 0zm17.086807 -3.71875l-2.875 0.53125q-0.15625 -0.875 -0.671875 -1.3125q-0.515625 -0.4375 -1.328125 -0.4375q-1.09375 0 -1.75 0.765625q-0.65625 0.75 -0.65625 2.515625q0 1.96875 0.65625 2.78125q0.671875 0.8125 1.78125 0.8125q0.84375 0 1.375 -0.46875q0.53125 -0.46875 0.75 -1.625l2.859375 0.484375q-0.4375 1.984375 -1.71875 3.0q-1.265625 1.0 -3.390625 1.0q-2.4375 0 -3.875 -1.53125q-1.4375 -1.53125 -1.4375 -4.234375q0 -2.75 1.4375 -4.265625q1.453125 -1.53125 3.921875 -1.53125q2.015625 0 3.203125 0.875q1.203125 0.859375 1.71875 2.640625zm1.5491943 2.109375q0 -1.453125 0.71875 -2.8125q0.71875 -1.375 2.03125 -2.09375q1.3125 -0.71875 2.9375 -0.71875q2.515625 0 4.109375 1.640625q1.609375 1.625 1.609375 4.109375q0 2.515625 -1.625 4.171875q-1.609375 1.640625 -4.0625 1.640625q-1.53125 0 -2.90625 -0.6875q-1.375 -0.6875 -2.09375 -2.015625q-0.71875 -1.328125 -0.71875 -3.234375zm3.0 0.15625q0 1.640625 0.78125 2.515625q0.78125 0.875 1.921875 0.875q1.140625 0 1.921875 -0.875q0.78125 -0.875 0.78125 -2.53125q0 -1.625 -0.78125 -2.5q-0.78125 -0.875 -1.921875 -0.875q-1.140625 0 -1.921875 0.875q-0.78125 0.875 -0.78125 2.515625zm10.028076 -0.15625q0 -1.453125 0.71875 -2.8125q0.71875 -1.375 2.03125 -2.09375q1.3125 -0.71875 2.9375 -0.71875q2.515625 0 4.109375 1.640625q1.609375 1.625 1.609375 4.109375q0 2.515625 -1.625 4.171875q-1.609375 1.640625 -4.0625 1.640625q-1.53125 0 -2.90625 -0.6875q-1.375 -0.6875 -2.09375 -2.015625q-0.71875 -1.328125 -0.71875 -3.234375zm3.0 0.15625q0 1.640625 0.78125 2.515625q0.78125 0.875 1.921875 0.875q1.140625 0 1.921875 -0.875q0.78125 -0.875 0.78125 -2.53125q0 -1.625 -0.78125 -2.5q-0.78125 -0.875 -1.921875 -0.875q-1.140625 0 -1.921875 0.875q-0.78125 0.875 -0.78125 2.515625zm13.496826 5.53125l-2.921875 0l0 -11.0625l2.71875 0l0 1.578125q0.703125 -1.125 1.25 -1.46875q0.5625 -0.359375 1.265625 -0.359375q1.0 0 1.9375 0.5625l-0.90625 2.546875q-0.75 -0.484375 -1.375 -0.484375q-0.625 0 -1.046875 0.34375q-0.421875 0.328125 -0.671875 1.21875q-0.25 0.890625 -0.25 3.703125l0 3.421875zm15.643814 0l-2.71875 0l0 -1.625q-0.671875 0.953125 -1.59375 1.421875q-0.921875 0.453125 -1.859375 0.453125q-1.90625 0 -3.265625 -1.53125q-1.359375 -1.546875 -1.359375 -4.296875q0 -2.8125 1.3125 -4.265625q1.328125 -1.46875 3.359375 -1.46875q1.84375 0 3.203125 1.546875l0 -5.5l2.921875 0l0 15.265625zm-7.8125 -5.765625q0 1.765625 0.5 2.5625q0.703125 1.140625 1.96875 1.140625q1.015625 0 1.71875 -0.859375q0.71875 -0.859375 0.71875 -2.5625q0 -1.90625 -0.6875 -2.75q-0.6875 -0.84375 -1.765625 -0.84375q-1.046875 0 -1.75 0.828125q-0.703125 0.828125 -0.703125 2.484375zm10.699951 -6.796875l0 -2.703125l2.921875 0l0 2.703125l-2.921875 0zm0 12.5625l0 -11.0625l2.921875 0l0 11.0625l-2.921875 0zm15.988144 0l-2.921875 0l0 -5.640625q0 -1.796875 -0.1875 -2.3125q-0.1875 -0.53125 -0.609375 -0.828125q-0.421875 -0.296875 -1.015625 -0.296875q-0.765625 0 -1.375 0.421875q-0.59375 0.421875 -0.828125 1.109375q-0.21875 0.6875 -0.21875 2.53125l0 5.015625l-2.921875 0l0 -11.0625l2.71875 0l0 1.625q1.4375 -1.875 3.640625 -1.875q0.96875 0 1.765625 0.359375q0.8125 0.34375 1.21875 0.890625q0.40625 0.53125 0.5625 1.21875q0.171875 0.6875 0.171875 1.96875l0 6.875zm5.153076 -7.6875l-2.65625 -0.484375q0.453125 -1.59375 1.546875 -2.359375q1.09375 -0.78125 3.25 -0.78125q1.953125 0 2.90625 0.46875q0.96875 0.453125 1.359375 1.171875q0.390625 0.71875 0.390625 2.625l-0.03125 3.40625q0 1.46875 0.125 2.15625q0.140625 0.6875 0.53125 1.484375l-2.890625 0q-0.109375 -0.296875 -0.28125 -0.859375q-0.078125 -0.265625 -0.109375 -0.34375q-0.75 0.71875 -1.609375 1.09375q-0.84375 0.359375 -1.8125 0.359375q-1.703125 0 -2.6875 -0.921875q-0.984375 -0.9375 -0.984375 -2.34375q0 -0.9375 0.4375 -1.671875q0.453125 -0.734375 1.25 -1.125q0.8125 -0.390625 2.34375 -0.6875q2.046875 -0.390625 2.84375 -0.71875l0 -0.296875q0 -0.84375 -0.421875 -1.203125q-0.421875 -0.359375 -1.578125 -0.359375q-0.78125 0 -1.21875 0.3125q-0.4375 0.3125 -0.703125 1.078125zm3.921875 2.375q-0.5625 0.1875 -1.78125 0.453125q-1.21875 0.25 -1.59375 0.5q-0.578125 0.40625 -0.578125 1.03125q0 0.625 0.453125 1.078125q0.46875 0.4375 1.171875 0.4375q0.796875 0 1.515625 -0.515625q0.53125 -0.40625 0.6875 -0.96875q0.125 -0.375 0.125 -1.4375l0 -0.578125zm10.830444 -5.75l0 2.328125l-2.0 0l0 4.46875q0 1.34375 0.046875 1.578125q0.0625 0.21875 0.265625 0.375q0.203125 0.140625 0.5 0.140625q0.40625 0 1.171875 -0.28125l0.25 2.265625q-1.015625 0.4375 -2.3125 0.4375q-0.796875 0 -1.4375 -0.265625q-0.625 -0.265625 -0.921875 -0.6875q-0.296875 -0.421875 -0.40625 -1.140625q-0.09375 -0.515625 -0.09375 -2.0625l0 -4.828125l-1.34375 0l0 -2.328125l1.34375 0l0 -2.1875l2.9375 -1.71875l0 3.90625l2.0 0zm8.430557 7.546875l2.90625 0.484375q-0.546875 1.609375 -1.765625 2.453125q-1.21875 0.828125 -3.03125 0.828125q-2.890625 0 -4.28125 -1.890625q-1.09375 -1.5 -1.09375 -3.8125q0 -2.75 1.4375 -4.296875q1.4375 -1.5625 3.640625 -1.5625q2.46875 0 3.890625 1.640625q1.421875 1.625 1.359375 4.984375l-7.328125 0q0.03125 1.296875 0.703125 2.03125q0.6875 0.71875 1.703125 0.71875q0.6875 0 1.15625 -0.375q0.46875 -0.375 0.703125 -1.203125zm0.171875 -2.96875q-0.03125 -1.265625 -0.65625 -1.921875q-0.625 -0.671875 -1.53125 -0.671875q-0.953125 0 -1.578125 0.703125q-0.625 0.703125 -0.609375 1.890625l4.375 0zm10.537338 0.796875q0 -1.453125 0.71875 -2.8125q0.71875 -1.375 2.03125 -2.09375q1.3125 -0.71875 2.9375 -0.71875q2.515625 0 4.109375 1.640625q1.609375 1.625 1.609375 4.109375q0 2.515625 -1.625 4.171875q-1.609375 1.640625 -4.0625 1.640625q-1.53125 0 -2.90625 -0.6875q-1.375 -0.6875 -2.09375 -2.015625q-0.71875 -1.328125 -0.71875 -3.234375zm3.0 0.15625q0 1.640625 0.78125 2.515625q0.78125 0.875 1.921875 0.875q1.140625 0 1.921875 -0.875q0.78125 -0.875 0.78125 -2.53125q0 -1.625 -0.78125 -2.5q-0.78125 -0.875 -1.921875 -0.875q-1.140625 0 -1.921875 0.875q-0.78125 0.875 -0.78125 2.515625zm9.418701 -5.53125l1.625 0l0 -0.828125q0 -1.390625 0.296875 -2.078125q0.296875 -0.6875 1.09375 -1.125q0.796875 -0.4375 2.015625 -0.4375q1.25 0 2.453125 0.375l-0.40625 2.046875q-0.6875 -0.171875 -1.34375 -0.171875q-0.625 0 -0.90625 0.296875q-0.28125 0.296875 -0.28125 1.140625l0 0.78125l2.1875 0l0 2.296875l-2.1875 0l0 8.765625l-2.921875 0l0 -8.765625l-1.625 0l0 -2.296875zm20.715546 7.546875l2.90625 0.484375q-0.546875 1.609375 -1.765625 2.453125q-1.21875 0.828125 -3.03125 0.828125q-2.890625 0 -4.28125 -1.890625q-1.09375 -1.5 -1.09375 -3.8125q0 -2.75 1.4375 -4.296875q1.4375 -1.5625 3.640625 -1.5625q2.46875 0 3.890625 1.640625q1.421875 1.625 1.359375 4.984375l-7.328125 0q0.03125 1.296875 0.703125 2.03125q0.6875 0.71875 1.703125 0.71875q0.6875 0 1.15625 -0.375q0.46875 -0.375 0.703125 -1.203125zm0.171875 -2.96875q-0.03125 -1.265625 -0.65625 -1.921875q-0.625 -0.671875 -1.53125 -0.671875q-0.953125 0 -1.578125 0.703125q-0.625 0.703125 -0.609375 1.890625l4.375 0zm7.4710693 -1.203125l-2.65625 -0.484375q0.453125 -1.59375 1.546875 -2.359375q1.09375 -0.78125 3.25 -0.78125q1.953125 0 2.90625 0.46875q0.96875 0.453125 1.359375 1.171875q0.390625 0.71875 0.390625 2.625l-0.03125 3.40625q0 1.46875 0.125 2.15625q0.140625 0.6875 0.53125 1.484375l-2.890625 0q-0.109375 -0.296875 -0.28125 -0.859375q-0.078125 -0.265625 -0.109375 -0.34375q-0.75 0.71875 -1.609375 1.09375q-0.84375 0.359375 -1.8125 0.359375q-1.703125 0 -2.6875 -0.921875q-0.984375 -0.9375 -0.984375 -2.34375q0 -0.9375 0.4375 -1.671875q0.453125 -0.734375 1.25 -1.125q0.8125 -0.390625 2.34375 -0.6875q2.046875 -0.390625 2.84375 -0.71875l0 -0.296875q0 -0.84375 -0.421875 -1.203125q-0.421875 -0.359375 -1.578125 -0.359375q-0.78125 0 -1.21875 0.3125q-0.4375 0.3125 -0.703125 1.078125zm3.921875 2.375q-0.5625 0.1875 -1.78125 0.453125q-1.21875 0.25 -1.59375 0.5q-0.578125 0.40625 -0.578125 1.03125q0 0.625 0.453125 1.078125q0.46875 0.4375 1.171875 0.4375q0.796875 0 1.515625 -0.515625q0.53125 -0.40625 0.6875 -0.96875q0.125 -0.375 0.125 -1.4375l0 -0.578125zm15.392944 -2.484375l-2.875 0.53125q-0.15625 -0.875 -0.671875 -1.3125q-0.515625 -0.4375 -1.328125 -0.4375q-1.09375 0 -1.75 0.765625q-0.65625 0.75 -0.65625 2.515625q0 1.96875 0.65625 2.78125q0.671875 0.8125 1.78125 0.8125q0.84375 0 1.375 -0.46875q0.53125 -0.46875 0.75 -1.625l2.859375 0.484375q-0.4375 1.984375 -1.71875 3.0q-1.265625 1.0 -3.390625 1.0q-2.4375 0 -3.875 -1.53125q-1.4375 -1.53125 -1.4375 -4.234375q0 -2.75 1.4375 -4.265625q1.453125 -1.53125 3.921875 -1.53125q2.015625 0 3.203125 0.875q1.203125 0.859375 1.71875 2.640625zm5.1429443 -7.46875l0 5.609375q1.40625 -1.65625 3.375 -1.65625q1.015625 0 1.828125 0.375q0.8125 0.375 1.21875 0.96875q0.40625 0.578125 0.5625 1.28125q0.15625 0.703125 0.15625 2.203125l0 6.484375l-2.921875 0l0 -5.84375q0 -1.734375 -0.171875 -2.203125q-0.171875 -0.46875 -0.59375 -0.75q-0.421875 -0.28125 -1.046875 -0.28125q-0.734375 0 -1.3125 0.359375q-0.5625 0.359375 -0.828125 1.078125q-0.265625 0.703125 -0.265625 2.09375l0 5.546875l-2.9375 0l0 -15.265625l2.9375 0zm18.21936 7.578125l-2.65625 -0.484375q0.453125 -1.59375 1.546875 -2.359375q1.09375 -0.78125 3.25 -0.78125q1.953125 0 2.90625 0.46875q0.96875 0.453125 1.359375 1.171875q0.390625 0.71875 0.390625 2.625l-0.03125 3.40625q0 1.46875 0.125 2.15625q0.140625 0.6875 0.53125 1.484375l-2.890625 0q-0.109375 -0.296875 -0.28125 -0.859375q-0.078125 -0.265625 -0.109375 -0.34375q-0.75 0.71875 -1.609375 1.09375q-0.84375 0.359375 -1.8125 0.359375q-1.703125 0 -2.6875 -0.921875q-0.984375 -0.9375 -0.984375 -2.34375q0 -0.9375 0.4375 -1.671875q0.453125 -0.734375 1.25 -1.125q0.8125 -0.390625 2.34375 -0.6875q2.046875 -0.390625 2.84375 -0.71875l0 -0.296875q0 -0.84375 -0.421875 -1.203125q-0.421875 -0.359375 -1.578125 -0.359375q-0.78125 0 -1.21875 0.3125q-0.4375 0.3125 -0.703125 1.078125zm3.921875 2.375q-0.5625 0.1875 -1.78125 0.453125q-1.21875 0.25 -1.59375 0.5q-0.578125 0.40625 -0.578125 1.03125q0 0.625 0.453125 1.078125q0.46875 0.4375 1.171875 0.4375q0.796875 0 1.515625 -0.515625q0.53125 -0.40625 0.6875 -0.96875q0.125 -0.375 0.125 -1.4375l0 -0.578125zm15.814819 5.3125l-2.921875 0l0 -5.640625q0 -1.796875 -0.1875 -2.3125q-0.1875 -0.53125 -0.609375 -0.828125q-0.421875 -0.296875 -1.015625 -0.296875q-0.765625 0 -1.375 0.421875q-0.59375 0.421875 -0.828125 1.109375q-0.21875 0.6875 -0.21875 2.53125l0 5.015625l-2.921875 0l0 -11.0625l2.71875 0l0 1.625q1.4375 -1.875 3.640625 -1.875q0.96875 0 1.765625 0.359375q0.8125 0.34375 1.21875 0.890625q0.40625 0.53125 0.5625 1.21875q0.171875 0.6875 0.171875 1.96875l0 6.875zm2.6999512 0.734375l3.34375 0.40625q0.078125 0.578125 0.375 0.796875q0.421875 0.3125 1.3125 0.3125q1.15625 0 1.71875 -0.34375q0.390625 -0.234375 0.59375 -0.734375q0.125 -0.375 0.125 -1.34375l0 -1.625q-1.3125 1.796875 -3.3125 1.796875q-2.21875 0 -3.53125 -1.890625q-1.015625 -1.484375 -1.015625 -3.703125q0 -2.78125 1.328125 -4.25q1.34375 -1.46875 3.34375 -1.46875q2.046875 0 3.375 1.796875l0 -1.546875l2.734375 0l0 9.921875q0 1.96875 -0.328125 2.9375q-0.3125 0.96875 -0.890625 1.515625q-0.578125 0.546875 -1.5625 0.859375q-0.96875 0.3125 -2.453125 0.3125q-2.8125 0 -4.0 -0.96875q-1.171875 -0.953125 -1.171875 -2.4375q0 -0.140625 0.015625 -0.34375zm2.609375 -6.5q0 1.765625 0.671875 2.59375q0.6875 0.8125 1.6875 0.8125q1.078125 0 1.8125 -0.84375q0.75 -0.84375 0.75 -2.484375q0 -1.71875 -0.71875 -2.546875q-0.703125 -0.84375 -1.78125 -0.84375q-1.0625 0 -1.75 0.828125q-0.671875 0.8125 -0.671875 2.484375zm10.684326 5.765625l0 -15.265625l2.921875 0l0 15.265625l-2.921875 0zm12.331909 -3.515625l2.90625 0.484375q-0.546875 1.609375 -1.765625 2.453125q-1.21875 0.828125 -3.03125 0.828125q-2.890625 0 -4.28125 -1.890625q-1.09375 -1.5 -1.09375 -3.8125q0 -2.75 1.4375 -4.296875q1.4375 -1.5625 3.640625 -1.5625q2.46875 0 3.890625 1.640625q1.421875 1.625 1.359375 4.984375l-7.328125 0q0.03125 1.296875 0.703125 2.03125q0.6875 0.71875 1.703125 0.71875q0.6875 0 1.15625 -0.375q0.46875 -0.375 0.703125 -1.203125zm0.171875 -2.96875q-0.03125 -1.265625 -0.65625 -1.921875q-0.625 -0.671875 -1.53125 -0.671875q-0.953125 0 -1.578125 0.703125q-0.625 0.703125 -0.609375 1.890625l4.375 0z" fill-rule="nonzero"/><path fill="#000000" fill-opacity="0.0" d="m847.43567 531.6168l32.0 0l0 24.566895l-32.0 0z" fill-rule="evenodd"/><path fill="#dd7e6b" d="m866.701 549.5368l-1.640625 0l0 -10.453125q-0.59375 0.5625 -1.5625 1.140625q-0.953125 0.5625 -1.71875 0.84375l0 -1.59375q1.375 -0.640625 2.40625 -1.5625q1.03125 -0.921875 1.453125 -1.78125l1.0625 0l0 13.40625z" fill-rule="nonzero"/><path fill="#000000" fill-opacity="0.0" d="m80.56431 531.6168l32.0 0l0 24.566895l-32.0 0z" fill-rule="evenodd"/><path fill="#dd7e6b" d="m90.36386 545.5212l0 -1.640625l5.03125 0l0 1.640625l-5.03125 0zm12.572052 4.015625l-1.640625 0l0 -10.453125q-0.59375 0.5625 -1.5625 1.140625q-0.953125 0.5625 -1.71875 0.84375l0 -1.59375q1.375 -0.640625 2.40625 -1.5625q1.03125 -0.921875 1.453125 -1.78125l1.0625 0l0 13.40625z" fill-rule="nonzero"/><path fill="#000000" fill-opacity="0.0" d="m484.80316 527.8268l32.0 0l0 24.566895l-32.0 0z" fill-rule="evenodd"/><path fill="#dd7e6b" d="m488.5844 539.153q0 -2.359375 0.484375 -3.796875q0.484375 -1.453125 1.4375 -2.234375q0.96875 -0.78125 2.421875 -0.78125q1.078125 0 1.890625 0.4375q0.8125 0.421875 1.328125 1.25q0.53125 0.8125 0.828125 1.984375q0.3125 1.15625 0.3125 3.140625q0 2.359375 -0.484375 3.8125q-0.484375 1.4375 -1.453125 2.234375q-0.953125 0.78125 -2.421875 0.78125q-1.921875 0 -3.03125 -1.390625q-1.3125 -1.671875 -1.3125 -5.4375zm1.671875 0q0 3.296875 0.765625 4.390625q0.78125 1.078125 1.90625 1.078125q1.140625 0 1.90625 -1.09375q0.765625 -1.09375 0.765625 -4.375q0 -3.296875 -0.765625 -4.375q-0.765625 -1.078125 -1.921875 -1.078125q-1.125 0 -1.796875 0.953125q-0.859375 1.21875 -0.859375 4.5z" fill-rule="nonzero"/><path fill="#000000" fill-opacity="0.0" d="m479.35434 147.6483l63.653534 0l0 25.543304l-63.653534 0z" fill-rule="evenodd"/><path fill="#93c47d" d="m489.30746 167.5683l-1.640625 0l0 -10.453125q-0.59375 0.5625 -1.5625 1.140625q-0.953125 0.5625 -1.71875 0.84375l0 -1.59375q1.375 -0.640625 2.40625 -1.5625q1.03125 -0.921875 1.453125 -1.78125l1.0625 0l0 13.40625z" fill-rule="nonzero"/></g></svg>